<?xml version="1.0" standalone="no"?>
<!DOCTYPE svg PUBLIC "-//W3C//DTD SVG 20010904//EN"
 "http://www.w3.org/TR/2001/REC-SVG-20010904/DTD/svg10.dtd">
<svg version="1.0" xmlns="http://www.w3.org/2000/svg"
 width="1024.000000pt" height="1024.000000pt" viewBox="0 0 1024.000000 1024.000000"
 preserveAspectRatio="xMidYMid meet">

<g transform="translate(0.000000,1024.000000) scale(0.100000,-0.100000)"
fill="#000000" stroke="none">
<path d="M3970 9523 c-32 -12 -60 -47 -60 -76 0 -43 48 -87 95 -87 52 0 110
57 101 98 -13 55 -78 86 -136 65z"/>
<path d="M1439 9491 c-37 -38 -39 -82 -4 -116 13 -14 35 -25 49 -25 31 0 86
45 86 71 0 28 -29 68 -61 85 -37 18 -36 19 -70 -15z"/>
<path d="M4798 9513 l-38 -4 0 -202 c0 -111 -3 -273 -7 -360 l-6 -158 76 3 77
3 0 363 0 362 -32 -2 c-18 -1 -50 -3 -70 -5z"/>
<path d="M5815 9495 c-48 -47 -23 -123 46 -140 21 -5 34 0 63 25 45 40 47 71
7 111 -38 37 -82 39 -116 4z"/>
<path d="M881 9135 l-1 -346 82 3 81 3 -2 133 -2 132 138 0 138 0 2 64 c3 78
8 76 -164 76 l-123 0 0 76 0 76 160 -4 160 -3 0 68 0 67 -234 0 -234 0 -1
-345z"/>
<path d="M5297 9253 c-4 -124 -7 -280 -7 -345 l0 -118 225 0 225 0 0 33 c0 17
3 49 6 69 l7 37 -154 3 -154 3 3 180 c1 99 5 222 8 273 l6 92 -79 0 -80 0 -6
-227z"/>
<path d="M6195 9451 l-50 -6 -6 -78 c-4 -43 -8 -80 -10 -82 -2 -2 -26 1 -53 6
-27 5 -51 8 -53 6 -1 -2 3 -29 9 -60 12 -56 13 -57 48 -57 l35 0 2 -135 c1
-121 4 -139 25 -177 37 -66 68 -83 146 -82 37 1 79 6 95 12 24 10 27 16 27 59
0 67 -9 77 -60 69 -31 -5 -49 -2 -66 9 -23 15 -24 21 -24 124 l0 108 66 6 c36
2 68 7 71 10 3 3 8 27 11 53 6 56 -3 64 -78 64 l-55 0 3 71 c3 52 0 74 -10 80
-7 5 -15 8 -18 7 -3 -1 -27 -4 -55 -7z"/>
<path d="M8302 9305 c-87 -19 -142 -54 -185 -117 -50 -72 -63 -142 -41 -218
12 -43 27 -67 72 -111 65 -62 108 -79 212 -82 79 -1 126 14 186 59 24 19 51
34 59 34 24 0 -58 78 -89 86 -21 5 -31 2 -42 -14 -19 -28 -63 -36 -130 -22
-75 16 -134 72 -134 128 1 79 52 122 146 122 49 0 69 -5 99 -26 l38 -26 41 41
c40 40 41 42 26 68 -17 31 -106 79 -160 86 -19 3 -64 -1 -98 -8z"/>
<path d="M1917 9296 c-20 -8 -53 -26 -72 -40 -19 -15 -35 -23 -36 -19 -1 4 -2
19 -2 33 -2 24 -5 25 -69 28 l-68 3 0 -256 0 -255 69 0 68 0 7 38 c3 20 6 92
6 159 0 121 0 122 30 151 38 38 72 47 110 27 48 -25 53 -44 51 -217 l-2 -159
76 3 76 3 5 181 c6 170 5 183 -15 222 -23 45 -68 83 -120 101 -43 14 -67 13
-114 -3z"/>
<path d="M2415 9303 c-46 -11 -115 -46 -115 -59 0 -7 5 -25 10 -39 l10 -27 84
7 c67 6 89 4 115 -9 30 -16 54 -52 44 -68 -2 -5 -38 -8 -80 -8 -93 0 -143 -21
-202 -85 -36 -39 -41 -51 -41 -91 0 -59 24 -99 75 -124 73 -35 161 -21 224 36
21 19 41 34 44 34 3 0 7 -17 9 -37 l3 -38 71 -3 71 -3 -4 53 c-23 362 -24 370
-101 419 -70 44 -146 59 -217 42z m149 -299 c20 -20 20 -34 0 -63 -21 -29 -72
-51 -118 -51 -27 0 -40 6 -52 25 -22 33 -15 55 25 82 41 28 121 32 145 7z"/>
<path d="M3071 9299 c-14 -5 -46 -25 -73 -44 -26 -19 -50 -35 -53 -35 -3 0 -5
16 -5 35 l0 35 -60 0 -60 0 0 -244 0 -244 70 -4 c51 -2 71 1 75 10 3 8 5 78 5
157 l0 143 31 26 c39 33 69 33 108 0 35 -29 39 -44 49 -214 l7 -125 78 0 77 0
0 165 c0 144 -3 171 -21 210 -49 109 -144 163 -228 129z"/>
<path d="M3627 9299 c-92 -22 -186 -102 -206 -175 -14 -50 -14 -155 0 -191 14
-38 55 -79 108 -110 32 -20 62 -27 116 -31 92 -6 110 -1 168 43 71 54 61 86
-30 101 -26 4 -43 2 -47 -5 -10 -15 -70 -14 -110 3 -95 39 -101 154 -11 215
27 18 43 22 72 18 20 -4 40 -12 44 -19 6 -9 14 -9 35 2 40 22 86 68 82 82 -5
18 -105 66 -148 72 -19 2 -52 0 -73 -5z"/>
<path d="M4340 9297 c-91 -21 -120 -46 -120 -101 0 -37 15 -41 94 -21 84 21
146 10 171 -29 27 -41 12 -53 -78 -58 -184 -12 -292 -119 -226 -224 50 -82
170 -109 256 -59 23 14 43 30 43 36 0 6 5 7 11 3 6 -3 8 -17 5 -30 -6 -24 -6
-24 80 -24 l86 0 -5 33 c-3 17 -9 108 -13 201 -7 167 -7 169 -35 201 -57 64
-170 94 -269 72z m146 -301 c13 -55 -30 -96 -101 -96 -36 0 -75 28 -75 54 0
21 27 45 58 52 15 3 32 7 37 9 6 2 25 4 42 4 26 1 34 -4 39 -23z"/>
<path d="M6624 9291 c-53 -24 -114 -78 -130 -116 -20 -48 -28 -186 -14 -230
29 -89 138 -165 237 -165 65 0 152 32 194 71 l33 30 -35 30 c-40 34 -52 36
-86 9 -49 -38 -152 -21 -202 33 -46 50 -30 56 161 59 l173 3 3 53 c9 160 -186
290 -334 223z m157 -114 c18 -13 39 -50 39 -66 0 -7 -37 -11 -105 -11 -104 0
-105 0 -105 24 0 39 43 66 104 66 28 0 58 -6 67 -13z"/>
<path d="M7282 9300 c-13 -6 -43 -26 -66 -45 -24 -19 -46 -35 -50 -35 -3 0 -6
18 -6 40 l0 41 -37 -6 c-91 -15 -81 16 -82 -260 l-2 -245 83 0 83 0 -3 131
c-3 105 0 141 13 176 20 53 38 63 108 63 69 0 79 11 75 87 l-3 58 -45 2 c-25
1 -55 -2 -68 -7z"/>
<path d="M7564 9286 c-28 -13 -55 -29 -59 -36 -11 -18 4 -80 21 -87 9 -3 48 2
87 11 54 12 81 14 106 7 49 -15 81 -39 81 -61 0 -18 -7 -20 -86 -20 -73 0 -96
-5 -160 -31 -86 -36 -114 -65 -114 -121 0 -102 83 -168 212 -168 54 0 72 4 95
23 69 55 65 54 61 22 l-3 -28 93 -4 94 -3 -6 27 c-3 16 -11 101 -16 191 -12
189 -22 222 -77 250 -111 57 -243 68 -329 28z m241 -310 c0 -40 -40 -68 -108
-74 -62 -5 -92 14 -81 52 12 44 42 57 118 54 71 -3 71 -3 71 -32z"/>
<path d="M9036 9265 c-9 -21 -16 -41 -16 -45 0 -4 -16 -42 -36 -86 -20 -43
-42 -96 -48 -118 -7 -23 -16 -40 -21 -40 -13 2 -116 230 -124 274 l-6 35 -78
3 c-71 3 -77 1 -77 -17 0 -24 110 -262 182 -394 l31 -57 -19 -41 c-11 -26 -37
-56 -70 -80 -57 -42 -72 -79 -48 -116 13 -20 23 -23 80 -23 36 0 74 5 85 11
32 17 89 114 147 254 63 151 169 451 162 458 -3 3 -33 8 -67 12 l-62 7 -15
-37z"/>
<path d="M1430 9286 c0 -1 -1 -112 -3 -249 l-2 -247 68 0 67 0 0 250 0 250
-65 -2 c-36 -1 -65 -2 -65 -2z"/>
<path d="M5814 9042 l1 -247 74 0 74 0 -7 170 c-3 94 -6 205 -6 248 l0 77 -68
0 -68 0 0 -248z"/>
<path d="M3941 9263 c0 -10 -2 -115 -6 -233 -4 -118 -3 -220 2 -227 5 -7 30
-9 76 -6 l67 6 0 171 c0 94 -3 201 -7 239 l-6 67 -63 0 c-53 0 -63 -3 -63 -17z"/>
<path d="M9779 9024 c-11 -14 -10 -18 6 -30 36 -27 55 -12 39 30 -8 21 -28 20
-45 0z"/>
<path d="M9517 9023 c-15 -14 -5 -22 39 -29 34 -5 48 -3 54 7 5 7 6 17 4 21
-6 10 -88 11 -97 1z"/>
<path d="M2118 8433 l-58 -4 0 -174 0 -175 135 0 c141 0 145 1 129 44 -5 13
-24 16 -100 16 l-94 0 0 45 0 45 86 0 85 0 -3 28 c-3 27 -4 27 -85 30 l-83 3
0 39 0 40 59 0 c98 0 121 8 121 41 l0 29 -67 -2 c-38 -1 -94 -3 -125 -5z"/>
<path d="M2778 8432 c-20 -4 -74 -89 -118 -184 -16 -35 -29 -54 -30 -43 0 11
-22 66 -50 123 l-49 102 -45 0 -46 0 0 -175 0 -175 30 0 30 0 0 115 c0 63 4
115 9 115 5 0 26 -30 47 -67 37 -68 71 -113 85 -113 4 0 33 43 64 95 30 52 60
95 65 95 6 0 10 -44 10 -104 0 -83 3 -108 16 -121 9 -9 23 -15 31 -13 13 3 15
29 14 161 -1 87 -4 164 -7 171 -6 16 -31 24 -56 18z"/>
<path d="M2999 8357 c-2 -45 -2 -126 -1 -180 l4 -97 29 0 29 0 0 65 c0 64 0
65 24 59 41 -10 131 22 160 57 40 47 35 83 -18 135 l-43 44 -91 0 -90 0 -3
-83z m175 -3 c42 -41 2 -94 -70 -94 -47 0 -54 9 -54 71 l0 39 54 0 c36 0 60
-5 70 -16z"/>
<path d="M3475 8421 c-22 -10 -57 -37 -77 -59 -34 -37 -38 -48 -38 -95 0 -63
22 -111 71 -150 77 -61 168 -56 237 13 47 47 65 104 52 169 -21 116 -135 172
-245 122z m148 -79 c59 -60 39 -162 -38 -191 -51 -20 -110 0 -142 48 -28 42
-29 76 -3 119 41 66 129 78 183 24z"/>
<path d="M3810 8430 c0 -13 41 -153 77 -260 17 -52 34 -86 43 -88 14 -2 84
129 112 210 6 15 13 28 18 28 4 0 17 -35 30 -77 33 -113 55 -153 85 -153 13 0
28 8 33 18 14 29 96 312 91 316 -2 2 -16 7 -31 11 -25 6 -28 4 -42 -45 -9 -28
-20 -79 -26 -113 -18 -103 -20 -105 -45 -35 -12 34 -35 90 -51 123 -23 48 -35
61 -55 63 -23 3 -29 -4 -58 -73 -17 -42 -34 -90 -38 -106 -3 -16 -9 -29 -14
-29 -4 0 -22 46 -40 103 -17 56 -32 102 -33 103 -11 9 -56 12 -56 4z"/>
<path d="M4415 8338 c-4 -57 -4 -121 -1 -143 2 -22 5 -57 5 -77 l1 -38 119 0
c66 0 122 4 125 8 3 5 2 18 -1 30 -5 21 -11 22 -100 22 l-94 0 3 43 3 42 80 5
c71 4 80 7 80 25 0 11 -7 21 -15 22 -8 1 -45 5 -82 8 l-68 7 0 37 0 38 93 9
c82 8 92 11 95 30 3 18 -4 22 -44 28 -26 3 -79 6 -119 6 l-73 0 -7 -102z"/>
<path d="M4787 8425 c-9 -21 -9 -258 -1 -307 6 -32 11 -38 30 -38 20 0 24 5
24 29 0 92 30 118 71 59 43 -63 72 -88 101 -88 32 0 37 20 11 41 -9 8 -29 31
-44 53 l-29 38 33 22 c43 29 63 86 43 124 -31 60 -60 75 -150 80 -71 4 -84 2
-89 -13z m137 -65 c20 -7 26 -17 26 -38 0 -39 -17 -52 -67 -52 l-43 0 0 50 c0
49 1 50 29 50 16 0 41 -4 55 -10z"/>
<path d="M5220 8432 c-117 -55 -101 -168 30 -211 48 -16 55 -22 52 -42 -5 -47
-52 -58 -93 -23 -20 18 -53 18 -69 -1 -9 -11 -7 -19 13 -39 33 -32 87 -47 131
-35 32 9 116 89 116 111 0 4 -15 24 -32 44 -23 24 -49 39 -87 49 -66 17 -90
38 -75 63 15 23 56 27 93 8 56 -30 83 9 37 53 -25 23 -89 36 -116 23z"/>
<path d="M5697 8434 c-3 -4 21 -58 53 -121 54 -102 60 -120 60 -173 0 -57 1
-60 24 -60 23 0 24 4 28 73 3 68 7 77 66 171 34 54 61 100 60 102 -2 1 -15 5
-30 9 -22 6 -29 3 -35 -11 -3 -11 -24 -45 -45 -77 l-39 -58 -18 23 c-10 13
-28 43 -41 68 -12 25 -28 48 -34 52 -14 9 -41 10 -49 2z"/>
<path d="M6147 8410 c-55 -34 -84 -77 -93 -136 -8 -54 0 -78 44 -126 47 -52
80 -68 141 -68 40 0 57 6 92 33 96 73 106 181 26 265 -68 71 -133 81 -210 32z
m154 -62 c37 -27 52 -80 39 -130 -12 -43 -23 -53 -72 -66 -51 -14 -100 1 -132
39 -30 35 -33 67 -11 113 31 65 118 87 176 44z"/>
<path d="M6530 8313 c0 -96 4 -124 20 -158 26 -53 64 -75 133 -75 45 0 61 5
86 26 48 40 54 59 60 197 l6 127 -31 0 c-30 0 -31 -2 -38 -52 -3 -29 -6 -82
-6 -118 0 -42 -5 -73 -15 -87 -31 -45 -107 -37 -141 15 -13 20 -19 55 -22 134
-4 106 -5 108 -28 108 -24 0 -24 -1 -24 -117z"/>
<path d="M7134 8415 c-13 -32 4 -47 46 -43 39 3 39 3 45 -37 4 -22 5 -85 3
-140 l-3 -100 28 -3 27 -3 0 140 0 140 38 3 c32 3 37 6 37 28 0 25 0 25 -108
28 -89 2 -108 0 -113 -13z"/>
<path d="M7525 8415 c-65 -35 -90 -73 -101 -152 -11 -83 40 -147 135 -173 56
-15 117 6 160 56 95 108 31 271 -112 281 -35 3 -62 -1 -82 -12z m143 -78 c27
-27 32 -41 34 -86 2 -48 0 -56 -29 -82 -46 -40 -93 -47 -138 -19 -53 33 -69
62 -62 116 8 70 45 102 123 103 33 1 46 -5 72 -32z"/>
<path d="M7840 8396 l0 -34 36 10 c63 17 64 14 64 -142 l0 -140 25 0 25 0 0
141 0 142 39 -7 c34 -5 39 -3 45 17 12 47 12 47 -114 47 l-120 0 0 -34z"/>
<path d="M8232 8400 c-58 -41 -74 -70 -79 -144 -6 -63 -5 -64 33 -106 71 -75
181 -85 245 -21 60 61 63 173 6 238 -61 69 -138 82 -205 33z m160 -57 c24 -23
28 -34 28 -85 0 -49 -4 -63 -25 -83 -42 -43 -130 -30 -179 24 -18 20 -19 26
-7 69 19 73 52 100 120 101 25 1 43 -7 63 -26z"/>
<path d="M4371 7877 c-38 -19 -65 -63 -71 -115 -4 -39 -9 -48 -27 -50 -19 -3
-23 -10 -23 -38 0 -31 2 -34 30 -34 l30 0 0 -126 c0 -126 0 -126 23 -120 12 3
30 6 40 6 15 0 17 12 17 119 l0 120 38 3 c34 3 37 5 40 38 l3 35 -43 0 c-43 0
-43 0 -40 34 1 19 5 37 8 40 3 4 27 6 52 6 41 0 47 3 50 22 5 31 -39 73 -75
73 -15 0 -39 -6 -52 -13z"/>
<path d="M2809 7853 c0 -16 -3 -124 -5 -240 l-4 -213 39 0 38 0 6 52 c4 28 14
59 23 67 14 15 20 12 60 -34 24 -27 47 -58 50 -67 4 -13 16 -18 45 -18 21 0
39 4 39 8 0 10 -43 69 -89 122 -17 19 -31 42 -31 50 0 8 26 40 57 72 l57 58
-47 0 c-37 0 -51 -5 -65 -22 -35 -45 -80 -88 -92 -88 -10 0 -11 24 -6 104 4
57 4 120 0 140 -6 33 -9 36 -40 36 -30 0 -34 -3 -35 -27z"/>
<path d="M3700 7861 c-19 -36 -9 -91 16 -91 34 0 64 24 64 51 0 51 -58 80 -80
40z"/>
<path d="M6336 7849 c-3 -17 -6 -60 -6 -95 l0 -63 -27 15 c-37 19 -93 18 -122
-2 -13 -9 -36 -37 -52 -62 -48 -76 -37 -147 35 -210 59 -51 106 -51 163 1 24
21 21 23 38 -29 3 -10 15 -14 36 -12 l31 3 -2 234 c0 129 -3 238 -6 243 -3 4
-22 8 -43 8 -35 0 -39 -3 -45 -31z m-52 -209 c41 -15 66 -47 66 -83 0 -43 -22
-73 -64 -87 -69 -23 -133 44 -106 110 12 29 53 70 71 70 4 0 19 -4 33 -10z"/>
<path d="M6986 7858 c-3 -13 -6 -60 -6 -106 l0 -83 -35 27 c-65 49 -150 26
-203 -53 -26 -41 -23 -139 6 -181 51 -70 149 -92 209 -46 25 19 33 21 33 10 0
-18 34 -39 56 -34 13 3 16 40 21 246 l5 242 -40 0 c-33 0 -41 -4 -46 -22z
m-73 -219 c46 -24 67 -52 67 -89 0 -43 -30 -76 -78 -86 -26 -5 -36 -1 -62 24
-40 40 -42 101 -5 137 27 28 45 31 78 14z"/>
<path d="M7876 7858 c-25 -35 -20 -67 10 -74 66 -17 113 44 62 80 -31 22 -54
20 -72 -6z"/>
<path d="M8390 7859 c-26 -48 7 -91 57 -73 31 11 44 54 22 80 -18 21 -66 18
-79 -7z"/>
<path d="M1985 7720 c-12 -4 -27 -15 -34 -24 -14 -17 -32 -22 -30 -8 4 25 -4
32 -36 32 l-35 0 0 -160 0 -160 29 0 c37 0 41 12 41 115 0 78 2 85 26 104 30
23 69 27 81 9 4 -7 10 -60 13 -118 5 -104 5 -105 30 -105 29 0 37 25 39 127 1
81 14 98 76 98 42 0 44 -1 54 -37 6 -21 11 -70 11 -109 0 -66 2 -72 23 -78 53
-14 53 -15 49 112 -3 129 -10 148 -73 190 -43 30 -81 23 -126 -20 -24 -23 -33
-28 -33 -16 0 20 -46 58 -69 57 -9 0 -25 -4 -36 -9z"/>
<path d="M4015 7714 c-16 -8 -37 -22 -47 -31 -15 -13 -17 -12 -20 9 -2 19 -10
24 -42 26 l-39 3 6 -83 c4 -46 7 -118 7 -160 l0 -78 40 0 40 0 0 100 c0 95 2
102 26 126 19 20 31 24 52 20 51 -13 62 -38 62 -147 l0 -99 42 0 41 0 -6 110
c-7 127 -23 172 -69 200 -40 24 -54 25 -93 4z"/>
<path d="M5533 7720 c-12 -5 -29 -20 -39 -34 -20 -31 -30 -33 -37 -6 -4 14
-14 20 -35 20 -17 0 -34 5 -37 10 -3 6 -27 10 -52 10 -34 0 -53 -6 -70 -22
-18 -17 -23 -18 -23 -6 0 17 -20 28 -52 28 -20 0 -21 -3 -13 -157 4 -87 9
-161 12 -165 2 -5 17 -8 32 -8 l28 0 2 112 c1 62 7 118 13 125 17 21 86 16
100 -7 7 -11 18 -20 24 -20 7 0 14 -36 19 -100 l7 -100 33 0 33 0 4 106 c3
116 13 134 69 134 50 0 59 -20 59 -136 l0 -104 40 0 40 0 0 115 c0 63 -5 124
-11 137 -25 53 -100 88 -146 68z"/>
<path d="M8124 7716 c-64 -28 -95 -104 -56 -139 9 -8 43 -27 75 -41 49 -22 58
-29 55 -48 -2 -19 -9 -23 -38 -21 -19 0 -48 4 -64 9 -22 5 -32 3 -43 -11 -20
-28 -17 -34 30 -55 78 -36 154 -21 196 39 12 16 21 40 21 53 0 34 -45 72 -107
93 -39 12 -53 22 -53 36 0 24 44 36 82 21 22 -8 31 -7 43 5 20 20 19 28 -8 46
-35 22 -97 29 -133 13z"/>
<path d="M9067 7706 c-46 -31 -50 -32 -42 -6 6 18 2 20 -34 20 l-41 0 0 -163
0 -163 40 4 40 4 0 104 0 104 33 20 c38 24 56 25 83 6 16 -13 19 -29 22 -130
l4 -116 39 0 39 0 0 103 c0 56 -5 120 -10 141 -19 85 -103 120 -173 72z"/>
<path d="M9364 7696 c-26 -26 -34 -43 -34 -68 0 -40 17 -58 81 -91 48 -24 61
-55 33 -77 -14 -12 -20 -12 -46 3 -39 23 -55 21 -69 -5 -10 -19 -8 -25 15 -45
34 -29 107 -31 152 -4 30 18 64 74 64 105 0 25 -43 64 -95 86 -25 11 -45 26
-45 34 0 22 37 30 72 15 28 -11 33 -11 49 10 11 13 17 27 14 31 -11 17 -76 40
-115 40 -34 0 -48 -6 -76 -34z"/>
<path d="M2446 7699 c-14 -11 -26 -29 -26 -39 0 -23 33 -35 59 -21 22 12 80
15 105 5 10 -4 16 -18 16 -35 0 -28 -2 -29 -44 -29 -56 0 -93 -14 -128 -48
-34 -32 -36 -71 -5 -99 54 -50 101 -55 145 -18 36 30 42 31 42 5 0 -14 9 -21
35 -26 20 -3 39 -4 42 0 9 9 -15 254 -28 278 -26 48 -163 66 -213 27z m143
-188 c18 -32 -28 -58 -91 -53 -23 2 -23 30 -1 54 22 24 79 24 92 -1z"/>
<path d="M3195 7667 c-50 -48 -55 -57 -55 -95 0 -104 104 -201 192 -178 33 8
78 53 72 71 -7 17 -59 21 -69 5 -13 -22 -53 -10 -78 24 l-26 33 90 6 c50 4 95
9 100 13 18 11 9 72 -17 110 -37 54 -52 63 -107 64 -44 0 -51 -4 -102 -53z
m150 -32 c44 -43 34 -56 -37 -53 -56 3 -63 5 -66 25 -3 23 30 53 61 53 10 0
29 -11 42 -25z"/>
<path d="M3695 7702 c3 -8 5 -79 5 -158 0 -86 4 -143 9 -140 5 4 21 2 35 -4
17 -6 27 -6 31 1 4 5 4 78 0 162 l-7 152 -39 0 c-29 0 -38 -3 -34 -13z"/>
<path d="M4620 7698 c-69 -35 -112 -117 -96 -183 14 -57 100 -125 158 -125 39
0 109 42 139 83 55 75 35 165 -49 218 -55 35 -93 37 -152 7z m128 -84 c33 -38
30 -86 -9 -118 -36 -31 -63 -33 -105 -7 -36 22 -46 57 -28 99 27 65 96 78 142
26z"/>
<path d="M4910 7561 c0 -87 2 -160 4 -162 3 -3 23 -3 45 -1 l41 4 0 90 c0 49
4 98 10 108 11 20 59 40 97 40 22 0 24 4 21 38 -3 35 -5 37 -39 40 -25 2 -40
-3 -54 -18 -21 -24 -34 -25 -49 -6 -6 7 -26 16 -43 20 l-33 6 0 -159z"/>
<path d="M5845 7701 c-79 -49 -118 -131 -92 -193 18 -44 77 -94 127 -109 48
-14 106 -1 135 31 18 20 18 21 -4 43 -21 21 -23 21 -35 5 -17 -24 -63 -23
-103 2 -58 35 -36 50 77 50 98 0 110 6 110 49 0 104 -127 177 -215 122z m119
-73 c22 -32 21 -35 -22 -41 -50 -8 -112 2 -112 19 0 43 107 60 134 22z"/>
<path d="M7230 7698 c-48 -33 -72 -70 -77 -121 -5 -37 -1 -54 21 -91 50 -86
125 -115 195 -75 51 28 58 46 25 61 -19 9 -30 9 -45 0 -31 -20 -66 -14 -88 14
-12 15 -21 31 -21 35 0 5 27 9 60 9 32 0 82 5 110 11 44 9 50 14 50 35 0 39
-27 82 -72 114 -52 38 -110 40 -158 8z m134 -64 c9 -8 16 -24 16 -35 0 -17 -8
-19 -75 -19 -82 0 -94 11 -53 50 26 24 90 27 112 4z"/>
<path d="M7586 7690 c-76 -49 -97 -128 -53 -205 37 -65 119 -107 181 -91 31 8
86 53 86 71 0 18 -59 30 -73 16 -21 -21 -75 -12 -107 17 -45 40 -49 80 -12
120 34 36 89 44 116 17 19 -20 28 -19 54 5 29 28 28 37 -10 60 -51 31 -123 27
-182 -10z"/>
<path d="M7882 7632 c-1 -48 0 -120 4 -159 l6 -73 34 0 34 0 0 160 0 160 -37
0 -38 0 -3 -88z"/>
<path d="M8635 7701 c-58 -36 -95 -97 -95 -159 0 -37 40 -100 78 -124 131 -81
316 69 248 200 -16 31 -61 74 -93 91 -33 17 -104 13 -138 -8z m124 -77 c79
-66 -12 -198 -95 -139 -34 23 -49 69 -34 105 26 63 79 76 129 34z"/>
<path d="M8388 7555 l-3 -155 40 0 40 0 3 155 4 155 -41 0 -40 0 -3 -155z"/>
<path d="M9610 7481 c-13 -25 -13 -67 1 -92 8 -16 7 -25 -5 -38 -22 -24 -20
-51 4 -51 35 0 67 22 89 60 27 48 27 94 1 120 -26 26 -76 26 -90 1z"/>
<path d="M4570 7227 c-35 -18 -67 -69 -74 -122 -6 -39 -9 -44 -25 -35 -24 12
-31 4 -31 -37 0 -30 3 -33 30 -33 l30 0 0 -120 0 -120 35 0 35 0 0 74 c0 40 3
94 6 120 7 46 7 46 46 46 38 0 39 1 36 33 -3 30 -6 32 -45 35 -47 3 -50 10
-32 61 12 33 35 40 58 19 10 -11 15 -9 26 5 35 48 -36 105 -95 74z"/>
<path d="M2733 7218 c-8 -13 -8 -436 0 -444 2 -2 18 -7 35 -10 l32 -6 0 43 c0
24 4 50 9 58 18 28 77 -6 133 -77 20 -25 88 -32 88 -9 0 6 -23 34 -51 62 -28
27 -59 61 -70 76 l-19 28 55 59 c59 63 58 72 -6 72 -23 0 -36 -10 -65 -50 -39
-54 -73 -67 -75 -27 0 12 0 70 1 130 l2 107 -31 0 c-16 0 -33 -6 -38 -12z"/>
<path d="M6466 7208 c-3 -13 -6 -56 -6 -97 l0 -73 -25 16 c-34 22 -93 20 -139
-7 -103 -59 -101 -209 3 -264 55 -29 100 -29 136 -2 22 18 29 20 36 8 5 -8 9
-18 9 -22 0 -5 14 -7 31 -5 l31 3 -1 225 c-1 123 -3 225 -4 226 -1 1 -16 5
-33 8 -27 6 -32 4 -38 -16z m-36 -215 c59 -53 49 -138 -19 -161 -62 -22 -130
49 -111 117 6 26 62 71 86 71 8 0 27 -12 44 -27z"/>
<path d="M7026 7184 c-3 -26 -6 -71 -6 -101 l0 -54 -26 20 c-62 49 -172 3
-194 -80 -17 -62 -4 -116 39 -161 47 -51 107 -62 152 -29 30 23 49 21 49 -5 0
-9 10 -14 28 -14 l27 0 3 230 c1 178 -1 230 -11 230 -6 0 -21 3 -33 6 -19 5
-22 0 -28 -42z m-27 -200 c51 -43 41 -119 -18 -144 -41 -17 -73 -7 -94 29 -25
43 -22 84 9 115 34 33 64 33 103 0z"/>
<path d="M7928 7195 c-9 -19 -7 -29 6 -50 14 -22 23 -26 44 -20 33 8 41 20 34
49 -12 52 -64 65 -84 21z"/>
<path d="M8394 7206 c-3 -8 -4 -27 -2 -43 2 -22 9 -29 31 -31 16 -2 35 2 43 9
17 14 18 51 2 67 -17 17 -67 15 -74 -2z"/>
<path d="M3950 7196 c-6 -8 -10 -25 -8 -38 2 -19 10 -24 40 -26 29 -3 38 1 43
17 11 36 -3 61 -34 61 -16 0 -34 -7 -41 -14z"/>
<path d="M7771 7131 c-6 -11 -11 -33 -11 -50 0 -36 -1 -36 -64 -17 -63 19
-109 6 -163 -49 -39 -38 -43 -47 -43 -91 0 -68 26 -114 81 -142 52 -27 104
-23 132 10 30 35 22 45 -38 44 -44 0 -59 4 -80 24 -34 32 -34 87 0 124 22 24
30 26 103 26 74 0 80 -2 86 -22 9 -37 7 -136 -4 -143 -15 -10 -12 -21 16 -54
27 -32 61 -40 82 -19 17 17 15 58 -2 58 -8 0 -24 8 -36 18 -17 14 -23 32 -27
85 l-6 67 37 0 c36 0 37 1 34 33 -2 24 -8 33 -24 35 -14 2 -23 14 -30 39 -11
43 -28 52 -43 24z"/>
<path d="M4232 7055 c-30 -25 -31 -25 -37 -5 -5 15 -15 20 -40 20 -28 0 -36
-4 -41 -25 -7 -28 -2 -271 6 -278 3 -3 20 -2 38 0 l32 5 0 93 c0 76 3 95 18
108 27 25 76 32 91 14 10 -13 30 -148 31 -209 0 -14 8 -18 33 -18 l32 0 -3 97
c-3 123 -14 165 -53 197 -39 33 -69 33 -107 1z"/>
<path d="M5623 7050 c-61 -35 -69 -36 -75 -12 -6 21 -51 32 -131 32 -47 0
-104 -21 -119 -44 -4 -6 -8 -68 -8 -138 0 -119 1 -128 19 -128 31 0 39 21 46
123 10 131 26 146 115 104 23 -11 26 -19 34 -115 l9 -102 39 0 38 0 0 84 c0
68 4 88 20 109 21 26 82 53 99 43 15 -9 31 -100 31 -171 0 -69 6 -79 45 -69
25 6 25 7 25 111 0 115 -13 153 -65 187 -35 23 -63 20 -122 -14z"/>
<path d="M8134 7046 c-19 -19 -34 -41 -34 -50 0 -37 32 -76 78 -98 37 -18 47
-28 47 -48 0 -19 -6 -26 -24 -28 -13 -2 -28 1 -34 7 -17 17 -64 13 -71 -5 -10
-27 -7 -31 34 -48 53 -21 98 -20 133 2 84 56 74 118 -26 168 -57 29 -68 40
-60 61 7 17 43 16 67 -2 26 -20 33 -19 46 5 17 32 -27 70 -81 70 -33 0 -47 -6
-75 -34z"/>
<path d="M8643 7069 c-36 -11 -90 -61 -104 -96 -14 -38 -11 -102 8 -133 28
-48 92 -76 165 -72 34 2 106 65 124 108 25 59 -5 131 -74 175 -48 30 -66 33
-119 18z m92 -84 c52 -51 19 -145 -50 -145 -87 0 -113 106 -37 153 37 23 59
21 87 -8z"/>
<path d="M9016 7055 c-35 -24 -36 -24 -36 -4 0 17 -5 20 -37 17 l-38 -3 -2
-145 c-1 -79 0 -147 2 -150 2 -3 20 -4 39 -2 l36 4 0 93 c0 89 1 95 26 114 33
26 70 27 83 3 5 -10 13 -64 17 -120 l7 -102 36 0 36 0 -3 78 c-5 158 -10 178
-48 212 -42 36 -70 38 -118 5z"/>
<path d="M9299 7057 c-39 -26 -55 -62 -45 -102 5 -21 20 -33 66 -53 33 -15 62
-32 64 -39 3 -7 -6 -21 -20 -30 -21 -13 -30 -14 -45 -5 -35 22 -79 8 -79 -26
0 -17 60 -42 100 -42 60 0 130 57 130 105 0 29 -43 71 -88 86 -70 23 -60 60
15 57 40 -1 62 10 63 33 0 11 -71 39 -99 39 -15 0 -43 -10 -62 -23z"/>
<path d="M1944 7060 c-47 -19 -69 -86 -41 -124 7 -10 35 -30 62 -44 34 -19 50
-33 50 -47 0 -18 -6 -20 -55 -18 -52 1 -69 -7 -70 -32 0 -13 57 -35 89 -35 32
0 98 37 117 65 20 31 15 69 -11 73 -38 8 -125 66 -125 85 0 44 90 25 121 -27
10 -17 19 -24 19 -16 0 39 113 67 139 36 9 -11 10 -42 5 -110 l-7 -96 31 0
c18 0 32 6 36 16 3 9 6 63 6 121 0 102 -1 105 -29 134 -23 23 -38 29 -72 29
-39 0 -103 -29 -121 -54 -5 -7 -8 -4 -8 6 0 39 -80 61 -136 38z"/>
<path d="M2433 7060 c-13 -5 -23 -16 -23 -24 0 -8 -2 -20 -5 -28 -4 -10 9 -13
59 -13 36 0 70 -5 76 -11 7 -7 12 -52 13 -109 1 -92 2 -97 25 -106 41 -16 62
4 57 54 -3 23 -7 72 -11 109 -6 77 -28 107 -92 126 -46 14 -68 14 -99 2z"/>
<path d="M3160 7063 c-23 -8 -70 -55 -86 -85 -8 -15 -14 -45 -14 -68 0 -117
113 -184 219 -131 43 23 48 36 18 55 -12 8 -22 7 -37 -2 -34 -21 -76 -15 -99
14 -27 35 -19 44 38 44 27 0 69 3 95 6 41 6 46 9 46 33 0 86 -102 162 -180
134z m97 -83 c12 -23 11 -25 -18 -33 -40 -11 -91 -5 -96 10 -2 6 5 21 17 33
29 29 80 24 97 -10z"/>
<path d="M3940 6920 l0 -150 35 0 35 0 0 119 c0 65 3 133 6 150 6 31 6 31 -35
31 l-41 0 0 -150z"/>
<path d="M4782 7053 c-46 -23 -82 -87 -82 -149 0 -93 88 -159 179 -134 57 15
131 99 131 149 0 44 -35 105 -76 131 -36 24 -106 26 -152 3z m123 -68 c33 -32
34 -89 3 -122 -26 -28 -92 -32 -120 -6 -27 25 -24 85 8 122 33 39 74 41 109 6z"/>
<path d="M5070 6921 l0 -149 35 -4 35 -4 1 66 c0 36 4 85 7 109 7 42 9 45 55
58 42 12 47 16 47 43 0 28 -2 30 -40 30 -27 0 -42 -5 -49 -17 -9 -17 -10 -17
-28 0 -11 9 -29 17 -41 17 -22 0 -22 -3 -22 -149z"/>
<path d="M5275 7060 c3 -5 10 -10 16 -10 5 0 9 5 9 10 0 6 -7 10 -16 10 -8 0
-12 -4 -9 -10z"/>
<path d="M5979 7055 c-36 -20 -81 -92 -86 -139 -4 -34 1 -48 26 -83 17 -23 45
-50 62 -59 45 -23 121 -15 155 17 24 23 24 23 5 43 -19 19 -21 19 -39 3 -28
-25 -78 -22 -108 8 -14 14 -23 29 -20 34 3 4 38 11 78 14 110 10 118 14 118
53 0 46 -16 76 -54 102 -37 25 -97 29 -137 7z m109 -57 c7 -7 12 -20 12 -30 0
-15 -9 -18 -55 -18 -59 0 -79 16 -55 45 15 18 81 20 98 3z"/>
<path d="M7248 7052 c-62 -41 -92 -103 -79 -163 17 -76 102 -136 175 -125 43
7 86 30 86 46 0 5 -11 17 -24 25 -23 15 -27 15 -49 0 -16 -10 -34 -14 -50 -10
-26 7 -67 40 -67 54 0 5 37 12 83 16 117 9 117 9 117 57 0 34 -7 47 -39 79
-33 33 -45 39 -82 39 -25 0 -56 -8 -71 -18z m110 -54 c20 -20 14 -48 -10 -48
-13 0 -40 -3 -60 -6 -32 -6 -38 -4 -38 11 0 45 76 75 108 43z"/>
<path d="M7978 7063 l-28 -4 0 -150 0 -149 33 0 34 0 6 125 c6 119 2 187 -12
184 -3 -1 -18 -4 -33 -6z"/>
<path d="M8397 7063 c-4 -3 -7 -74 -7 -156 0 -132 2 -148 16 -143 9 3 24 6 35
6 18 0 19 9 19 150 l0 150 -28 0 c-16 0 -32 -3 -35 -7z"/>
<path d="M10138 7013 c-36 -41 -27 -82 20 -97 23 -8 29 -21 13 -31 -5 -3 -12
-1 -16 5 -12 20 -25 10 -25 -20 0 -20 7 -33 22 -41 19 -10 25 -8 49 19 36 40
29 77 -17 99 -35 17 -36 33 -3 33 15 0 20 6 17 23 -4 28 -39 34 -60 10z"/>
<path d="M10016 6995 c-34 -32 -33 -42 9 -66 43 -26 47 -51 8 -49 -42 3 -45 2
-33 -20 17 -32 66 -27 85 10 8 16 15 40 15 54 0 21 -5 25 -32 28 -40 4 -46 33
-8 34 14 0 26 3 28 7 12 35 -35 37 -72 2z"/>
<path d="M2407 6929 c-21 -12 -47 -61 -47 -88 0 -27 56 -71 90 -71 28 0 90 42
90 62 0 6 -24 7 -64 3 -43 -5 -66 -3 -70 4 -11 17 48 70 84 78 22 4 28 8 18
14 -18 12 -79 11 -101 -2z"/>
<path d="M9532 6858 c-16 -16 -16 -115 1 -121 10 -4 10 -6 0 -6 -18 -1 -17
-51 1 -51 34 0 96 79 96 123 0 40 -72 81 -98 55z"/>
<path d="M3416 6770 c-24 -59 -22 -83 7 -75 55 17 80 115 28 115 -13 0 -24
-13 -35 -40z"/>
<path d="M3667 6789 c-10 -15 -21 -43 -24 -63 -5 -30 -3 -35 10 -30 21 8 39
55 35 90 l-3 29 -18 -26z"/>
<path d="M3763 6420 c-39 -23 -63 -76 -63 -136 0 -40 -2 -44 -25 -44 -20 0
-25 -5 -25 -24 0 -29 22 -49 45 -40 16 6 17 -2 14 -106 l-4 -113 40 0 39 0 4
99 c2 54 5 105 7 112 2 6 20 12 39 12 26 0 35 5 40 23 11 43 8 47 -40 47 -38
0 -45 3 -40 18 2 9 8 32 11 51 7 31 9 33 40 28 37 -6 55 7 55 39 0 53 -75 72
-137 34z"/>
<path d="M1797 6403 c-4 -3 -7 -21 -7 -40 0 -31 2 -33 34 -33 39 0 55 25 36
60 -10 19 -49 28 -63 13z"/>
<path d="M3942 6398 c-13 -13 -15 -37 -6 -62 7 -19 64 -22 82 -4 17 17 15 65
-4 72 -25 10 -59 7 -72 -6z"/>
<path d="M5526 6394 c-9 -8 -16 -29 -16 -45 0 -27 3 -29 36 -29 19 0 44 5 55
10 38 21 12 80 -36 80 -13 0 -31 -7 -39 -16z"/>
<path d="M7080 6390 c-16 -31 -24 -135 -12 -169 7 -18 7 -29 2 -26 -6 4 -10
12 -10 19 0 45 -84 60 -151 26 -55 -29 -79 -71 -78 -140 2 -86 9 -102 59 -127
57 -29 113 -30 152 -1 l31 21 17 -23 c10 -13 24 -21 32 -18 12 5 14 26 10 115
-2 59 1 155 7 212 8 77 8 107 0 117 -17 20 -47 17 -59 -6z m-42 -237 c29 -22
32 -29 27 -56 -15 -71 -90 -102 -135 -57 -38 38 -18 120 34 140 23 9 27 7 74
-27z"/>
<path d="M1426 6384 c-8 -21 -8 -304 0 -371 7 -52 7 -53 40 -53 l34 0 0 93 c0
103 12 127 62 127 44 0 58 -28 58 -118 0 -90 13 -115 59 -110 l26 3 0 105 c-1
136 -7 158 -50 176 -54 22 -99 18 -136 -13 l-32 -27 5 102 6 102 -33 0 c-21 0
-35 -6 -39 -16z"/>
<path d="M6030 6180 l0 -220 39 0 39 0 4 213 c2 137 0 215 -7 219 -5 4 -25 8
-42 8 l-33 0 0 -220z"/>
<path d="M8523 6390 c-17 -7 -23 -18 -23 -42 0 -18 -3 -50 -6 -70 l-7 -38 -53
0 c-71 0 -100 -25 -115 -101 -10 -49 -9 -62 9 -102 11 -25 32 -53 47 -63 23
-15 31 -15 65 -4 30 10 43 10 53 2 8 -7 36 -15 62 -19 45 -6 48 -5 41 13 -21
54 -26 120 -19 249 5 77 7 150 5 163 -4 23 -21 27 -59 12z m-49 -240 c51 -19
24 -110 -32 -110 -49 0 -76 51 -56 104 7 18 49 21 88 6z"/>
<path d="M6373 6383 c-19 -7 -16 -72 2 -79 36 -14 94 58 64 77 -15 9 -46 10
-66 2z"/>
<path d="M1205 6255 c-22 -8 -55 -30 -72 -49 -30 -32 -33 -42 -33 -97 0 -50 5
-68 24 -94 48 -63 141 -83 204 -45 35 22 40 41 17 60 -13 11 -21 10 -48 -5
-30 -16 -35 -16 -70 -2 -44 19 -62 52 -53 101 7 37 46 76 77 76 10 0 27 -10
39 -22 l20 -22 26 26 c29 29 26 41 -14 62 -45 22 -75 25 -117 11z"/>
<path d="M4948 6250 c-20 -10 -38 -16 -40 -11 -2 4 -20 11 -40 15 l-38 7 0
-83 c0 -46 3 -113 7 -150 l6 -68 34 0 34 0 -1 83 c-1 45 -1 88 -1 95 1 14 59
52 81 52 38 0 45 -17 50 -127 l5 -108 38 0 39 0 -4 115 c-4 129 -15 157 -73
184 -43 21 -53 20 -97 -4z"/>
<path d="M5251 6239 c-47 -33 -71 -79 -71 -134 0 -46 20 -84 65 -124 29 -25
44 -31 83 -31 29 0 59 8 80 20 28 17 31 23 22 39 -14 27 -30 35 -43 22 -6 -6
-28 -11 -48 -11 -29 0 -43 7 -63 31 -14 17 -26 36 -26 43 0 33 25 78 51 91 36
19 58 19 80 -1 17 -15 20 -15 44 0 36 24 28 45 -25 67 -66 26 -100 24 -149
-12z"/>
<path d="M5740 6257 c-29 -10 -36 -17 -38 -46 -3 -29 -1 -33 15 -26 10 5 41
10 69 13 52 4 69 -5 76 -42 3 -16 -5 -19 -57 -21 -33 -2 -72 -8 -87 -14 -28
-11 -58 -56 -58 -89 0 -20 71 -92 90 -92 20 0 75 27 89 43 16 20 31 13 31 -14
0 -17 6 -20 33 -17 26 2 32 7 31 26 0 12 -1 69 -2 126 l-2 105 -33 25 c-40 31
-108 41 -157 23z m108 -194 c4 -28 -36 -56 -75 -51 -22 2 -29 9 -31 29 -3 22
2 29 25 37 44 17 77 11 81 -15z"/>
<path d="M822 6244 c-15 -10 -22 -24 -20 -37 3 -23 5 -23 78 -12 40 6 54 -1
64 -31 6 -20 2 -22 -55 -28 -52 -6 -68 -13 -96 -41 -64 -64 -31 -133 67 -143
43 -4 55 -1 74 17 23 22 23 22 29 2 4 -16 13 -21 36 -21 l31 0 -1 78 c-1 124
-12 172 -48 204 -26 23 -40 28 -84 28 -32 0 -61 -6 -75 -16z m121 -171 c15 -8
6 -43 -13 -53 -12 -6 -35 -10 -53 -8 -27 2 -33 8 -35 31 -3 21 2 29 20 36 21
8 60 5 81 -6z"/>
<path d="M1800 6255 c0 0 -2 -66 -5 -147 l-4 -148 34 0 c32 0 34 2 39 43 3 23
7 88 9 144 l3 101 -38 4 c-21 2 -38 3 -38 3z"/>
<path d="M2244 6234 c-47 -32 -62 -52 -92 -124 -42 -99 -52 -94 -91 42 l-27
93 -37 3 c-43 4 -45 -3 -23 -83 44 -161 113 -238 150 -167 36 69 76 76 130 23
39 -38 81 -61 111 -61 15 0 55 38 55 52 0 4 -25 8 -55 8 -42 0 -60 5 -75 20
-26 26 -18 40 24 40 18 0 56 7 85 16 61 18 56 21 113 -73 52 -84 70 -71 119
79 16 49 29 103 29 119 0 26 -3 30 -22 27 -18 -2 -32 -22 -61 -81 -21 -44 -42
-75 -47 -72 -6 4 -24 33 -40 65 -25 50 -37 62 -76 79 -65 29 -122 27 -170 -5z
m141 -75 c0 -21 -5 -24 -39 -27 -52 -4 -66 2 -59 28 12 46 98 45 98 -1z"/>
<path d="M2815 6251 c-37 -16 -77 -69 -85 -110 -9 -51 18 -101 78 -144 39 -28
50 -31 115 -31 74 0 117 14 117 38 0 19 -16 23 -75 20 -104 -5 -176 39 -82 50
141 17 292 38 297 42 9 10 -22 21 -46 16 -41 -8 -84 17 -100 59 -11 27 -25 41
-47 49 -44 15 -148 22 -172 11z m195 -66 c21 -13 8 -24 -40 -34 -60 -13 -150
-15 -150 -3 0 17 26 41 50 45 33 5 127 0 140 -8z"/>
<path d="M3945 6251 c-3 -2 -5 -68 -5 -147 l0 -142 33 -5 c17 -2 34 -3 37 0 3
2 6 69 8 147 l4 144 -36 4 c-20 2 -39 2 -41 -1z"/>
<path d="M4117 6253 c-4 -3 -7 -70 -7 -149 l0 -142 39 -4 39 -3 4 93 c3 88 5
95 31 118 32 27 55 30 82 11 15 -11 19 -32 23 -115 4 -89 7 -102 23 -102 9 0
24 -3 33 -6 14 -5 16 9 16 116 l0 122 -37 34 c-43 40 -90 45 -140 15 -31 -19
-31 -19 -36 0 -4 13 -14 19 -34 19 -16 0 -33 -3 -36 -7z"/>
<path d="M4523 6245 c-18 -8 -33 -21 -33 -30 0 -12 14 -15 80 -15 65 0 81 -3
88 -17 16 -31 3 -43 -46 -43 -48 0 -104 -26 -129 -59 -7 -9 -13 -30 -13 -48 0
-63 102 -104 158 -64 37 26 48 26 55 1 3 -14 14 -20 31 -20 l26 0 0 123 c0
115 -1 125 -22 144 -13 11 -33 26 -45 32 -30 15 -111 13 -150 -4z m111 -151
c23 -9 21 -61 -3 -74 -45 -23 -101 -1 -87 35 4 12 49 39 73 45 1 0 8 -3 17 -6z"/>
<path d="M7255 6246 c-56 -25 -70 -50 -74 -138 -3 -76 -2 -81 25 -110 55 -58
122 -61 149 -7 l16 29 -49 0 c-35 0 -54 5 -65 18 -26 28 -21 32 38 32 61 0
125 22 125 42 0 35 -23 87 -48 111 -34 33 -77 41 -117 23z m75 -72 c15 -40 13
-44 -29 -44 -50 0 -60 15 -30 46 29 31 47 30 59 -2z"/>
<path d="M7550 6233 c-22 -18 -30 -21 -30 -10 0 17 -21 27 -58 27 l-27 0 4
-72 c3 -64 -3 -143 -25 -317 l-6 -44 37 6 c21 3 40 8 43 11 2 3 7 37 10 75 l5
70 22 -15 c32 -21 99 -2 141 40 26 26 33 44 39 89 11 90 -15 134 -94 157 -26
7 -36 5 -61 -17z m74 -69 c3 -9 6 -34 6 -57 0 -47 -30 -87 -66 -87 -27 0 -78
56 -70 77 4 8 6 20 6 26 0 23 18 39 51 47 53 12 66 11 73 -6z"/>
<path d="M8112 6240 c-14 -24 -38 -26 -46 -5 -8 21 -62 20 -70 -1 -4 -9 -1
-75 6 -145 l12 -129 33 0 33 0 -2 95 c-1 79 1 98 17 115 23 25 36 25 66 1 21
-17 25 -31 30 -106 6 -92 18 -115 61 -115 17 0 18 7 14 88 -3 48 -6 102 -6
121 0 73 -114 135 -148 81z"/>
<path d="M9050 6248 c-13 -5 -33 -17 -43 -26 -17 -16 -20 -15 -37 8 -18 24
-20 24 -36 8 -16 -16 -16 -25 -6 -95 7 -43 12 -99 12 -125 0 -27 4 -48 9 -48
5 0 16 -3 25 -6 14 -5 16 5 16 74 0 105 10 132 49 132 47 0 61 -30 61 -132 0
-86 1 -89 26 -98 54 -21 54 -20 54 120 0 128 -1 132 -26 155 -34 32 -73 44
-104 33z"/>
<path d="M9319 6245 c-13 -7 -41 -44 -62 -81 l-38 -68 16 -43 c43 -113 163
-154 189 -65 14 50 -8 59 -85 36 -19 -5 -47 32 -55 75 -5 22 0 36 23 61 26 29
32 31 52 21 12 -7 34 -11 49 -9 21 2 28 9 30 29 3 28 -6 35 -64 49 -19 4 -40
3 -55 -5z"/>
<path d="M5520 6182 c0 -38 -3 -103 -6 -145 l-7 -77 42 0 41 0 -2 145 -3 145
-32 0 -33 0 0 -68z"/>
<path d="M6379 6243 c-18 -4 -29 -93 -29 -225 0 -73 3 -76 58 -62 22 6 22 9
22 150 0 154 1 151 -51 137z"/>
<path d="M6497 6174 c-10 -114 -8 -212 3 -219 6 -4 23 -4 39 0 28 6 29 8 33
82 3 70 6 77 36 104 37 34 77 38 92 10 5 -11 10 -58 10 -105 l0 -86 35 0 35 0
2 73 c3 120 1 128 -44 175 -48 48 -70 52 -118 18 l-35 -23 -10 21 c-7 13 -22
22 -41 24 l-31 3 -6 -77z"/>
<path d="M7788 6225 c-42 -28 -71 -100 -66 -162 3 -33 10 -42 57 -75 64 -45
79 -46 115 -13 39 36 33 46 -30 44 -39 -2 -59 2 -65 12 -18 29 -9 38 49 44 91
10 102 13 102 36 0 53 -67 139 -108 139 -10 0 -34 -11 -54 -25z m76 -47 c27
-38 20 -48 -29 -48 -51 0 -54 6 -24 44 25 32 33 32 53 4z"/>
<path d="M8695 6232 c-16 -11 -43 -33 -59 -50 -26 -28 -28 -35 -24 -91 3 -41
10 -67 24 -82 25 -28 87 -59 118 -59 27 0 85 44 74 56 -4 4 -36 10 -70 13 -55
5 -63 9 -66 28 -3 20 2 22 88 29 84 6 91 8 96 30 7 29 -23 91 -57 116 -38 28
-89 32 -124 10z m83 -65 c15 -32 9 -47 -19 -47 -25 0 -59 17 -59 30 0 14 43
51 55 47 5 -2 16 -16 23 -30z"/>
<path d="M9535 6226 c-47 -20 -68 -60 -66 -123 0 -30 5 -62 11 -72 14 -27 99
-81 127 -81 27 0 63 32 63 56 0 14 -8 16 -60 10 -58 -7 -60 -6 -72 19 -6 14
-8 28 -4 33 4 4 34 8 66 9 106 2 118 18 84 102 -23 57 -83 76 -149 47z m93
-59 c6 -5 12 -18 12 -28 0 -17 -8 -19 -60 -19 -63 0 -73 9 -47 42 21 27 64 30
95 5z"/>
<path d="M9720 6020 c-8 -15 -7 -27 5 -50 13 -26 14 -36 4 -65 -15 -41 -7 -53
25 -36 29 16 66 80 66 113 0 51 -77 80 -100 38z"/>
<path d="M9317 5453 c-3 -5 -1 -26 3 -48 l8 -40 2 40 2 40 12 -52 c19 -91 57
-93 42 -3 -3 22 -2 41 4 45 6 4 8 11 5 16 -7 11 -72 12 -78 2z"/>
<path d="M10125 5371 c-274 -81 -428 -292 -429 -586 0 -243 102 -425 288 -511
76 -35 179 -64 229 -64 55 0 21 22 -69 45 -206 52 -328 156 -389 332 -54 156
-41 324 36 482 65 132 225 250 382 281 42 9 67 19 67 27 0 18 -42 15 -115 -6z"/>
<path d="M9175 5334 c-16 -13 -77 -52 -135 -86 -58 -33 -157 -91 -220 -128
-358 -209 -689 -372 -942 -464 -51 -19 -172 -66 -268 -106 -283 -116 -620
-237 -885 -319 -72 -21 -108 -38 -125 -57 -22 -24 -23 -26 -5 -20 11 4 49 17
85 28 95 29 457 144 585 186 61 19 159 57 219 84 60 26 204 85 320 129 116 45
257 101 314 125 192 82 546 264 772 398 85 51 197 117 248 147 81 47 92 57 90
78 -4 33 -18 35 -53 5z"/>
<path d="M10130 5212 c-94 -34 -137 -60 -188 -116 -52 -56 -78 -109 -103 -203
-23 -92 -24 -136 -3 -216 44 -170 150 -279 317 -323 61 -16 87 -18 87 -5 0 5
-33 19 -72 31 -40 12 -93 33 -119 46 -53 26 -147 126 -155 164 -3 14 -11 38
-17 55 -6 16 -11 77 -11 135 1 91 4 113 28 170 54 127 126 193 263 239 42 15
78 32 81 39 6 18 -25 14 -108 -16z m-273 -534 c-3 -8 -6 -5 -6 6 -1 11 2 17 5
13 3 -3 4 -12 1 -19z"/>
<path d="M6307 5163 c-4 -3 -7 -343 -7 -754 l0 -748 -37 -3 c-30 -2 -38 -7
-38 -23 0 -16 8 -21 35 -23 19 -2 38 -9 42 -15 5 -8 13 -8 30 1 18 9 390 13
1628 15 1598 2 1605 2 1605 22 0 20 -7 20 -1085 20 -597 0 -1197 1 -1335 1
-137 0 -286 0 -330 0 -44 0 -167 0 -272 2 l-193 2 0 749 c0 674 -2 749 -16
755 -19 7 -19 7 -27 -1z"/>
<path d="M0 5116 c0 -13 7 -30 17 -37 9 -8 27 -36 39 -64 20 -42 24 -66 24
-152 0 -100 -1 -104 -40 -178 -22 -42 -40 -86 -40 -97 0 -21 0 -21 24 1 14 13
42 55 63 95 37 69 38 73 38 176 0 93 -4 111 -27 160 -22 47 -79 120 -94 120
-2 0 -4 -11 -4 -24z"/>
<path d="M2125 5043 c-203 -32 -429 -218 -484 -398 -36 -115 -45 -206 -31
-307 16 -119 39 -184 95 -268 176 -264 507 -348 800 -203 99 49 167 105 224
182 100 136 137 255 128 416 -8 130 -34 214 -96 301 -63 89 -119 141 -205 193
-114 67 -166 83 -291 86 -60 2 -123 1 -140 -2z m240 -38 c141 -36 270 -126
345 -241 61 -94 86 -159 101 -268 20 -144 -13 -276 -100 -404 -50 -74 -105
-122 -212 -184 -240 -139 -526 -90 -723 123 -168 182 -194 464 -63 699 68 122
221 236 367 274 73 19 211 20 285 1z"/>
<path d="M2101 4895 c-79 -18 -187 -81 -236 -137 -41 -47 -91 -146 -111 -223
-8 -27 -14 -87 -14 -133 0 -153 75 -297 200 -380 144 -96 336 -107 503 -27
109 51 179 132 230 268 95 255 -35 541 -281 617 -88 28 -209 34 -291 15z m325
-59 c175 -87 263 -240 252 -440 -8 -143 -81 -273 -196 -353 -89 -63 -141 -78
-257 -78 -90 1 -108 4 -176 33 -51 22 -98 52 -140 90 -35 31 -66 61 -68 66 -2
5 -12 17 -22 27 -10 10 -16 25 -13 34 4 8 2 15 -2 15 -11 0 -13 29 -16 173 -1
93 3 122 20 171 40 109 63 139 178 232 10 8 13 12 5 8 -9 -5 -12 -3 -7 5 4 6
12 9 17 6 5 -4 19 -3 30 0 17 6 18 9 8 16 -18 11 31 30 59 22 11 -2 22 -1 25
4 4 5 55 9 115 9 105 -1 110 -2 188 -40z m-646 -306 c0 -11 -4 -20 -9 -20 -5
0 -7 9 -4 20 3 11 7 20 9 20 2 0 4 -9 4 -20z m3 -242 c9 -31 2 -33 -11 -3 -6
14 -8 25 -3 25 5 0 11 -10 14 -22z"/>
<path d="M2210 4707 c0 -30 -3 -34 -25 -34 -43 0 -103 -48 -116 -93 -24 -79
15 -145 107 -179 l48 -19 -2 -43 c-2 -24 -5 -56 -8 -71 -8 -42 -39 -36 -69 12
-26 41 -32 42 -67 12 -24 -20 -23 -35 8 -71 17 -20 42 -35 70 -42 41 -11 44
-14 44 -45 0 -32 2 -34 36 -34 35 0 36 1 32 37 -3 35 -1 37 30 44 68 14 123
107 105 180 -14 59 -109 119 -188 119 -39 0 -62 17 -70 52 -8 31 22 68 55 68
16 0 20 -7 20 -35 0 -23 6 -38 15 -42 23 -8 29 3 27 42 -2 29 1 35 17 35 11 0
30 -13 43 -30 12 -16 25 -30 30 -30 5 0 16 16 25 36 18 36 18 36 -10 60 -15
13 -43 26 -61 30 -30 5 -35 10 -38 38 -2 26 -8 32 -30 34 -26 3 -28 1 -28 -31z
m89 -353 c12 -15 21 -41 21 -61 0 -27 -5 -35 -26 -43 -42 -16 -44 -13 -44 60
0 79 13 90 49 44z"/>
<path d="M10193 5000 c-48 -21 -63 -44 -63 -97 0 -53 37 -103 92 -125 16 -6
18 -2 18 35 -1 23 -7 53 -15 67 -19 32 -18 45 1 64 9 9 14 28 12 46 l-3 29
-42 -19z"/>
<path d="M5070 5000 c-183 -23 -384 -144 -500 -300 -206 -278 -194 -651 28
-916 241 -286 640 -345 982 -143 80 48 118 82 181 166 60 79 90 136 118 227
68 220 34 470 -89 644 -97 139 -209 224 -365 281 -132 48 -223 58 -355 41z
m261 -49 c308 -79 495 -291 539 -612 19 -137 2 -241 -65 -384 -83 -179 -218
-295 -430 -370 -74 -26 -272 -32 -368 -11 -249 56 -467 270 -534 526 -22 86
-22 244 0 330 23 88 87 212 147 287 89 110 244 209 371 237 96 21 252 20 340
-3z"/>
<path d="M5090 4830 c-98 -10 -163 -36 -250 -100 -131 -98 -207 -216 -238
-373 -10 -47 -21 -89 -25 -93 -12 -12 -8 -43 7 -51 7 -4 21 -42 30 -84 32
-144 105 -247 241 -339 84 -57 133 -75 243 -90 167 -23 344 40 473 169 64 65
110 152 138 262 10 42 23 84 29 94 5 11 6 26 2 34 -5 9 -16 57 -26 106 -26
131 -77 227 -172 316 -85 81 -159 120 -272 144 -79 16 -79 16 -180 5z m240
-50 c224 -65 400 -338 370 -571 -20 -160 -86 -284 -194 -365 -163 -123 -322
-152 -506 -94 -162 52 -281 175 -340 350 -19 56 -21 82 -18 185 3 117 4 122
45 208 56 116 153 210 290 281 71 36 241 39 353 6z"/>
<path d="M5140 4581 c0 -24 -4 -31 -20 -31 -37 0 -100 -32 -121 -61 -14 -21
-21 -47 -22 -88 -3 -76 18 -106 101 -146 l62 -30 0 -72 c0 -49 -4 -73 -12 -73
-6 0 -28 18 -48 40 -37 41 -66 50 -88 28 -15 -15 -16 -53 -2 -78 16 -29 74
-60 115 -60 l38 0 -6 -44 c-7 -46 1 -56 43 -56 16 0 21 10 26 50 6 44 9 50 31
50 32 0 78 25 97 52 24 34 21 142 -5 184 -30 49 -65 69 -149 88 -105 24 -131
52 -94 104 17 25 54 30 54 7 0 -20 22 -65 31 -65 5 0 12 15 17 33 7 24 13 31
28 28 10 -2 37 -4 59 -5 36 -1 40 2 43 25 4 32 -33 65 -83 75 -29 5 -34 11
-37 38 -2 26 -8 32 -30 34 -25 3 -28 0 -28 -27z m122 -407 c14 -30 -10 -76
-44 -85 -15 -4 -29 -4 -32 -1 -8 7 -7 127 0 135 10 10 65 -26 76 -49z"/>
<path d="M3535 4909 c-156 -23 -236 -63 -340 -169 -59 -61 -84 -97 -115 -163
-36 -77 -69 -214 -48 -201 4 3 8 15 8 28 0 75 83 237 166 326 81 86 170 133
294 156 267 51 520 -65 636 -289 57 -109 79 -285 53 -409 -20 -95 -106 -235
-185 -301 -48 -40 -132 -83 -214 -108 -94 -29 -242 -31 -340 -5 -122 33 -246
125 -334 249 -34 48 -61 119 -76 204 -9 45 -9 44 -5 -18 5 -86 26 -137 94
-233 125 -176 296 -255 530 -244 127 7 236 44 328 112 177 131 237 253 237
481 1 111 -3 140 -23 195 -71 201 -239 346 -445 385 -85 16 -130 17 -221 4z"/>
<path d="M711 4775 c-178 -50 -319 -209 -367 -413 -25 -104 -15 -246 25 -345
17 -42 42 -94 55 -115 62 -98 219 -201 341 -223 33 -6 103 -9 155 -7 82 4 109
10 198 46 56 23 123 55 148 72 86 60 165 184 199 315 56 217 -59 495 -249 599
-126 70 -381 106 -505 71z m272 -31 c168 -43 298 -167 353 -337 34 -105 39
-271 11 -354 -38 -109 -143 -236 -244 -294 -73 -42 -137 -59 -223 -59 -280 0
-500 214 -517 505 -9 139 38 287 123 391 48 58 157 130 225 148 72 20 197 20
272 0z m306 -145 c28 -33 69 -97 91 -142 34 -70 41 -96 49 -179 11 -124 0
-188 -48 -291 -58 -123 -77 -137 -26 -18 87 200 78 385 -27 557 -18 30 -35 54
-38 54 -4 0 -21 18 -39 40 -52 64 -18 46 38 -21z"/>
<path d="M740 4654 c-66 -18 -119 -52 -178 -113 -84 -88 -116 -184 -110 -335
3 -88 8 -110 35 -169 40 -85 126 -172 208 -213 55 -26 69 -29 165 -29 97 0
110 2 172 32 121 57 195 150 233 293 39 148 -8 324 -116 432 -101 101 -263
141 -409 102z m278 -50 c126 -61 202 -172 224 -328 18 -128 -33 -280 -120
-357 -88 -79 -203 -115 -302 -97 -160 29 -291 166 -321 336 -13 71 7 207 40
276 21 42 99 127 150 162 75 53 230 56 329 8z"/>
<path d="M850 4480 c0 -27 -3 -30 -30 -30 -21 0 -42 -11 -68 -34 -34 -32 -37
-39 -37 -89 0 -68 24 -98 99 -126 40 -15 51 -23 50 -40 -3 -103 -5 -111 -19
-111 -15 0 -31 15 -64 59 -15 20 -20 22 -39 12 -57 -30 4 -121 82 -121 21 0
25 -5 28 -32 3 -29 7 -33 36 -36 31 -3 32 -2 32 32 0 31 3 36 24 36 64 0 120
102 96 174 -14 44 -30 54 -139 86 -46 14 -89 33 -95 42 -15 25 4 72 32 76 18
3 22 -1 22 -26 0 -16 7 -35 15 -42 16 -14 18 -12 32 49 l9 34 38 -33 37 -33
21 20 c40 41 -6 103 -77 103 -24 0 -26 3 -20 30 6 29 5 30 -29 30 -33 0 -36
-2 -36 -30z m88 -316 c15 -10 22 -25 22 -49 0 -31 -27 -65 -52 -65 -5 0 -8 29
-8 65 0 36 3 65 8 65 4 0 18 -7 30 -16z"/>
<path d="M3536 4745 c-38 -8 -92 -26 -120 -40 -51 -25 -149 -105 -130 -105 6
0 14 3 18 8 4 4 11 7 14 7 4 0 21 10 39 23 17 12 62 37 100 54 86 41 211 51
295 23 59 -19 149 -71 191 -110 15 -14 27 -22 27 -18 0 18 -100 98 -155 123
-54 25 -80 31 -180 45 -16 2 -61 -3 -99 -10z"/>
<path d="M10130 4701 c-5 -11 -10 -29 -10 -40 0 -27 74 -101 100 -101 17 0 20
7 20 46 0 39 -5 51 -34 80 -39 39 -61 43 -76 15z"/>
<path d="M9424 4450 c0 -107 2 -151 3 -97 2 53 2 141 0 195 -1 53 -3 9 -3 -98z"/>
<path d="M3615 4578 c-2 -7 -5 -24 -7 -38 -2 -19 -11 -26 -37 -31 -48 -10 -85
-50 -85 -92 0 -46 25 -81 73 -103 41 -20 51 -43 51 -122 0 -29 -3 -33 -22 -30
-16 2 -30 17 -43 45 -24 51 -39 50 -43 -4 -3 -34 1 -44 24 -62 15 -11 39 -21
54 -21 25 0 28 -3 28 -36 0 -34 15 -64 27 -52 3 3 9 25 13 49 6 38 11 44 34
47 14 2 38 14 53 28 25 23 27 30 23 80 -5 62 -32 99 -79 109 -27 6 -29 10 -29
55 0 53 16 73 35 47 15 -21 39 -22 54 -3 21 25 -14 66 -55 66 -31 0 -33 2 -36
37 -3 36 -24 57 -33 31z m-5 -162 c0 -25 -4 -47 -9 -50 -11 -7 -61 50 -61 69
0 15 15 23 48 24 20 1 22 -4 22 -43z m100 -165 c20 -39 9 -66 -33 -76 -26 -7
-27 -6 -27 37 0 25 3 48 7 51 13 14 43 7 53 -12z"/>
<path d="M0 4392 c0 -16 8 -44 17 -63 26 -50 29 -180 7 -260 -9 -35 -19 -82
-21 -104 l-4 -40 25 28 c14 15 35 59 47 98 40 131 12 325 -52 360 -17 8 -19 6
-19 -19z"/>
<path d="M3191 4297 c1 -37 6 -67 10 -67 7 0 0 121 -8 130 -2 2 -3 -26 -2 -63z"/>
<path d="M8451 4254 c0 -11 3 -14 6 -6 3 7 2 16 -1 19 -3 4 -6 -2 -5 -13z"/>
<path d="M3200 4207 c0 -7 11 -37 25 -65 14 -29 25 -56 25 -61 0 -26 129 -129
194 -156 52 -22 156 -35 211 -27 50 8 50 8 -35 14 -47 4 -109 14 -137 23 -59
18 -170 89 -187 120 -6 11 -14 22 -18 25 -4 3 -21 36 -38 73 -32 67 -40 78
-40 54z"/>
<path d="M7993 4180 c0 -25 2 -35 4 -22 2 12 2 32 0 45 -2 12 -4 2 -4 -23z"/>
<path d="M8450 4069 c0 -79 5 -151 10 -159 6 -10 8 38 3 140 -3 85 -7 157 -9
159 -2 2 -4 -61 -4 -140z"/>
<path d="M7986 4077 c3 -10 9 -15 12 -12 3 3 0 11 -7 18 -10 9 -11 8 -5 -6z"/>
<path d="M7974 3910 c0 -80 2 -112 3 -72 2 39 2 105 0 145 -1 39 -3 7 -3 -73z"/>
<path d="M8483 3975 c0 -33 2 -45 4 -27 2 18 2 45 0 60 -2 15 -4 0 -4 -33z"/>
<path d="M8441 3824 c0 -11 3 -14 6 -6 3 7 2 16 -1 19 -3 4 -6 -2 -5 -13z"/>
<path d="M1930 3476 c-30 -6 -64 -18 -75 -25 -18 -11 -18 -12 -1 -7 33 11 150
35 186 39 29 3 28 4 -10 5 -25 0 -70 -5 -100 -12z"/>
<path d="M7 3443 c-4 -3 -7 -59 -7 -123 l0 -116 35 -17 c19 -9 35 -21 35 -26
0 -6 -16 -23 -35 -38 -19 -15 -35 -36 -35 -46 0 -13 33 12 104 80 104 97 105
98 100 138 -14 107 -59 155 -145 155 -25 0 -49 -3 -52 -7z m106 -84 c24 -30
22 -82 -6 -115 -20 -23 -26 -25 -44 -14 -43 27 -65 97 -47 145 9 24 73 13 97
-16z"/>
<path d="M1794 3424 c-18 -14 -18 -14 6 -3 31 14 36 19 24 19 -6 0 -19 -7 -30
-16z"/>
<path d="M1309 3421 c-14 -4 -36 -14 -50 -22 -18 -11 -91 -15 -304 -19 -312
-6 -345 -12 -315 -60 8 -13 43 -14 235 -12 124 2 225 1 225 -3 0 -4 -14 -23
-31 -43 -102 -116 -137 -342 -75 -474 30 -63 97 -126 156 -148 60 -22 60 -22
-25 44 -44 34 -91 105 -106 159 -25 94 -3 285 40 345 66 94 205 184 308 201
106 17 171 -13 194 -89 16 -52 8 -292 -10 -314 -16 -20 -13 -25 19 -28 32 -4
47 27 61 128 21 152 -7 261 -80 310 -35 23 -53 27 -128 30 -49 2 -100 0 -114
-5z"/>
<path d="M2109 3370 c-25 -4 -61 -16 -79 -25 -38 -20 -120 -93 -120 -108 0 -6
49 -60 108 -121 60 -61 121 -130 137 -153 15 -24 33 -43 40 -43 31 0 107 124
146 239 11 30 18 77 18 105 -1 28 -3 43 -6 34 -3 -14 -10 -11 -34 17 -43 49
-123 70 -210 55z"/>
<path d="M7957 3299 c-29 -44 -97 -194 -103 -228 -6 -28 -4 -33 11 -30 10 2
22 20 29 39 11 35 12 35 73 38 l62 3 21 -41 c24 -46 45 -44 34 3 -8 41 -82
208 -99 226 -11 11 -16 9 -28 -10z m33 -89 c11 -21 20 -42 20 -45 0 -3 -18 -5
-40 -5 -29 0 -40 4 -40 15 0 17 27 75 35 75 3 0 14 -18 25 -40z"/>
<path d="M8209 3294 c-54 -30 -79 -68 -79 -121 0 -101 112 -169 189 -114 41
29 40 45 -1 37 -95 -20 -96 -20 -128 12 -40 40 -41 89 -2 132 29 34 45 37 110
26 35 -7 42 -5 42 9 0 14 -54 45 -77 45 -4 0 -29 -12 -54 -26z"/>
<path d="M8580 3260 l0 -60 -65 0 -65 0 0 55 c0 40 -4 55 -14 55 -22 0 -26
-24 -26 -152 0 -108 2 -119 18 -116 13 2 18 15 20 61 l3 57 49 0 c26 0 55 3
64 6 14 5 16 -4 16 -60 0 -59 2 -66 20 -66 19 0 20 7 20 140 0 133 -1 140 -20
140 -18 0 -20 -7 -20 -60z"/>
<path d="M9056 3311 c-3 -5 1 -12 10 -15 8 -3 28 -36 45 -73 55 -125 81 -173
94 -173 7 0 18 15 25 33 7 17 31 74 53 125 22 51 37 95 34 98 -12 12 -29 -10
-67 -87 -22 -43 -42 -79 -45 -79 -3 0 -18 26 -34 59 -48 94 -97 142 -115 112z"/>
<path d="M8700 3175 c0 -125 2 -136 18 -133 15 3 17 17 17 133 0 116 -2 130
-17 133 -16 3 -18 -8 -18 -133z"/>
<path d="M8816 3198 c-7 -143 -7 -146 5 -154 6 -3 55 -3 110 1 88 6 97 9 77
19 -13 7 -53 16 -88 19 -35 4 -65 9 -68 12 -2 2 -2 15 2 29 5 20 15 27 61 36
30 6 55 16 55 21 0 5 -24 9 -54 9 -47 0 -54 3 -60 23 -13 50 -9 55 52 62 74 9
94 14 87 26 -4 5 -44 9 -89 9 l-84 0 -6 -112z"/>
<path d="M9362 3178 l3 -133 65 -3 c71 -2 96 7 87 32 -5 12 -20 16 -62 16 -41
0 -55 4 -55 14 0 32 14 46 51 52 45 8 71 30 45 40 -9 3 -32 3 -51 0 l-35 -7 0
41 0 40 61 0 c52 0 60 2 57 18 -3 14 -16 17 -86 20 l-83 3 3 -133z"/>
<path d="M1501 3268 c-105 -18 -214 -119 -260 -242 -21 -56 -47 -228 -37 -244
3 -5 6 -46 7 -91 1 -70 4 -81 18 -79 14 3 17 26 22 158 3 86 8 160 12 166 3 6
9 26 12 44 3 18 15 45 26 59 l21 26 -7 -27 c-5 -21 -2 -29 14 -38 18 -9 21 -8
21 7 0 15 2 16 10 3 8 -12 10 -12 10 -1 0 10 8 12 29 8 34 -7 94 8 115 28 11
11 16 12 20 2 4 -6 4 -1 2 12 -3 13 2 30 10 38 9 10 14 36 13 81 -1 94 -4 100
-58 90z"/>
<path d="M2920 3271 c-73 -23 -132 -75 -172 -151 l-23 -45 -3 -928 c-2 -629 1
-940 8 -967 18 -68 67 -121 150 -163 l74 -38 651 3 650 3 53 28 c30 16 73 47
96 71 80 79 77 42 74 1082 l-3 911 -35 68 c-24 47 -48 77 -78 99 l-44 31 -686
2 c-378 1 -698 -2 -712 -6z m1401 -50 c52 -35 107 -115 114 -164 3 -23 5 -447
3 -942 l-3 -900 -27 -52 c-29 -54 -65 -86 -135 -122 -42 -21 -51 -21 -681 -21
-702 0 -675 -2 -747 62 -20 17 -46 50 -58 72 l-22 41 0 940 c0 1074 -6 1002
84 1064 27 18 65 37 83 41 18 5 330 8 694 7 l660 -2 35 -24z"/>
<path d="M3029 3023 c-14 -2 -41 -20 -59 -38 -33 -35 -34 -35 -38 -149 -6
-148 2 -197 36 -231 l26 -26 471 1 c582 2 761 8 781 27 11 11 14 51 14 185 l0
170 -34 34 -34 34 -569 -1 c-312 -1 -580 -4 -594 -6z m1176 -50 c4 -10 10 -87
13 -171 3 -112 1 -156 -8 -167 -11 -13 -91 -15 -610 -15 l-598 0 -11 31 c-6
18 -11 92 -11 165 0 131 0 133 26 153 26 21 35 21 609 21 546 0 583 -1 590
-17z"/>
<path d="M2998 2273 c-11 -3 -19 -19 -24 -50 -9 -60 1 -190 16 -209 18 -20
232 -20 253 0 17 18 31 205 17 241 -9 25 -11 25 -127 24 -65 -1 -126 -3 -135
-6z m224 -65 c1 -29 1 -78 -2 -108 l-5 -55 -100 0 -100 0 -3 40 c-2 22 -1 68
3 102 7 71 4 69 127 72 l76 1 4 -52z"/>
<path d="M3952 2273 c-34 -7 -45 -46 -39 -146 6 -116 17 -128 104 -125 35 2
63 6 63 11 0 4 -10 7 -22 7 -19 0 -20 2 -8 10 11 7 0 10 -36 10 -63 0 -64 2
-64 120 l0 89 53 6 c28 4 77 5 107 3 l55 -3 3 -100 c2 -90 0 -103 -18 -123
l-21 -22 31 0 c41 0 50 26 50 141 0 131 1 129 -128 128 -59 -1 -117 -4 -130
-6z m-15 -215 c-2 -13 -4 -3 -4 22 0 25 2 35 4 23 2 -13 2 -33 0 -45z"/>
<path d="M3453 2263 c-19 -7 -18 -223 0 -247 12 -17 26 -18 131 -14 150 6 150
5 154 137 5 125 0 131 -104 131 -81 0 -95 -15 -18 -19 81 -4 84 -8 84 -117 l0
-95 -107 3 -108 3 -7 55 c-10 71 -1 150 17 150 8 0 16 4 19 8 5 9 -42 13 -61
5z m274 -160 c-2 -16 -4 -5 -4 22 0 28 2 40 4 28 2 -13 2 -35 0 -50z m-119
-80 c-10 -2 -26 -2 -35 0 -10 3 -2 5 17 5 19 0 27 -2 18 -5z"/>
<path d="M3939 1894 c-12 -4 -17 -24 -22 -90 -7 -99 -1 -144 21 -161 18 -15
229 -18 251 -4 19 12 28 210 9 233 -10 13 -37 17 -128 22 -63 2 -122 3 -131 0z
m229 -131 l3 -103 -38 -2 c-94 -3 -158 4 -170 20 -14 17 -18 173 -6 186 4 4
52 5 107 4 l101 -3 3 -102z"/>
<path d="M2978 1823 c-3 -102 2 -166 14 -181 15 -18 241 -13 259 5 19 19 26
223 8 234 -8 5 -74 9 -146 9 l-133 0 -2 -67z m247 5 c3 -18 5 -62 3 -98 l-3
-65 -100 0 -100 0 -7 55 c-4 30 -5 74 -2 98 l6 42 99 0 98 0 6 -32z m-228 -40
c-2 -13 -4 -3 -4 22 0 25 2 35 4 23 2 -13 2 -33 0 -45z"/>
<path d="M3458 1879 c-15 -8 -18 -25 -18 -104 0 -51 5 -106 10 -121 l11 -27
119 5 c75 3 125 10 135 18 12 10 15 36 15 120 0 103 -1 108 -22 114 -38 10
-232 6 -250 -5z m236 -35 c10 -27 7 -162 -5 -169 -13 -8 -171 -7 -193 1 -13 5
-16 22 -16 89 0 57 4 85 13 88 6 3 53 6 103 6 75 1 93 -2 98 -15z"/>
<path d="M3205 1501 c-6 -5 -28 -11 -50 -14 -37 -3 -36 -4 11 -5 45 -2 53 -5
58 -25 9 -36 10 -153 1 -167 -9 -15 -190 -9 -207 8 -6 6 -9 48 -6 106 3 92 2
97 -17 94 -19 -3 -20 -11 -20 -111 0 -142 5 -147 144 -147 140 0 141 1 141
146 0 63 -4 114 -9 114 -5 0 -15 2 -23 5 -7 3 -18 1 -23 -4z"/>
<path d="M3635 1500 l-50 -7 46 -1 c26 -1 51 -8 57 -14 13 -18 25 -138 16
-173 l-7 -28 -101 7 c-60 4 -104 12 -108 19 -11 18 -10 165 2 172 16 10 11 25
-9 25 -35 0 -44 -25 -39 -114 3 -56 10 -93 21 -110 17 -25 20 -26 127 -26 135
0 139 3 141 103 1 40 2 85 3 100 2 26 -26 61 -44 55 -3 0 -27 -4 -55 -8z"/>
<path d="M3933 1502 c-18 -11 -28 -158 -14 -208 11 -40 12 -41 64 -48 28 -3
84 -6 123 -6 98 0 104 8 110 143 5 101 5 106 -16 117 -23 13 -52 -1 -31 -14
18 -11 14 -191 -4 -206 -8 -6 -52 -13 -97 -15 -70 -3 -75 -2 -33 5 l50 8 -61
-2 c-71 -1 -66 -10 -68 132 -1 56 -3 102 -6 102 -3 0 -10 -4 -17 -8z"/>
<path d="M5333 3030 c-188 -3 -345 -8 -349 -12 -4 -5 433 -8 972 -8 957 0
1128 -5 1163 -32 14 -12 15 -11 2 4 -19 25 -68 36 -191 43 -134 9 -1149 12
-1597 5z"/>
<path d="M4972 2908 c-14 -18 -27 -1685 -13 -1701 8 -10 236 -12 1040 -12 567
0 1034 4 1038 8 4 5 1 12 -7 17 -15 9 -197 11 -1380 10 l-544 0 66 67 c36 38
125 131 199 208 73 77 178 184 233 238 114 113 112 113 186 25 58 -68 76 -65
138 20 27 38 91 106 142 153 51 46 154 142 229 213 75 71 170 159 211 195 41
37 109 100 150 139 55 53 80 71 95 68 11 -3 40 -10 64 -16 81 -20 157 31 182
122 40 149 -147 264 -257 157 -46 -45 -59 -88 -44 -147 l12 -47 -114 -109
c-62 -59 -171 -159 -243 -221 -71 -62 -215 -199 -318 -304 l-189 -192 -69 66
c-38 36 -75 65 -82 65 -15 0 -148 -135 -272 -275 -149 -169 -396 -414 -411
-408 -12 4 -14 136 -14 839 0 472 -4 834 -9 834 -5 0 -13 -6 -19 -12z m1945
-130 c41 -39 22 -148 -32 -184 -20 -13 -27 -13 -64 2 -111 44 -87 204 30 204
30 0 50 -6 66 -22z"/>
<path d="M7766 2818 c-3 -50 -6 -117 -6 -150 0 -56 1 -58 26 -58 26 0 26 0 20
60 l-6 59 62 3 c57 3 63 5 66 26 4 24 -1 25 -75 22 l-43 -2 0 41 c0 41 0 41
39 41 67 0 101 11 101 31 0 17 -9 19 -89 19 l-88 0 -7 -92z"/>
<path d="M8006 2902 c-3 -3 -6 -72 -6 -154 0 -136 2 -149 17 -146 23 4 32 55
32 189 1 97 -1 107 -18 112 -11 3 -22 2 -25 -1z"/>
<path d="M8308 2804 l-3 -107 -68 90 c-77 104 -91 117 -112 109 -12 -4 -15
-30 -15 -146 0 -133 1 -140 20 -140 19 0 20 7 20 98 l1 97 49 -55 c28 -30 65
-74 82 -97 18 -23 41 -43 51 -43 15 0 17 14 17 150 0 142 -1 150 -20 150 -18
0 -20 -8 -22 -106z"/>
<path d="M8496 2843 c-58 -118 -98 -214 -92 -228 9 -24 45 -4 56 31 11 34 12
34 71 34 59 0 60 -1 75 -35 11 -27 20 -35 39 -35 l25 0 -26 73 c-27 73 -100
227 -109 227 -3 0 -20 -30 -39 -67z m59 -75 c8 -28 13 -53 11 -55 -1 -2 -19 0
-38 4 l-36 8 16 48 c8 26 19 47 23 47 5 0 15 -23 24 -52z"/>
<path d="M8736 2903 c-3 -3 -6 -71 -6 -150 0 -142 0 -143 23 -143 23 0 23 1
19 98 l-3 97 96 -99 c56 -59 99 -95 105 -90 4 5 12 71 16 147 l7 137 -27 0
-26 0 0 -97 -1 -98 -20 25 c-55 68 -142 161 -158 170 -10 5 -21 6 -25 3z"/>
<path d="M9100 2862 c-46 -45 -50 -52 -50 -96 0 -111 100 -188 187 -143 72 38
62 66 -17 46 -42 -11 -52 -10 -74 4 -36 24 -59 72 -51 107 7 32 66 90 91 90 9
0 28 -7 44 -16 32 -19 63 -13 54 11 -9 23 -57 45 -99 45 -28 0 -44 -9 -85 -48z"/>
<path d="M9513 2793 c-30 -64 -58 -133 -60 -154 -5 -35 -4 -37 16 -32 14 4 24
16 28 35 7 34 9 35 87 41 l59 4 16 -38 c10 -24 23 -39 34 -39 9 0 17 4 17 10
0 11 -84 220 -106 261 -8 16 -19 29 -25 29 -6 0 -35 -53 -66 -117z m81 5 c32
-78 32 -78 -18 -78 -25 0 -46 3 -46 6 0 10 42 104 47 104 2 0 10 -15 17 -32z"/>
<path d="M9770 2833 c0 -43 -3 -108 -7 -145 l-6 -68 102 0 c92 0 101 2 101 19
0 21 -34 31 -104 31 l-42 0 4 120 4 120 -26 0 c-26 0 -26 -1 -26 -77z"/>
<path d="M9350 2755 c0 -135 1 -145 19 -145 15 0 19 11 25 61 3 34 6 100 6
145 0 83 0 84 -25 84 l-25 0 0 -145z"/>
<path d="M2240 2811 c0 -6 4 -13 10 -16 6 -3 7 1 4 9 -7 18 -14 21 -14 7z"/>
<path d="M2083 2753 c-19 -7 -16 -60 3 -67 56 -22 102 16 64 54 -19 19 -42 24
-67 13z"/>
<path d="M2280 2698 c5 -18 9 -52 8 -74 l-2 -42 -146 -4 c-119 -3 -153 -8
-190 -24 -58 -27 -114 -90 -154 -173 -26 -56 -32 -80 -34 -157 -6 -155 22
-232 128 -349 53 -58 60 -71 34 -61 -9 3 -12 2 -9 -5 4 -6 -2 -13 -12 -15 -21
-6 -28 -41 -11 -61 6 -8 7 -17 3 -21 -4 -4 -10 -1 -12 6 -6 17 -23 15 -23 -3
0 -8 5 -15 10 -15 6 0 10 -5 10 -11 0 -6 -8 -9 -17 -7 -15 3 -61 -30 -51 -36
1 -1 15 -8 30 -16 29 -14 29 -24 0 -26 -53 -3 -53 -3 -42 -24 13 -24 9 -26
-67 -34 -35 -3 -53 -1 -56 7 -2 7 -14 0 -30 -17 -15 -16 -27 -24 -27 -17 0 6
-4 11 -10 11 -5 0 -10 -7 -10 -16 0 -14 -3 -14 -15 -4 -13 10 -19 10 -34 -4
-15 -13 -20 -14 -24 -4 -3 7 -6 3 -6 -10 -1 -13 -12 -35 -25 -49 -21 -22 -27
-24 -40 -14 -14 12 -16 10 -16 -11 0 -13 -10 -35 -22 -48 -45 -48 -60 -91 -58
-165 1 -60 3 -96 9 -128 2 -13 64 -46 74 -40 6 3 7 1 4 -4 -4 -7 -55 -11 -123
-12 -101 -2 -118 1 -130 16 -7 10 -13 14 -14 8 0 -5 10 -22 23 -38 27 -33 83
-43 181 -33 51 6 70 13 92 34 45 45 64 98 64 185 0 86 1 87 82 102 l34 6 38
-98 c44 -112 86 -184 121 -207 17 -11 49 -16 109 -16 77 0 87 2 116 26 53 45
60 70 59 211 0 131 -12 286 -22 313 -4 9 10 34 39 65 68 74 140 187 153 240 7
26 9 50 6 53 -3 3 -5 0 -5 -5 0 -7 -10 -9 -27 -4 -16 4 -42 4 -58 -1 -17 -4
-72 -4 -122 1 -132 12 -179 47 -241 179 -24 50 -27 69 -27 157 0 90 3 105 28
155 65 127 123 159 311 171 72 4 149 8 171 9 22 0 35 4 30 8 -6 4 -19 42 -29
84 -10 43 -21 80 -26 83 -5 3 -4 -9 0 -27z m-355 -927 c3 -5 1 -12 -5 -16 -5
-3 -10 1 -10 9 0 18 6 21 15 7z m-70 -241 c3 -5 1 -10 -4 -10 -6 0 -11 5 -11
10 0 6 2 10 4 10 3 0 8 -4 11 -10z m205 1 c0 -11 -100 -84 -186 -136 -61 -37
-95 -47 -56 -17 13 10 24 26 26 36 1 10 7 21 12 24 5 4 17 24 26 45 18 37 31
46 43 27 3 -5 12 -10 18 -10 7 0 6 4 -3 11 -12 8 -8 9 15 5 17 -2 37 -1 45 4
9 6 17 5 21 -2 4 -6 11 -4 20 6 17 18 19 19 19 7z m-233 -107 c-3 -3 -12 -4
-19 -1 -8 3 -5 6 6 6 11 1 17 -2 13 -5z m-7 -24 c0 -5 -5 -10 -11 -10 -5 0 -7
5 -4 10 3 6 8 10 11 10 2 0 4 -4 4 -10z"/>
<path d="M1998 1503 c7 -3 16 -2 19 1 4 3 -2 6 -13 5 -11 0 -14 -3 -6 -6z"/>
<path d="M1850 1426 c0 -2 7 -7 16 -10 8 -3 12 -2 9 4 -6 10 -25 14 -25 6z"/>
<path d="M1655 2696 c-38 -28 -13 -106 35 -106 20 0 70 51 70 71 0 41 -67 63
-105 35z"/>
<path d="M2396 2525 c10 -8 23 -15 28 -15 6 0 1 7 -10 15 -10 8 -23 15 -28 15
-6 0 -1 -7 10 -15z"/>
<path d="M2436 2501 c-4 -6 -2 -11 3 -11 6 0 11 -7 11 -15 0 -8 13 -36 29 -64
16 -27 32 -64 35 -81 2 -18 8 -35 12 -38 13 -13 -7 90 -26 131 -25 57 -55 93
-64 78z"/>
<path d="M7990 2366 c0 -40 -3 -101 -6 -135 l-7 -61 34 0 c59 0 106 19 138 56
25 28 31 43 31 82 0 28 -7 57 -16 71 -22 30 -89 61 -136 61 l-38 0 0 -74z m99
13 c37 -13 51 -35 51 -83 0 -41 -26 -63 -84 -73 l-36 -6 0 87 c0 95 2 98 69
75z"/>
<path d="M8433 2424 c-2 -5 -2 -64 -1 -129 3 -105 5 -120 21 -123 14 -3 17 4
17 45 l0 49 33 -4 c43 -5 101 34 105 70 5 40 -23 85 -60 97 -40 13 -109 10
-115 -5z m90 -33 c37 -14 45 -50 17 -73 -45 -36 -70 -19 -70 48 0 37 10 41 53
25z"/>
<path d="M8650 2308 l0 -128 70 0 c63 0 70 2 70 20 0 17 -7 20 -50 20 l-50 0
0 35 c0 35 0 35 45 35 38 0 45 3 45 20 0 17 -7 20 -45 20 -45 0 -45 0 -45 35
l0 35 55 0 c41 0 55 4 55 14 0 11 -18 15 -75 18 l-75 3 0 -127z"/>
<path d="M8845 2370 c-4 -38 -4 -97 0 -130 6 -49 10 -60 24 -58 13 3 16 16 14
83 l-2 80 79 -84 c43 -46 83 -82 90 -79 7 2 12 44 13 126 2 116 1 123 -17 120
-17 -3 -19 -11 -17 -83 l2 -80 -72 78 c-102 111 -105 112 -114 27z"/>
<path d="M9748 2432 c-15 -3 -18 -15 -18 -80 l-1 -77 -67 73 c-96 103 -102
100 -102 -49 0 -109 2 -120 18 -117 14 3 18 17 22 78 l5 75 83 -84 c46 -46 84
-82 87 -80 2 2 0 63 -3 134 -6 117 -9 130 -24 127z"/>
<path d="M9879 2413 c-39 -41 -69 -95 -69 -123 0 -39 35 -87 79 -110 50 -25
56 -25 92 1 55 39 27 67 -32 32 -28 -17 -29 -16 -55 8 -42 39 -47 56 -34 105
7 23 21 51 31 60 17 15 21 15 59 0 53 -21 70 -20 70 4 0 23 -23 37 -76 45 -34
6 -42 3 -65 -22z"/>
<path d="M10136 2429 c-28 -4 -54 -5 -59 -2 -11 7 -6 -232 6 -243 4 -4 31 -9
60 -12 41 -3 56 0 67 13 19 23 -1 35 -57 35 -41 0 -43 1 -43 30 0 28 3 30 50
36 32 4 50 11 50 20 0 10 -14 14 -50 14 -48 0 -50 1 -50 29 0 32 14 41 64 41
18 0 41 7 52 15 16 13 17 16 4 25 -17 11 -25 11 -94 -1z"/>
<path d="M7607 2343 c-4 -49 -5 -97 -3 -108 3 -11 5 -30 5 -42 1 -16 7 -23 21
-23 19 0 20 7 20 130 0 120 -1 130 -19 130 -16 0 -19 -11 -24 -87z"/>
<path d="M7706 2353 c-3 -42 -6 -100 -6 -130 0 -46 2 -53 20 -53 18 0 20 7 20
80 0 44 4 80 8 80 10 0 68 -62 111 -117 18 -24 41 -43 52 -43 18 0 19 9 19
130 0 123 -1 130 -20 130 -19 0 -20 -7 -20 -92 -1 -84 -2 -91 -15 -73 -67 90
-133 165 -146 165 -13 0 -17 -16 -23 -77z"/>
<path d="M8236 2337 c0 -50 1 -107 2 -124 l2 -33 70 0 c63 0 70 2 70 20 0 17
-7 20 -49 20 -45 0 -49 2 -54 28 -3 15 -3 29 -1 31 2 2 26 6 54 9 40 4 50 8
48 21 -2 11 -16 17 -48 19 -46 3 -60 14 -60 45 0 12 8 17 29 17 49 0 91 12 91
26 0 11 -18 14 -77 14 l-78 0 1 -93z"/>
<path d="M9120 2300 l0 -130 40 0 c90 0 160 59 160 134 0 76 -59 126 -150 126
l-50 0 0 -130z m127 65 c25 -17 32 -70 12 -107 -12 -22 -74 -52 -89 -43 -6 4
-10 45 -10 92 l0 86 32 -7 c18 -3 42 -13 55 -21z"/>
<path d="M9370 2305 l0 -126 72 3 c88 4 107 25 26 30 l-53 3 0 35 c0 34 1 35
44 40 65 7 66 30 2 30 -42 0 -51 3 -51 18 0 9 -3 27 -7 40 -5 23 -4 24 43 22
75 -3 84 -1 84 15 0 12 -16 15 -80 15 l-80 0 0 -125z"/>
<path d="M2380 2322 c-22 -18 -24 -27 -24 -109 -1 -111 13 -145 58 -141 37 4
44 23 45 133 1 117 -27 159 -79 117z"/>
<path d="M2169 2313 c-19 -22 -25 -174 -9 -214 15 -36 54 -49 78 -25 13 13 18
40 20 123 3 94 2 108 -14 120 -25 18 -59 16 -75 -4z"/>
<path d="M2495 2021 c-3 -11 -35 -47 -71 -80 -68 -64 -73 -77 -13 -37 44 30
118 136 95 136 -3 0 -7 -9 -11 -19z"/>
<path d="M2100 2014 c0 -6 7 -19 16 -30 14 -18 14 -18 3 6 -14 31 -19 36 -19
24z"/>
<path d="M2165 1910 c10 -11 20 -20 23 -20 3 0 -3 9 -13 20 -10 11 -20 20 -23
20 -3 0 3 -9 13 -20z"/>
<path d="M2325 1880 c-3 -5 1 -10 9 -10 9 0 16 5 16 10 0 6 -4 10 -9 10 -6 0
-13 -4 -16 -10z"/>
<path d="M10169 1809 c0 -2 -3 -49 -5 -104 -6 -115 -17 -156 -53 -203 -56 -72
22 -67 -1056 -68 -533 0 -1058 -4 -1165 -8 -108 -4 -213 -4 -234 0 -51 9 -122
80 -133 132 -4 20 -8 81 -8 135 0 75 -3 97 -14 97 -20 0 -11 -233 11 -276 26
-47 92 -102 135 -110 20 -4 206 -5 413 -2 206 3 399 4 428 1 l52 -6 0 -52 c0
-29 -3 -73 -6 -99 l-7 -46 -71 0 c-80 0 -111 -14 -171 -77 -40 -42 -80 -117
-70 -133 3 -6 19 -10 35 -10 23 0 33 8 53 43 31 52 95 117 116 117 9 1 177 2
373 3 l356 2 26 -24 c14 -13 38 -51 53 -83 25 -55 29 -59 57 -56 29 3 31 6 28
38 -3 43 -39 104 -87 150 -35 34 -38 35 -111 32 l-74 -2 0 102 0 103 468 0
c365 0 477 3 514 14 66 19 123 70 142 129 16 48 26 246 13 258 -4 4 -7 5 -8 3z
m-1185 -461 c3 -29 6 -79 6 -110 l0 -58 -204 0 c-113 0 -206 3 -208 8 -2 4 -2
51 0 104 5 115 -19 104 228 107 l171 1 7 -52z"/>
<path d="M9693 1783 c9 -2 25 -2 35 0 9 3 1 5 -18 5 -19 0 -27 -2 -17 -5z"/>
<path d="M521 1466 c-6 -7 -13 -27 -15 -43 -2 -17 -13 -41 -24 -53 -22 -23
-21 -46 1 -34 9 5 9 4 0 -6 -12 -13 -23 -9 -196 84 -38 20 -72 36 -77 36 -10
0 -1 -70 11 -86 4 -5 5 -21 2 -34 -3 -13 -2 -21 3 -18 5 3 10 -13 11 -36 2
-22 9 -88 17 -146 8 -58 12 -107 10 -109 -2 -2 -35 -4 -74 -5 -69 -1 -73 0
-101 32 -16 18 -29 26 -29 19 0 -8 15 -31 34 -53 l34 -39 107 0 107 0 40 44
c21 25 64 94 94 155 31 61 61 109 68 107 44 -15 116 -28 116 -21 0 5 12 5 28
0 38 -13 200 -21 181 -9 -12 7 -12 9 1 9 13 0 13 1 0 10 -20 13 -43 13 -35 -1
4 -6 -3 -5 -14 3 -22 13 -22 13 -1 16 29 5 25 36 -7 58 -16 10 -34 24 -41 31
-7 7 -20 13 -28 13 -8 0 -20 11 -26 25 -9 19 -19 25 -45 25 -18 0 -33 4 -33 9
0 5 -23 14 -50 20 -62 13 -55 14 -69 -3z m-11 -116 c0 -5 -2 -10 -4 -10 -3 0
-8 5 -11 10 -3 6 -1 10 4 10 6 0 11 -4 11 -10z m300 -90 c18 -12 2 -12 -25 0
-13 6 -15 9 -5 9 8 0 22 -4 30 -9z"/>
<path d="M664 1223 c3 -16 11 -59 17 -96 9 -58 17 -75 49 -108 l37 -39 94 0
c90 0 97 2 136 30 49 36 69 75 78 152 l7 56 -103 1 c-57 0 -150 7 -206 15 -57
9 -106 16 -109 16 -3 0 -3 -12 0 -27z"/>
<path d="M7142 1200 c0 -14 2 -19 5 -12 2 6 2 18 0 25 -3 6 -5 1 -5 -13z"/>
<path d="M7008 1020 c-15 -4 -438 -11 -940 -15 -509 -4 -917 -11 -922 -16 -6
-5 367 -9 900 -9 876 0 911 1 952 20 23 10 42 21 42 25 0 3 -1 5 -2 4 -2 0
-15 -4 -30 -9z"/>
</g>
</svg>
