<?xml version="1.0" standalone="no"?>
<!DOCTYPE svg PUBLIC "-//W3C//DTD SVG 20010904//EN"
 "http://www.w3.org/TR/2001/REC-SVG-20010904/DTD/svg10.dtd">
<svg version="1.0" xmlns="http://www.w3.org/2000/svg"
 width="1024.000000pt" height="1024.000000pt" viewBox="0 0 1024.000000 1024.000000"
 preserveAspectRatio="xMidYMid meet">

<g transform="translate(0.000000,1024.000000) scale(0.100000,-0.100000)"
fill="#000000" stroke="none">
<path d="M9220 8960 c0 -90 2 -161 4 -159 8 7 11 308 3 315 -4 4 -7 -66 -7
-156z"/>
<path d="M8840 8826 c0 -2 9 -6 20 -9 11 -3 20 -1 20 4 0 5 -9 9 -20 9 -11 0
-20 -2 -20 -4z"/>
<path d="M9231 8704 c0 -11 3 -14 6 -6 3 7 2 16 -1 19 -3 4 -6 -2 -5 -13z"/>
<path d="M8884 8430 c0 -102 2 -143 3 -92 2 50 2 134 0 185 -1 50 -3 9 -3 -93z"/>
<path d="M2050 8484 c-17 -20 -2 -67 23 -72 12 -3 17 3 16 20 -1 17 -3 18 -6
6 -7 -29 -23 -20 -23 12 0 21 5 30 16 30 8 0 12 5 9 10 -9 14 -21 12 -35 -6z"/>
<path d="M2126 8465 c2 -19 -1 -35 -6 -35 -6 0 -10 -4 -10 -10 0 -5 7 -7 15
-4 16 6 22 84 7 84 -5 0 -7 -16 -6 -35z"/>
<path d="M2170 8474 c-13 -33 -13 -54 0 -54 6 0 10 10 10 23 0 33 14 49 35 41
13 -5 16 -4 11 4 -13 21 -46 13 -56 -14z"/>
<path d="M5048 8489 c-26 -15 -22 -27 7 -21 21 4 27 -1 41 -34 9 -21 18 -53
21 -71 5 -29 3 -33 -13 -26 -11 4 -13 8 -6 11 7 2 12 10 12 19 0 12 -2 13 -14
0 -20 -20 -14 -50 12 -53 26 -4 52 30 52 67 0 51 -21 90 -56 105 -39 16 -34
16 -56 3z"/>
<path d="M1907 8463 c-7 -37 1 -53 27 -52 16 1 17 2 4 6 -19 5 -26 63 -8 63 6
0 10 -11 10 -25 0 -14 5 -25 11 -25 7 0 9 10 5 25 -5 18 -2 25 9 25 18 0 21
-50 3 -68 -8 -8 -8 -12 -1 -12 17 0 32 24 28 45 -2 11 -4 26 -4 33 -1 7 -16
12 -40 12 -34 0 -39 -3 -44 -27z"/>
<path d="M2101 8474 c0 -11 3 -14 6 -6 3 7 2 16 -1 19 -3 4 -6 -2 -5 -13z"/>
<path d="M2247 8463 c-3 -15 -1 -32 4 -38 7 -7 10 -7 9 0 -6 27 1 55 13 55 15
0 16 -27 3 -48 -7 -11 -4 -11 13 0 30 18 24 52 -10 56 -22 3 -27 -2 -32 -25z"/>
<path d="M2320 8455 c0 -19 4 -35 8 -35 5 0 7 14 4 30 -5 32 13 42 21 13 4
-17 5 -17 6 0 2 27 21 20 21 -9 0 -14 4 -23 9 -20 4 3 6 17 3 31 -4 21 -10 25
-38 25 -32 0 -34 -2 -34 -35z"/>
<path d="M3621 8487 c2 -1 15 -11 29 -22 l25 -20 -19 23 c-11 12 -24 22 -29
22 -6 0 -8 -1 -6 -3z"/>
<path d="M5470 8469 c-7 -11 -13 -46 -16 -77 l-3 -57 13 68 c7 38 19 73 27 78
9 6 10 9 2 9 -7 0 -17 -9 -23 -21z"/>
<path d="M5819 8473 c-13 -16 -12 -17 4 -4 9 7 17 15 17 17 0 8 -8 3 -21 -13z"/>
<path d="M5520 8476 c0 -2 7 -9 15 -16 13 -11 14 -10 9 4 -5 14 -24 23 -24 12z"/>
<path d="M2210 8468 c-2 -5 -3 -11 -4 -15 -1 -5 -5 -14 -9 -20 -5 -8 -4 -13 3
-13 13 0 24 25 17 42 -3 7 -6 10 -7 6z"/>
<path d="M4416 8409 c2 -29 7 -56 12 -61 10 -10 2 95 -8 106 -5 5 -7 -15 -4
-45z"/>
<path d="M6924 8428 l-19 -23 25 20 c14 11 27 21 29 22 2 2 0 3 -6 3 -5 0 -18
-10 -29 -22z"/>
<path d="M5555 8415 c10 -60 18 -273 11 -309 -4 -20 -16 -46 -27 -57 -20 -20
-21 -20 -40 -3 -17 15 -19 15 -14 2 11 -27 33 -28 62 -3 l28 23 -1 164 c-1 99
-6 173 -13 188 -11 25 -11 25 -6 -5z"/>
<path d="M7046 8405 c4 -8 11 -15 16 -15 6 0 5 6 -2 15 -7 8 -14 15 -16 15 -2
0 -1 -7 2 -15z"/>
<path d="M5802 8390 c0 -14 2 -19 5 -12 2 6 2 18 0 25 -3 6 -5 1 -5 -13z"/>
<path d="M4140 8386 c0 -2 7 -7 16 -10 8 -3 12 -2 9 4 -6 10 -25 14 -25 6z"/>
<path d="M4960 8372 c0 -15 49 -44 62 -36 7 4 8 3 4 -4 -4 -7 -3 -12 3 -12 7
0 7 -8 1 -26 -6 -14 -10 -46 -9 -72 1 -36 3 -41 8 -22 6 21 14 26 47 28 54 4
83 -27 94 -100 l8 -53 1 43 c2 76 -35 122 -98 122 -24 0 -31 4 -31 20 0 12 10
24 23 30 21 8 21 9 -6 9 -24 1 -26 3 -17 20 9 17 5 21 -28 32 -20 6 -43 16
-49 22 -9 6 -13 6 -13 -1z"/>
<path d="M6010 8242 c-40 -75 -89 -159 -107 -187 l-34 -50 35 40 c19 22 47 53
61 68 31 35 65 100 65 124 0 10 14 45 30 77 17 32 29 60 27 62 -2 2 -36 -58
-77 -134z"/>
<path d="M7070 8375 c0 -5 5 -17 10 -25 5 -8 10 -10 10 -5 0 6 -5 17 -10 25
-5 8 -10 11 -10 5z"/>
<path d="M4000 8355 c-19 -23 -8 -26 20 -5 19 15 21 20 9 20 -9 0 -22 -7 -29
-15z"/>
<path d="M5962 8354 c-1 -12 -9 -38 -18 -59 -8 -20 -13 -40 -10 -42 3 -3 1
-15 -5 -27 -9 -19 -8 -20 3 -2 78 118 96 148 69 116 l-29 -35 -5 35 c-2 19 -5
25 -5 14z"/>
<path d="M9235 8358 c-3 -7 -4 -1672 -3 -3701 l3 -3687 -1785 0 c-982 -1
-2524 -1 -3427 -1 -999 0 -1643 -4 -1643 -10 0 -5 7 -9 15 -9 33 0 115 -22
110 -30 -3 -5 3 -11 12 -14 31 -9 77 -18 101 -20 12 0 22 -6 22 -13 0 -7 6
-10 13 -7 8 3 19 -2 26 -10 7 -8 19 -12 27 -9 8 3 14 1 14 -5 0 -5 15 -13 33
-16 17 -3 45 -17 61 -31 16 -14 36 -25 44 -25 8 0 35 -15 61 -34 25 -18 53
-34 61 -34 40 -2 68 -10 93 -27 17 -10 37 -15 54 -12 24 4 59 -7 73 -24 6 -7
95 -21 154 -24 21 -1 41 -7 45 -13 4 -6 15 -11 26 -10 36 1 309 -22 380 -33
39 -5 100 -9 136 -8 45 1 73 -3 88 -13 16 -11 39 -14 95 -10 48 3 76 1 80 -7
5 -8 15 -7 36 4 22 11 30 12 38 2 12 -14 420 -17 490 -3 30 6 50 5 66 -3 32
-17 278 -11 284 7 6 18 82 16 82 -3 0 -12 20 -15 120 -15 93 0 120 3 120 13 0
11 42 14 198 16 401 6 793 2 722 -8 -43 -6 -42 -7 34 -15 59 -6 81 -5 86 4 7
11 287 25 607 29 33 1 41 4 37 16 -5 13 7 15 82 13 78 -1 83 -2 39 -8 l-50 -7
50 -3 c28 -2 73 -5 100 -7 65 -6 165 -7 474 -5 140 1 257 -2 260 -7 6 -8 134
3 151 14 4 3 10 -1 12 -7 4 -10 56 -13 225 -11 186 2 222 0 227 -12 4 -13 43
-15 230 -15 195 0 226 2 234 16 7 13 30 16 145 15 101 -1 139 3 149 13 16 15
65 27 130 30 26 1 50 5 54 9 4 4 29 7 55 7 27 0 82 7 123 16 58 13 76 21 80
37 3 12 10 17 19 14 16 -6 47 22 47 41 0 7 7 12 15 12 8 0 15 6 15 14 0 8 7
17 16 20 10 4 14 12 10 22 -3 9 3 28 13 43 19 27 33 94 35 175 1 23 3 73 4
113 1 44 7 77 15 85 9 9 12 30 10 63 -3 28 -5 99 -4 160 0 71 -3 104 -9 95 -6
-10 -10 51 -10 165 0 99 -5 265 -10 370 -5 104 -5 192 -1 195 5 3 9 62 10 132
1 71 6 140 12 154 11 30 3 46 -12 24 -9 -12 -10 -12 -5 3 3 10 6 28 6 38 0 11
4 18 8 15 4 -2 6 41 5 97 -2 56 -2 109 -2 117 1 8 3 125 4 260 2 135 6 279 10
320 9 110 11 434 3 441 -5 3 -11 40 -14 82 l-7 77 27 0 c24 0 26 3 26 40 0 30
-4 40 -16 40 -13 0 -15 7 -10 33 3 17 11 70 18 117 6 47 14 87 18 90 10 7 7
273 -3 288 -5 7 -4 19 3 27 9 10 11 53 9 142 -6 198 0 361 11 343 6 -10 10 38
10 145 0 88 5 180 11 205 5 24 7 46 2 47 -4 2 -7 46 -5 98 3 73 0 96 -10 100
-9 4 -15 26 -16 68 -1 39 1 57 7 48 5 -9 11 40 16 130 8 164 5 205 -12 201
-16 -3 -17 24 -3 33 6 4 10 14 8 23 -1 10 1 30 6 46 5 20 3 32 -6 38 -9 5 -10
10 -2 16 6 4 10 18 10 32 0 65 5 100 17 111 7 7 11 26 9 46 -3 25 0 33 12 33
18 0 22 16 5 22 -9 3 -8 14 2 41 10 28 10 40 2 48 -9 9 -8 21 3 48 10 23 11
37 4 39 -5 2 -10 15 -10 28 0 14 4 22 10 19 6 -3 10 -1 10 4 0 6 -6 11 -14 11
-14 0 -26 79 -26 181 0 46 -3 59 -15 59 -17 0 -19 37 -8 105 5 31 8 35 13 20
7 -18 9 -17 15 8 5 19 3 33 -8 45 -16 18 -17 125 -2 190 4 18 4 32 -2 32 -5 0
-9 38 -11 84 -1 81 -3 87 -41 143 -22 32 -43 70 -46 86 -4 15 -12 27 -18 27
-12 0 -77 68 -77 81 0 11 -49 59 -60 59 -5 0 -12 11 -16 24 -3 13 -16 29 -30
36 -13 8 -24 17 -24 21 0 5 -6 6 -14 3 -9 -3 -20 3 -28 15 -7 12 -18 21 -24
21 -6 0 -23 14 -37 30 -15 17 -34 30 -42 30 -15 0 -101 55 -111 71 -3 6 -16
14 -27 20 -25 10 -51 26 -86 52 -13 9 -34 17 -47 17 -14 0 -24 6 -24 14 0 9
-7 12 -19 9 -13 -3 -24 2 -33 16 -7 12 -21 21 -32 21 -11 0 -27 7 -37 16 -9 8
-23 16 -31 18 -7 1 -19 5 -26 9 -7 5 -14 3 -17 -5z m922 -2500 c-3 -8 -6 -5
-6 6 -1 11 2 17 5 13 3 -3 4 -12 1 -19z m-404 -5245 c-7 -2 -21 -2 -30 0 -10
3 -4 5 12 5 17 0 24 -2 18 -5z m-970 -90 c-13 -2 -33 -2 -45 0 -13 2 -3 4 22
4 25 0 35 -2 23 -4z"/>
<path d="M4720 8326 c5 -14 7 -34 4 -43 -3 -10 4 -3 16 15 25 36 25 37 -8 46
-20 7 -21 5 -12 -18z"/>
<path d="M4611 8323 c0 -10 7 -34 15 -53 13 -31 13 -32 7 -5 -3 17 -7 40 -7
53 -1 12 -4 22 -8 22 -5 0 -8 -8 -7 -17z"/>
<path d="M4790 8308 c-11 -18 -20 -37 -19 -43 0 -5 7 4 16 22 9 17 25 36 37
41 18 9 18 11 3 11 -9 1 -26 -14 -37 -31z"/>
<path d="M1906 8322 c-2 -4 -1 -14 5 -22 7 -12 9 -10 9 8 0 23 -5 28 -14 14z"/>
<path d="M1930 8310 c0 -11 5 -20 10 -20 6 0 10 9 10 20 0 11 -4 20 -10 20 -5
0 -10 -9 -10 -20z"/>
<path d="M1967 8323 c-12 -11 -8 -30 7 -30 8 0 11 8 8 19 -5 20 -6 21 -15 11z"/>
<path d="M4423 8290 c0 -25 2 -35 4 -22 2 12 2 32 0 45 -2 12 -4 2 -4 -23z"/>
<path d="M5216 8299 c-30 -22 -34 -29 -20 -30 10 0 27 -2 36 -4 10 -2 15 2 12
9 -3 7 2 19 11 26 16 13 20 30 8 29 -5 0 -26 -14 -47 -30z"/>
<path d="M8080 8316 c0 -9 -7 -31 -17 -49 -14 -28 -14 -31 0 -19 17 14 33 69
23 79 -3 4 -6 -1 -6 -11z"/>
<path d="M2000 8309 c0 -5 4 -8 9 -4 5 3 12 -3 14 -12 4 -14 5 -13 6 5 1 13
-5 22 -14 22 -8 0 -15 -5 -15 -11z"/>
<path d="M2040 8306 c0 -7 9 -16 21 -19 16 -4 18 -3 9 8 -8 10 -7 14 2 18 7 3
3 6 -9 6 -13 1 -23 -5 -23 -13z"/>
<path d="M2120 8298 c0 -10 7 -18 15 -18 24 0 29 4 32 21 2 12 -4 16 -22 15
-17 -1 -25 -7 -25 -18z"/>
<path d="M2265 8307 c-4 -10 -5 -21 -1 -24 10 -10 18 4 13 24 -4 17 -4 17 -12
0z"/>
<path d="M7092 8290 c0 -19 2 -27 5 -17 2 9 2 25 0 35 -3 9 -5 1 -5 -18z"/>
<path d="M2176 8302 c-3 -5 1 -15 9 -22 16 -14 20 -3 6 19 -5 8 -11 9 -15 3z"/>
<path d="M2210 8301 c0 -5 7 -11 15 -15 9 -3 15 0 15 9 0 8 -7 15 -15 15 -8 0
-15 -4 -15 -9z"/>
<path d="M2290 8296 c0 -8 5 -18 10 -21 6 -3 10 3 10 14 0 12 -4 21 -10 21 -5
0 -10 -6 -10 -14z"/>
<path d="M2328 8303 c7 -3 16 -2 19 1 4 3 -2 6 -13 5 -11 0 -14 -3 -6 -6z"/>
<path d="M2396 8297 c6 -15 44 -17 44 -2 0 6 -11 12 -25 13 -16 1 -23 -3 -19
-11z"/>
<path d="M4012 8298 c-14 -18 0 -247 17 -273 12 -19 12 -18 6 5 -3 14 -8 80
-11 148 l-6 122 30 0 c17 0 34 -6 39 -12 4 -7 10 -67 14 -133 l6 -120 1 118
c1 66 -3 127 -8 138 -12 22 -71 27 -88 7z"/>
<path d="M2325 8280 c-3 -5 1 -10 9 -10 9 0 16 5 16 10 0 6 -4 10 -9 10 -6 0
-13 -4 -16 -10z"/>
<path d="M4706 8234 c-4 -14 -5 -28 -3 -31 3 -2 8 8 11 23 4 14 5 28 3 31 -3
2 -8 -8 -11 -23z"/>
<path d="M5713 8225 c0 -22 2 -30 4 -17 2 12 2 30 0 40 -3 9 -5 -1 -4 -23z"/>
<path d="M4756 8235 c-9 -26 -7 -32 5 -12 6 10 9 21 6 23 -2 3 -7 -2 -11 -11z"/>
<path d="M7174 8209 c-10 -12 -39 -32 -64 -44 -36 -19 -41 -25 -28 -30 13 -5
32 7 70 44 29 28 50 51 47 51 -3 0 -14 -9 -25 -21z"/>
<path d="M5303 8175 c11 -24 22 -43 25 -41 2 2 -1 13 -7 24 -6 12 -11 30 -11
41 0 12 -6 21 -14 21 -10 0 -9 -10 7 -45z"/>
<path d="M2515 8171 c0 -22 3 -27 12 -19 9 7 10 16 2 29 -13 25 -14 24 -14
-10z"/>
<path d="M6085 8189 c-4 -6 -5 -12 -2 -15 2 -3 7 2 10 11 7 17 1 20 -8 4z"/>
<path d="M1934 8179 c-3 -6 -1 -16 5 -22 8 -8 11 -5 11 11 0 24 -5 28 -16 11z"/>
<path d="M1962 8170 c0 -14 2 -19 5 -12 2 6 2 18 0 25 -3 6 -5 1 -5 -13z"/>
<path d="M1980 8180 c0 -5 5 -10 10 -10 6 0 10 5 10 10 0 6 -4 10 -10 10 -5 0
-10 -4 -10 -10z"/>
<path d="M2230 8179 c0 -5 5 -7 10 -4 6 3 10 8 10 11 0 2 -4 4 -10 4 -5 0 -10
-5 -10 -11z"/>
<path d="M2285 8179 c-4 -6 -4 -13 -1 -16 3 -4 6 -1 6 5 0 7 5 12 11 12 6 0 8
-9 4 -21 -5 -16 -4 -19 6 -14 9 6 11 4 6 -7 -4 -11 0 -15 11 -14 11 2 18 13
19 32 l2 29 -9 -30 c-6 -23 -8 -25 -10 -10 -2 11 -3 26 -3 33 1 15 -33 16 -42
1z"/>
<path d="M2372 8178 c-14 -14 -16 -58 -3 -58 6 0 13 5 17 12 5 7 3 8 -5 3 -9
-5 -12 0 -9 16 5 33 26 35 31 2 4 -27 4 -27 6 5 1 34 -15 42 -37 20z"/>
<path d="M2449 8158 c4 -28 6 -29 9 -9 2 13 0 27 -5 32 -6 6 -7 -3 -4 -23z"/>
<path d="M3892 8145 c-1 -27 -5 -61 -8 -75 -5 -19 -4 -22 5 -14 8 7 11 34 8
75 -3 58 -3 60 -5 14z"/>
<path d="M2016 8165 c-3 -8 -3 -15 0 -15 3 0 12 7 20 15 13 13 13 15 1 15 -8
0 -17 -7 -21 -15z"/>
<path d="M2130 8164 c0 -18 28 -25 34 -8 3 8 11 14 18 14 9 0 9 -3 0 -12 -14
-14 -16 -28 -3 -28 5 0 12 10 16 23 4 13 8 17 12 10 7 -19 23 -16 16 2 -7 19
-93 18 -93 -1z"/>
<path d="M2470 8161 c0 -25 6 -27 13 -6 4 8 2 17 -3 20 -6 4 -10 -3 -10 -14z"/>
<path d="M4664 8164 c3 -8 6 -18 6 -20 0 -3 5 -2 10 1 15 9 12 22 -6 29 -12 5
-15 2 -10 -10z"/>
<path d="M5452 8160 c0 -14 2 -19 5 -12 2 6 2 18 0 25 -3 6 -5 1 -5 -13z"/>
<path d="M2425 8157 c-4 -10 -5 -21 -1 -24 10 -10 18 4 13 24 -4 17 -4 17 -12
0z"/>
<path d="M2280 8135 c0 -8 4 -15 10 -15 5 0 7 7 4 15 -4 8 -8 15 -10 15 -2 0
-4 -7 -4 -15z"/>
<path d="M4716 8125 c-9 -26 -7 -32 5 -12 6 10 9 21 6 23 -2 3 -7 -2 -11 -11z"/>
<path d="M4956 8131 c-4 -5 3 -7 14 -4 23 6 26 13 6 13 -8 0 -17 -4 -20 -9z"/>
<path d="M5011 8109 c-1 -9 7 -23 17 -30 15 -12 16 -12 6 1 -6 8 -14 22 -17
30 -5 13 -6 12 -6 -1z"/>
<path d="M5640 8057 c-19 -22 -48 -46 -65 -53 -25 -11 -26 -13 -9 -14 25 0 65
30 95 71 31 44 19 42 -21 -4z"/>
<path d="M6876 8092 c-3 -5 17 -10 49 -11 31 0 71 -7 90 -15 42 -18 46 -12 7
8 -35 18 -138 31 -146 18z"/>
<path d="M5260 8063 c-12 -16 -38 -38 -58 -50 -38 -24 -37 -32 1 -12 29 15 66
49 78 72 14 26 3 21 -21 -10z"/>
<path d="M3774 8048 l-19 -23 23 19 c21 18 27 26 19 26 -2 0 -12 -10 -23 -22z"/>
<path d="M3445 8030 c10 -11 20 -20 23 -20 3 0 -3 9 -13 20 -10 11 -20 20 -23
20 -3 0 3 -9 13 -20z"/>
<path d="M8172 8020 c-7 -11 -12 -25 -12 -32 0 -7 7 0 15 16 18 33 15 45 -3
16z"/>
<path d="M4612 8010 c0 -14 2 -19 5 -12 2 6 2 18 0 25 -3 6 -5 1 -5 -13z"/>
<path d="M1901 7936 c0 -6 4 -20 9 -31 8 -19 9 -19 9 3 1 26 18 30 24 5 4 -14
5 -14 6 3 1 16 -6 23 -24 26 -15 3 -25 1 -24 -6z"/>
<path d="M1963 7937 c2 -7 13 -11 23 -10 10 1 22 -4 26 -10 5 -8 8 -5 9 8 l0
20 10 -20 9 -20 -3 20 c-2 16 -10 20 -40 22 -25 0 -37 -3 -34 -10z"/>
<path d="M2055 7940 c-3 -5 -3 -15 1 -22 5 -8 10 -6 15 8 6 18 8 17 16 -5 7
-18 12 -21 18 -11 5 8 1 18 -10 27 -22 16 -32 16 -40 3z"/>
<path d="M2124 7934 c3 -9 6 -21 6 -27 0 -16 20 14 20 31 0 6 -7 12 -16 12
-11 0 -14 -5 -10 -16z"/>
<path d="M2198 7921 c2 -17 8 -28 13 -26 4 3 6 14 4 25 -5 26 13 16 26 -14 8
-18 8 -17 6 9 -2 24 -7 31 -28 33 -23 3 -25 0 -21 -27z"/>
<path d="M2262 7925 c0 -16 2 -22 5 -12 2 9 2 23 0 30 -3 6 -5 -1 -5 -18z"/>
<path d="M2292 7920 c0 -19 2 -27 5 -17 2 9 2 25 0 35 -3 9 -5 1 -5 -18z"/>
<path d="M2322 7925 c0 -16 2 -22 5 -12 2 9 2 23 0 30 -3 6 -5 -1 -5 -18z"/>
<path d="M2352 7925 c0 -16 2 -22 5 -12 2 9 2 23 0 30 -3 6 -5 -1 -5 -18z"/>
<path d="M2378 7920 c2 -16 5 -30 7 -30 2 0 5 14 7 30 3 19 0 30 -7 30 -7 0
-10 -11 -7 -30z"/>
<path d="M2417 7943 c-9 -9 -9 -53 1 -53 4 0 8 14 9 30 2 31 1 34 -10 23z"/>
<path d="M2453 7943 c-16 -6 -17 -39 -1 -49 7 -4 8 -3 4 4 -4 7 -4 17 0 24 5
8 10 6 15 -8 7 -17 8 -17 8 -1 1 10 6 15 11 12 6 -3 10 -2 10 3 0 11 -30 20
-47 15z"/>
<path d="M8403 7900 c0 -30 2 -43 4 -27 2 15 2 39 0 55 -2 15 -4 2 -4 -28z"/>
<path d="M7260 7910 c0 -17 -7 -43 -16 -58 l-16 -27 21 25 c18 22 30 90 16 90
-3 0 -5 -14 -5 -30z"/>
<path d="M4592 7850 c-36 -43 -37 -55 -2 -17 20 21 44 57 38 57 -2 0 -18 -18
-36 -40z"/>
<path d="M8282 7870 c0 -14 2 -19 5 -12 2 6 2 18 0 25 -3 6 -5 1 -5 -13z"/>
<path d="M8151 7864 c0 -11 3 -14 6 -6 3 7 2 16 -1 19 -3 4 -6 -2 -5 -13z"/>
<path d="M7709 7773 c-13 -16 -12 -17 4 -4 9 7 17 15 17 17 0 8 -8 3 -21 -13z"/>
<path d="M4414 7595 c-11 -27 1 -37 19 -17 16 17 16 20 2 26 -9 3 -18 0 -21
-9z"/>
<path d="M4646 7595 c-11 -8 -18 -17 -15 -19 2 -2 15 4 28 15 27 22 15 26 -13
4z"/>
<path d="M5188 7556 c17 -20 32 -43 32 -51 0 -8 5 -15 10 -15 6 0 10 7 10 16
0 8 5 12 11 9 6 -4 5 2 -2 13 -7 12 -17 18 -21 16 -4 -3 -8 -1 -8 5 0 6 -15
18 -32 27 l-33 17 33 -37z"/>
<path d="M4206 7571 c-3 -3 4 -17 15 -30 15 -19 19 -20 19 -6 0 11 5 15 15 11
18 -7 20 10 3 20 -16 10 -48 13 -52 5z"/>
<path d="M5060 7570 c20 -13 33 -13 25 0 -3 6 -14 10 -23 10 -15 0 -15 -2 -2
-10z"/>
<path d="M3890 7554 c0 -14 3 -14 15 -4 8 7 15 14 15 16 0 2 -7 4 -15 4 -8 0
-15 -7 -15 -16z"/>
<path d="M4016 7544 c-3 -9 -5 -32 -5 -52 l2 -37 6 40 c4 22 10 46 14 53 5 6
4 12 -1 12 -6 0 -13 -7 -16 -16z"/>
<path d="M3360 7546 c0 -2 7 -7 16 -10 8 -3 12 -2 9 4 -6 10 -25 14 -25 6z"/>
<path d="M3862 7515 c-17 -37 -14 -45 4 -12 9 16 14 31 11 33 -2 2 -9 -7 -15
-21z"/>
<path d="M4289 7502 c5 -34 6 -35 9 -8 2 16 0 32 -5 37 -5 5 -7 -7 -4 -29z"/>
<path d="M4650 7519 c-6 -11 -9 -25 -6 -32 2 -7 5 -4 5 5 1 10 9 22 20 27 35
19 55 -19 62 -117 l6 -87 1 93 c1 51 -3 102 -8 113 -15 26 -66 26 -80 -2z"/>
<path d="M5382 7528 c-7 -7 -12 -19 -11 -27 0 -10 4 -6 10 8 8 19 14 22 37 16
15 -3 32 -11 37 -16 16 -16 12 -223 -4 -243 -12 -14 -12 -16 3 -10 23 9 28 40
24 154 -2 87 -6 104 -22 116 -24 17 -58 18 -74 2z"/>
<path d="M4413 7515 c-3 -9 -3 -18 -1 -21 3 -3 8 4 11 16 6 23 -1 27 -10 5z"/>
<path d="M5370 7410 c0 -40 3 -70 7 -67 7 7 5 129 -3 136 -2 2 -4 -29 -4 -69z"/>
<path d="M5596 7428 c-10 -89 -6 -121 19 -163 14 -22 25 -37 26 -32 1 4 2 13
3 20 1 7 13 11 31 9 17 -2 68 6 115 16 47 11 112 23 145 27 33 4 68 13 79 21
24 16 66 19 66 4 0 -7 6 -7 20 0 14 7 20 7 20 0 0 -5 9 -10 20 -10 11 0 20 -4
20 -10 0 -5 8 -10 18 -10 9 0 41 -14 70 -30 30 -16 49 -23 43 -16 -20 24 -206
114 -332 160 -142 52 -205 66 -294 66 l-62 0 -7 -52z m401 -104 c-3 -3 -12 -4
-19 -1 -8 3 -5 6 6 6 11 1 17 -2 13 -5z"/>
<path d="M3632 7420 c0 -14 2 -19 5 -12 2 6 2 18 0 25 -3 6 -5 1 -5 -13z"/>
<path d="M5047 7423 c-39 -3 -47 -7 -43 -19 3 -9 6 -19 6 -23 0 -14 41 -51 51
-46 12 8 12 25 -2 25 -5 0 -7 -5 -3 -12 5 -7 3 -8 -6 -3 -20 12 17 35 56 35
27 0 31 -3 29 -24 -2 -18 1 -23 12 -19 12 5 12 7 1 14 -10 6 -9 11 7 23 11 9
28 16 39 16 16 0 17 2 5 17 -8 10 -9 14 -2 10 6 -4 14 -3 18 3 6 10 -61 11
-168 3z m108 -33 c-3 -5 -12 -7 -20 -3 -21 7 -19 13 6 13 11 0 18 -4 14 -10z"/>
<path d="M5180 7370 c-9 -6 -10 -10 -3 -10 6 0 15 5 18 10 8 12 4 12 -15 0z"/>
<path d="M5227 7338 c-10 -39 -63 -96 -101 -108 -29 -9 -29 -10 9 -4 62 8 62
8 95 42 27 29 44 92 21 78 -5 -4 -11 -1 -13 6 -3 7 -8 1 -11 -14z"/>
<path d="M5155 7314 c-22 -20 -31 -31 -20 -26 18 9 74 62 64 62 -2 -1 -22 -17
-44 -36z"/>
<path d="M4185 7282 c-41 -47 -45 -53 -20 -38 31 20 55 48 67 78 10 25 9 24
-47 -40z"/>
<path d="M4511 7303 c0 -6 -4 -20 -7 -30 -5 -14 -4 -15 5 -7 7 7 11 20 8 30
-3 11 -5 14 -6 7z"/>
<path d="M3776 7285 c-9 -26 -7 -32 5 -12 6 10 9 21 6 23 -2 3 -7 -2 -11 -11z"/>
<path d="M3913 7287 c4 -10 7 -23 7 -28 0 -4 7 -5 17 -2 12 5 14 3 8 -7 -5 -9
-4 -11 3 -6 7 4 12 3 12 -1 0 -10 58 -33 81 -33 8 0 -8 11 -34 24 -27 13 -60
34 -74 47 -22 20 -25 21 -20 6z"/>
<path d="M5657 7249 c7 -7 15 -10 18 -7 3 3 -2 9 -12 12 -14 6 -15 5 -6 -5z"/>
<path d="M4548 7233 c17 -2 47 -2 65 0 17 2 3 4 -33 4 -36 0 -50 -2 -32 -4z"/>
<path d="M5278 7233 c12 -2 30 -2 40 0 9 3 -1 5 -23 4 -22 0 -30 -2 -17 -4z"/>
<path d="M5477 7233 c18 -2 50 -2 70 0 21 2 7 4 -32 4 -38 0 -55 -2 -38 -4z"/>
<path d="M4858 7223 c6 -2 18 -2 25 0 6 3 1 5 -13 5 -14 0 -19 -2 -12 -5z"/>
<path d="M8882 7205 c0 -16 2 -22 5 -12 2 9 2 23 0 30 -3 6 -5 -1 -5 -18z"/>
<path d="M5811 7100 c1 -42 1 -43 9 -16 6 17 5 36 0 45 -7 11 -9 3 -9 -29z"/>
<path d="M5480 7099 c27 -50 -23 -96 -90 -82 -37 7 -38 -6 -6 -44 24 -27 26
-27 52 -13 15 8 40 38 56 67 24 42 27 56 18 72 -6 12 -17 21 -26 21 -12 0 -13
-4 -4 -21z"/>
<path d="M4552 6975 c0 -68 3 -111 7 -100 11 28 12 143 2 185 -7 26 -9 5 -9
-85z"/>
<path d="M5696 7077 c3 -10 9 -15 12 -12 3 3 0 11 -7 18 -10 9 -11 8 -5 -6z"/>
<path d="M5702 7020 c0 -19 2 -27 5 -17 2 9 2 25 0 35 -3 9 -5 1 -5 -18z"/>
<path d="M4761 7024 c0 -11 3 -14 6 -6 3 7 2 16 -1 19 -3 4 -6 -2 -5 -13z"/>
<path d="M6954 7015 c101 -155 218 -396 241 -496 8 -35 31 -131 51 -214 28
-118 37 -182 43 -300 10 -179 -3 -410 -28 -514 -66 -274 -105 -374 -222 -572
-100 -171 -205 -305 -349 -449 -134 -134 -226 -204 -384 -295 -284 -163 -646
-274 -966 -297 -31 -3 -35 -6 -34 -30 0 -16 1 -129 2 -253 l2 -225 68 0 c45 0
62 3 52 10 -12 7 -14 33 -11 137 1 70 6 130 10 133 3 3 12 17 18 33 7 15 21
27 31 27 9 0 25 9 35 20 9 11 27 20 39 21 41 1 171 17 233 29 223 42 376 79
395 95 8 7 41 20 72 28 31 8 69 24 84 36 15 12 33 21 40 21 8 0 14 8 15 18 0
15 1 14 8 -3 6 -16 9 -17 17 -4 5 8 20 22 34 31 14 8 36 25 49 37 13 11 28 21
33 21 5 0 29 14 53 30 24 17 48 30 53 30 5 0 15 7 23 16 7 8 30 24 52 35 22
12 55 36 73 55 19 19 41 34 48 34 7 0 18 11 24 25 6 14 16 25 22 25 5 0 9 3 8
8 -2 7 70 82 79 82 18 0 119 114 143 162 17 32 41 63 54 70 14 7 25 16 25 21
1 4 1 16 1 27 0 11 5 19 10 18 6 -2 22 20 36 47 15 28 31 59 37 70 6 11 24 46
39 77 16 31 33 60 38 63 6 3 10 17 10 30 0 13 5 27 10 30 6 3 10 17 10 31 0
14 6 27 14 30 9 3 17 28 21 65 4 33 15 76 25 97 9 20 20 66 24 101 3 35 10 69
15 75 20 24 33 264 18 326 -4 19 -12 91 -17 160 -12 154 -19 212 -29 225 -5 5
-12 28 -15 50 -20 108 -50 181 -189 462 -83 168 -133 242 -153 225 -4 -4 -4
-1 0 6 4 7 1 15 -8 18 -9 3 -16 10 -16 15 0 4 -30 39 -67 76 -38 37 -59 54
-49 38z"/>
<path d="M4431 6965 c-2 -47 -5 -55 -11 -35 -6 20 -8 14 -8 -25 0 -27 2 -43 5
-35 3 8 10 18 15 21 5 3 7 35 5 70 l-3 64 -3 -60z"/>
<path d="M4772 6970 c0 -19 2 -27 5 -17 2 9 2 25 0 35 -3 9 -5 1 -5 -18z"/>
<path d="M4882 6970 c0 -19 2 -27 5 -17 2 9 2 25 0 35 -3 9 -5 1 -5 -18z"/>
<path d="M3578 6963 c7 -3 16 -2 19 1 4 3 -2 6 -13 5 -11 0 -14 -3 -6 -6z"/>
<path d="M4175 6955 l-50 -13 55 5 c63 7 113 22 70 21 -14 0 -47 -6 -75 -13z"/>
<path d="M4293 6963 c-7 -2 -13 -14 -13 -26 l0 -22 18 22 c9 12 31 24 47 26
28 4 28 4 -5 5 -19 0 -41 -2 -47 -5z"/>
<path d="M3698 6953 c6 -2 18 -2 25 0 6 3 1 5 -13 5 -14 0 -19 -2 -12 -5z"/>
<path d="M5595 6948 c-29 -16 -65 -50 -77 -73 -6 -11 6 -4 28 17 22 20 53 44
69 52 17 9 23 16 15 16 -8 0 -24 -6 -35 -12z"/>
<path d="M3876 6935 c-25 -19 -9 -19 24 0 14 8 19 14 10 14 -8 0 -24 -6 -34
-14z"/>
<path d="M3530 6931 c0 -6 5 -11 10 -11 6 0 10 -9 10 -20 0 -11 5 -20 11 -20
5 0 7 5 3 11 -4 7 -1 10 7 7 8 -3 14 -10 14 -15 0 -6 4 -15 9 -20 5 -5 6 5 2
22 -9 35 -13 40 -43 50 -14 4 -23 2 -23 -4z"/>
<path d="M3657 6934 c-6 -7 21 -62 35 -70 6 -4 8 -3 5 3 -4 6 4 11 18 11 14 0
28 -5 32 -11 3 -6 1 -7 -5 -3 -7 4 -10 -1 -9 -14 2 -27 15 -25 26 3 22 58 22
65 3 71 -27 9 -99 15 -105 10z"/>
<path d="M3815 6908 c-78 -190 -85 -209 -55 -155 12 21 26 37 33 34 7 -2 17
16 25 46 7 28 20 56 30 64 16 12 16 13 -2 7 -15 -6 -17 -3 -11 14 10 34 -4 26
-20 -10z"/>
<path d="M5038 6933 c-32 -5 -35 -26 -13 -83 l14 -35 -3 33 c-2 17 -5 35 -9
38 -11 12 4 31 24 29 23 -2 35 -13 42 -40 3 -14 5 -10 6 11 1 27 -15 56 -28
53 -4 -1 -18 -4 -33 -6z"/>
<path d="M5173 6933 c-20 -8 -16 -28 21 -100 22 -43 37 -62 40 -53 47 128 47
136 -1 149 -41 12 -42 12 -60 4z"/>
<path d="M4100 6914 c47 -20 60 -40 53 -77 -4 -21 -3 -28 5 -23 7 4 12 22 12
40 0 40 -33 72 -75 73 l-30 1 35 -14z"/>
<path d="M3939 6903 c-13 -16 -12 -17 4 -4 9 7 17 15 17 17 0 8 -8 3 -21 -13z"/>
<path d="M4875 6867 c-3 -28 -5 -83 -3 -122 4 -62 4 -59 6 28 1 53 6 97 10 97
11 0 46 -65 61 -112 7 -20 19 -42 27 -49 11 -9 9 2 -7 42 -12 30 -29 76 -37
102 -9 27 -24 53 -33 58 -15 8 -18 2 -24 -44z"/>
<path d="M5306 6912 c-3 -3 -6 -12 -6 -21 0 -13 2 -14 9 -2 5 8 18 12 30 8 12
-3 19 -2 16 3 -6 10 -42 19 -49 12z"/>
<path d="M5622 6908 c-7 -7 -11 -23 -11 -37 1 -21 2 -22 6 -6 7 29 23 45 43
45 24 0 30 -19 31 -93 0 -34 5 -71 10 -82 6 -13 7 13 3 75 -3 52 -8 98 -11
102 -7 12 -58 9 -71 -4z"/>
<path d="M5952 6895 c-16 -34 -15 -37 6 -26 9 5 22 9 27 10 16 2 11 35 -6 39
-9 1 -20 -8 -27 -23z"/>
<path d="M6081 6892 c6 -18 9 -38 6 -46 -8 -19 -68 -28 -116 -17 -40 9 -41 8
-40 -18 1 -17 3 -20 6 -8 2 9 8 17 11 17 10 0 38 -20 29 -20 -17 0 30 -38 56
-44 33 -8 35 -29 5 -44 -13 -6 -18 -11 -12 -11 6 -1 28 10 48 24 21 14 35 21
32 16 -4 -5 -2 -12 3 -15 5 -4 13 -2 16 4 5 8 15 6 31 -5 22 -14 24 -14 24 3
0 17 55 74 83 85 6 3 3 6 -8 6 -11 0 -31 -6 -45 -14 -32 -18 -56 -20 -43 -2 6
6 13 31 16 55 5 44 -6 54 -32 30 -8 -8 -11 -8 -8 -2 8 14 -31 26 -39 12 -3 -5
-12 -1 -20 9 -12 16 -12 14 -3 -15z"/>
<path d="M6275 6900 c20 -22 34 -28 16 -7 -6 8 -8 17 -4 20 3 4 -2 7 -12 7
-17 0 -17 -1 0 -20z"/>
<path d="M4692 6890 c-21 -20 -40 -85 -28 -97 3 -4 6 4 6 16 0 29 25 77 47 90
10 6 13 11 7 11 -5 0 -20 -9 -32 -20z"/>
<path d="M4747 6903 c7 -5 14 -42 16 -88 l3 -80 0 84 c-1 66 -4 85 -16 88 -11
3 -11 2 -3 -4z"/>
<path d="M4293 6873 c-8 -3 -13 -25 -13 -60 0 -31 3 -54 6 -51 3 3 5 24 6 47
0 23 4 43 8 46 11 7 41 -5 36 -14 -3 -4 12 -5 31 -3 l36 5 -34 12 c-19 7 -41
15 -49 18 -8 3 -21 3 -27 0z"/>
<path d="M4565 6780 c3 -80 17 -111 58 -135 l32 -18 -26 29 c-39 43 -53 73
-61 134 l-7 55 4 -65z"/>
<path d="M5362 6820 c0 -14 2 -19 5 -12 2 6 2 18 0 25 -3 6 -5 1 -5 -13z"/>
<path d="M5610 6804 c0 -21 4 -45 9 -53 5 -8 7 5 4 35 -7 61 -13 70 -13 18z"/>
<path d="M3415 6783 c2 -28 1 -54 -3 -58 -10 -10 -11 -65 -1 -65 5 0 9 5 9 12
0 6 7 3 16 -8 8 -10 13 -14 10 -7 -4 6 -1 15 6 19 7 4 10 4 6 -1 -4 -4 0 -14
10 -22 9 -8 11 -11 3 -7 -9 5 -12 3 -7 -4 4 -7 19 -12 33 -12 21 0 23 3 14 14
-7 8 -32 54 -56 103 l-44 88 4 -52z"/>
<path d="M4032 6800 c0 -19 2 -27 5 -17 2 9 2 25 0 35 -3 9 -5 1 -5 -18z"/>
<path d="M3714 6805 c4 -24 16 -30 16 -7 0 12 -4 22 -9 22 -5 0 -8 -7 -7 -15z"/>
<path d="M6440 6816 c0 -14 23 -51 47 -78 14 -14 22 -31 19 -37 -4 -6 0 -11 8
-11 8 0 20 8 25 18 8 15 4 25 -22 48 -53 49 -77 67 -77 60z"/>
<path d="M3596 6795 c-8 -23 -8 -25 8 -25 8 0 17 -6 20 -12 3 -7 3 -2 0 12 -8
34 -20 45 -28 25z"/>
<path d="M3547 6783 c3 -7 6 -13 8 -13 2 0 5 6 8 13 3 8 -1 14 -8 14 -7 0 -11
-6 -8 -14z"/>
<path d="M5248 6742 c-34 -75 -43 -106 -29 -98 18 11 69 141 59 151 -2 3 -16
-21 -30 -53z"/>
<path d="M5093 6735 c-18 -19 -33 -40 -33 -47 1 -7 9 -2 20 10 22 26 49 34 67
20 9 -7 9 -2 0 21 -6 17 -14 31 -17 30 -3 0 -20 -16 -37 -34z"/>
<path d="M5830 6756 c0 -8 4 -17 9 -20 5 -4 7 3 4 14 -6 23 -13 26 -13 6z"/>
<path d="M3560 6714 c-21 -49 -26 -70 -9 -41 17 29 40 87 34 87 -3 0 -15 -21
-25 -46z"/>
<path d="M4021 6734 c0 -11 3 -14 6 -6 3 7 2 16 -1 19 -3 4 -6 -2 -5 -13z"/>
<path d="M3630 6731 c0 -6 4 -13 10 -16 6 -3 7 1 4 9 -7 18 -14 21 -14 7z"/>
<path d="M4746 6704 c-4 -10 -13 -14 -26 -11 -11 3 -18 1 -14 -4 3 -5 11 -9
18 -9 15 0 41 28 34 36 -3 3 -8 -3 -12 -12z"/>
<path d="M5528 6698 c7 -7 12 -18 12 -26 0 -12 -3 -12 -15 -2 -12 10 -15 10
-15 -1 0 -9 13 -15 36 -16 l37 -2 -28 30 c-16 16 -31 29 -34 29 -3 0 0 -5 7
-12z"/>
<path d="M3376 6685 c-3 -8 -1 -15 4 -15 6 0 10 7 10 15 0 8 -2 15 -4 15 -2 0
-6 -7 -10 -15z"/>
<path d="M4076 6670 c-22 -17 -33 -30 -25 -30 16 1 37 16 58 43 19 24 12 21
-33 -13z"/>
<path d="M4760 6645 c-14 -16 -10 -18 14 -9 9 3 16 10 16 15 0 14 -16 11 -30
-6z"/>
<path d="M5773 6633 c15 -2 37 -2 50 0 12 2 0 4 -28 4 -27 0 -38 -2 -22 -4z"/>
<path d="M4458 6623 c12 -2 32 -2 45 0 12 2 2 4 -23 4 -25 0 -35 -2 -22 -4z"/>
<path d="M3290 6503 c-28 -63 -45 -121 -62 -213 -17 -99 -18 -564 0 -600 11
-23 12 -22 8 15 -3 22 -1 72 3 110 7 56 9 62 11 30 1 -22 4 -32 7 -22 2 9 8
15 11 13 4 -2 8 17 9 42 1 31 0 40 -6 28 -7 -19 -8 -19 -13 1 -4 14 0 24 8 27
8 3 14 14 14 25 0 11 6 22 13 24 6 3 7 6 2 6 -7 1 -9 16 -7 36 2 20 0 35 -6
35 -7 0 -9 20 -7 55 3 41 12 64 32 90 16 19 35 35 43 35 13 0 13 1 0 10 -13 8
-12 10 3 10 9 0 17 5 17 11 0 5 -5 7 -12 3 -7 -4 -8 -3 -4 5 11 16 29 2 23
-19 -3 -11 1 -17 12 -16 12 1 17 -12 22 -59 6 -54 6 -51 5 25 -1 83 -2 85 -26
88 -28 4 -60 29 -60 46 0 8 2 8 8 0 4 -7 15 -8 27 -3 11 4 14 8 7 8 -20 1 -42
27 -32 37 5 5 2 26 -5 49 -11 31 -11 42 -2 54 10 12 9 14 -7 8 -16 -6 -18 -3
-14 23 3 16 3 30 2 30 -2 0 -13 -21 -24 -47z m44 -222 c3 -5 -1 -11 -9 -14 -9
-4 -12 -1 -8 9 6 16 10 17 17 5z m-57 -253 c-3 -8 -6 -5 -6 6 -1 11 2 17 5 13
3 -3 4 -12 1 -19z"/>
<path d="M3483 6508 c-40 -42 -73 -109 -72 -145 0 -22 3 -17 13 19 14 51 22
63 75 121 19 20 31 37 25 37 -6 0 -24 -15 -41 -32z"/>
<path d="M3642 6510 c12 -16 23 -30 25 -30 9 0 1 31 -13 44 -27 27 -36 17 -12
-14z"/>
<path d="M5863 6523 c-25 -5 -32 -23 -9 -23 29 0 76 13 76 21 0 9 -27 10 -67
2z"/>
<path d="M3537 6470 c-9 -13 -17 -34 -17 -45 1 -18 2 -19 13 -3 12 15 15 14
36 -10 12 -15 25 -33 30 -40 11 -19 70 4 66 26 -2 9 -4 19 -4 22 -1 2 -6 -1
-13 -8 -16 -16 -55 -15 -65 1 -4 6 -13 28 -18 47 l-11 35 -17 -25z"/>
<path d="M5855 6480 c-4 -6 -1 -17 5 -25 6 -8 18 -47 25 -87 l13 -73 1 87 c1
77 -1 89 -18 98 -14 7 -22 7 -26 0z"/>
<path d="M3615 6344 c-9 -9 -15 -18 -13 -19 2 -2 37 0 78 4 41 5 65 9 53 10
-12 0 -23 7 -26 14 -4 10 -7 10 -18 0 -7 -7 -22 -13 -33 -12 -21 0 -21 0 -1 9
19 8 19 9 -2 9 -12 1 -29 -6 -38 -15z"/>
<path d="M4019 6353 c-9 -2 -23 -21 -33 -41 l-17 -37 33 37 c18 20 42 39 53
41 l20 5 -20 0 c-11 0 -27 -2 -36 -5z"/>
<path d="M4730 6343 c0 -12 -3 -30 -6 -40 -6 -15 -3 -14 17 4 22 22 22 24 6
40 -16 16 -17 16 -17 -4z"/>
<path d="M4860 6346 c0 -2 8 -10 18 -17 15 -13 16 -12 3 4 -13 16 -21 21 -21
13z"/>
<path d="M4130 6337 c0 -2 15 -16 33 -33 l32 -29 -29 33 c-28 30 -36 37 -36
29z"/>
<path d="M4608 6333 c6 -2 18 -2 25 0 6 3 1 5 -13 5 -14 0 -19 -2 -12 -5z"/>
<path d="M3783 6290 c0 -25 2 -35 4 -22 2 12 2 32 0 45 -2 12 -4 2 -4 -23z"/>
<path d="M3848 6323 c6 -2 18 -2 25 0 6 3 1 5 -13 5 -14 0 -19 -2 -12 -5z"/>
<path d="M4295 6318 c-11 -6 -32 -22 -47 -36 -17 -15 -33 -22 -44 -18 -12 5
-15 2 -10 -10 3 -8 6 -18 6 -20 0 -2 8 -4 18 -4 11 0 27 -9 38 -21 18 -20 18
-22 -14 -82 -18 -34 -32 -72 -32 -84 0 -22 49 -88 50 -67 0 6 -7 17 -15 24 -9
7 -15 29 -15 52 0 53 35 86 128 118 40 13 72 28 72 33 0 5 -9 5 -21 2 -33 -11
-126 5 -151 25 l-23 18 43 41 c24 23 42 41 40 41 -2 0 -12 -6 -23 -12z"/>
<path d="M5369 6303 c-13 -16 -12 -17 4 -4 16 13 21 21 13 21 -2 0 -10 -8 -17
-17z"/>
<path d="M6402 6304 c-12 -8 -22 -23 -22 -32 1 -14 2 -14 12 3 6 11 19 25 27
32 23 18 9 16 -17 -3z"/>
<path d="M4340 6284 c0 -8 5 -12 10 -9 6 3 10 10 10 16 0 5 -4 9 -10 9 -5 0
-10 -7 -10 -16z"/>
<path d="M5164 6284 c9 -8 16 -20 16 -26 0 -6 3 -9 6 -5 10 10 -7 47 -22 47
-13 0 -13 -2 0 -16z"/>
<path d="M5511 6295 c1 -19 18 -51 18 -35 0 8 -4 22 -9 30 -5 8 -9 11 -9 5z"/>
<path d="M5656 6255 c4 -27 8 -52 10 -54 8 -9 2 65 -7 84 -6 13 -7 4 -3 -30z"/>
<path d="M3530 6273 c0 -12 3 -14 8 -6 4 6 21 13 37 16 27 4 27 4 -7 6 -30 1
-38 -3 -38 -16z"/>
<path d="M5461 6274 c0 -11 3 -14 6 -6 3 7 2 16 -1 19 -3 4 -6 -2 -5 -13z"/>
<path d="M3996 6255 c-13 -19 -16 -48 -14 -137 l2 -113 3 95 c4 117 7 134 35
160 17 16 18 20 6 20 -9 0 -23 -11 -32 -25z"/>
<path d="M4544 6175 c0 -55 1 -76 3 -47 2 29 2 74 0 100 -2 26 -3 2 -3 -53z"/>
<path d="M4733 6254 c-22 -9 -14 -21 10 -17 28 6 57 -19 58 -50 0 -12 3 -52 8
-89 4 -38 3 -68 -1 -68 -4 0 -8 -4 -8 -10 0 -5 7 -10 15 -10 12 0 15 16 14 93
-2 137 -7 152 -49 154 -19 1 -41 0 -47 -3z"/>
<path d="M5300 6234 c-20 -18 -44 -27 -68 -28 -30 -1 -36 -4 -34 -20 2 -11 -1
-15 -7 -11 -6 3 -11 1 -11 -4 0 -6 7 -11 15 -11 15 0 21 -26 8 -32 -5 -1 -16
-18 -25 -36 -10 -18 -13 -30 -8 -27 6 3 19 8 30 10 19 4 19 2 5 -18 -19 -27
-19 -38 0 -31 8 4 12 10 9 15 -3 5 1 6 9 4 7 -3 37 13 65 35 29 23 52 39 52
35 0 -8 -40 -65 -69 -97 -14 -16 -20 -28 -14 -28 6 0 16 7 23 15 17 21 35 19
54 -7 15 -20 16 -20 10 -3 -4 11 -8 38 -8 60 -1 39 0 40 72 80 41 22 72 44 70
49 -2 5 -28 9 -58 10 -52 1 -56 3 -71 34 l-17 33 -32 -27z"/>
<path d="M3658 6120 c-2 -55 0 -100 5 -100 4 0 7 45 7 100 0 55 -2 100 -4 100
-3 0 -6 -45 -8 -100z"/>
<path d="M6332 6114 c-7 -26 -11 -49 -8 -51 6 -6 28 76 24 88 -2 6 -9 -11 -16
-37z"/>
<path d="M4386 6141 c-3 -5 2 -8 12 -7 14 1 17 -7 17 -41 0 -22 3 -39 8 -36 4
2 7 24 7 49 0 37 -3 44 -19 44 -11 0 -22 -4 -25 -9z"/>
<path d="M5657 6137 c-4 -10 -7 -28 -6 -40 0 -21 1 -21 10 2 5 14 8 32 7 40
-3 13 -5 13 -11 -2z"/>
<path d="M4980 6073 c0 -27 20 -60 51 -82 l34 -24 -21 24 c-12 13 -31 40 -43
59 -11 19 -21 30 -21 23z"/>
<path d="M6200 6047 c0 -4 9 -24 20 -44 14 -26 20 -32 20 -18 0 18 -39 80 -40
62z"/>
<path d="M4565 5984 c-19 -15 -22 -21 -9 -15 18 9 52 41 43 41 -2 0 -17 -12
-34 -26z"/>
<path d="M3598 5993 c7 -3 16 -2 19 1 4 3 -2 6 -13 5 -11 0 -14 -3 -6 -6z"/>
<path d="M3468 5973 c12 -2 30 -2 40 0 9 3 -1 5 -23 4 -22 0 -30 -2 -17 -4z"/>
<path d="M3943 5973 c9 -2 23 -2 30 0 6 3 -1 5 -18 5 -16 0 -22 -2 -12 -5z"/>
<path d="M3730 5876 c0 -2 8 -10 18 -17 15 -13 16 -12 3 4 -13 16 -21 21 -21
13z"/>
<path d="M6076 5858 c-3 -13 0 -29 7 -36 11 -10 12 -6 9 23 -5 41 -8 43 -16
13z"/>
<path d="M3610 5828 c0 -13 10 -34 21 -48 17 -21 19 -22 10 -3 -6 12 -11 33
-11 47 0 14 -4 26 -10 26 -5 0 -10 -10 -10 -22z"/>
<path d="M3876 5770 c-32 -36 -42 -50 -33 -50 1 0 20 20 40 45 47 56 42 59 -7
5z"/>
<path d="M3745 5780 c-4 -6 -21 -17 -38 -25 -24 -11 -26 -13 -7 -9 23 6 73 44
58 44 -4 0 -10 -5 -13 -10z"/>
<path d="M4516 5698 c-3 -13 -6 -32 -5 -43 0 -14 4 -10 14 14 17 38 19 51 6
51 -5 0 -11 -10 -15 -22z"/>
<path d="M3744 5676 c-3 -8 -4 -23 -2 -33 3 -11 6 -6 9 15 6 34 2 42 -7 18z"/>
<path d="M4072 5657 c-57 -59 -69 -231 -18 -269 l23 -16 -20 40 c-38 77 -22
192 36 256 32 34 15 26 -21 -11z"/>
<path d="M4306 5682 c12 -11 64 -33 64 -27 0 5 -56 35 -67 35 -4 0 -3 -4 3 -8z"/>
<path d="M4683 5674 c-18 -8 -33 -18 -33 -24 0 -5 16 0 35 11 19 12 35 23 35
25 0 5 2 6 -37 -12z"/>
<path d="M4950 5680 c-8 -5 -18 -6 -23 -3 -5 3 -4 -4 3 -16 8 -17 15 -20 24
-12 7 6 15 9 17 7 12 -10 59 -15 59 -6 0 5 -9 10 -19 10 -11 0 -26 6 -34 14
-8 9 -19 11 -27 6z"/>
<path d="M4030 5664 c0 -8 5 -12 10 -9 6 4 8 11 5 16 -9 14 -15 11 -15 -7z"/>
<path d="M4176 5671 c-4 -5 3 -7 14 -4 23 6 26 13 6 13 -8 0 -17 -4 -20 -9z"/>
<path d="M5206 5665 c-11 -8 -15 -15 -9 -15 19 0 43 12 43 21 0 13 -12 11 -34
-6z"/>
<path d="M5355 5647 c-7 -18 -17 -46 -20 -63 -6 -25 -3 -23 21 16 16 25 27 49
26 54 -2 5 3 13 10 17 10 7 8 9 -5 9 -11 0 -23 -13 -32 -33z"/>
<path d="M3792 5654 c12 -14 18 -42 21 -99 l3 -80 2 87 c2 81 0 88 -20 99 -22
11 -22 11 -6 -7z"/>
<path d="M5140 5542 c0 -63 2 -113 6 -110 3 3 5 51 6 106 0 85 3 102 17 104
12 3 10 5 -6 10 -23 6 -23 6 -23 -110z"/>
<path d="M5511 5643 c7 -12 15 -20 18 -17 3 2 -3 12 -13 22 -17 16 -18 16 -5
-5z"/>
<path d="M4392 5620 c0 -14 2 -19 5 -12 2 6 2 18 0 25 -3 6 -5 1 -5 -13z"/>
<path d="M3607 5618 c4 -7 11 -53 14 -103 l5 -90 2 103 c2 86 0 102 -14 102
-10 0 -12 -4 -7 -12z"/>
<path d="M4510 5593 c0 -5 30 -8 66 -9 38 0 58 3 48 7 -25 10 -114 11 -114 2z"/>
<path d="M4673 5564 c0 -7 4 -14 8 -14 4 0 6 -11 3 -25 -4 -25 -4 -25 28 -11
100 42 110 57 35 51 -23 -1 -49 1 -58 6 -11 5 -16 3 -16 -7z"/>
<path d="M4386 5491 c-7 -73 -18 -91 -81 -139 -29 -22 -29 -23 -5 -16 14 4 41
21 62 38 36 31 36 32 37 109 1 42 -1 77 -3 77 -2 0 -6 -31 -10 -69z"/>
<path d="M4188 5533 c6 -2 18 -2 25 0 6 3 1 5 -13 5 -14 0 -19 -2 -12 -5z"/>
<path d="M4268 5533 c6 -2 18 -2 25 0 6 3 1 5 -13 5 -14 0 -19 -2 -12 -5z"/>
<path d="M5464 5532 c5 -8 76 -4 76 4 0 2 -18 4 -41 4 -22 0 -38 -4 -35 -8z"/>
<path d="M5413 5523 c9 -2 23 -2 30 0 6 3 -1 5 -18 5 -16 0 -22 -2 -12 -5z"/>
<path d="M4795 5494 c-9 -10 -13 -20 -8 -23 12 -8 9 -36 -3 -34 -6 1 -9 -8 -8
-20 1 -12 3 -25 3 -29 1 -5 6 -8 12 -8 7 0 9 10 5 25 -5 19 -2 25 9 25 10 0
13 -5 9 -12 -5 -9 -4 -10 3 -3 6 6 13 29 16 53 6 46 -8 56 -38 26z"/>
<path d="M4150 5488 c0 -9 5 -20 10 -23 13 -8 13 5 0 25 -8 13 -10 13 -10 -2z"/>
<path d="M4953 5440 c0 -25 2 -35 4 -22 2 12 2 32 0 45 -2 12 -4 2 -4 -23z"/>
<path d="M5717 5474 c-3 -4 2 -19 12 -33 10 -14 21 -38 25 -53 3 -16 10 -28
15 -28 20 0 19 31 -2 71 -23 43 -37 55 -50 43z"/>
<path d="M3419 5453 c-3 -44 -7 -61 -14 -74 -6 -11 -5 -11 5 -2 13 12 26 93
16 93 -4 0 -7 -8 -7 -17z"/>
<path d="M4180 5436 c0 -2 8 -10 18 -17 15 -13 16 -12 3 4 -13 16 -21 21 -21
13z"/>
<path d="M5540 5395 l-45 -46 42 18 c30 13 43 25 46 43 3 14 4 26 3 27 -1 2
-22 -18 -46 -42z"/>
<path d="M5230 5404 c0 -9 -10 -30 -22 -46 l-21 -31 26 18 c15 9 38 15 50 13
l24 -5 -21 33 c-23 36 -36 43 -36 18z"/>
<path d="M5409 5408 c8 -11 25 -17 45 -17 l31 2 -30 4 c-16 3 -37 10 -45 16
-13 10 -13 10 -1 -5z"/>
<path d="M3342 5390 c0 -14 2 -19 5 -12 2 6 2 18 0 25 -3 6 -5 1 -5 -13z"/>
<path d="M3350 5351 c0 -9 50 -101 55 -101 6 0 -41 110 -47 110 -5 0 -8 -4 -8
-9z"/>
<path d="M4814 5344 c-18 -14 -18 -15 4 -4 12 6 22 13 22 15 0 8 -5 6 -26 -11z"/>
<path d="M3408 5323 c6 -2 18 -2 25 0 6 3 1 5 -13 5 -14 0 -19 -2 -12 -5z"/>
<path d="M3486 5138 c31 -43 58 -78 61 -78 6 0 -54 82 -89 122 -16 18 -4 -2
28 -44z"/>
<path d="M2743 5123 c-3 -10 -7 -21 -9 -24 -2 -3 3 -6 11 -6 9 0 15 10 15 24
0 27 -8 30 -17 6z"/>
<path d="M8378 5133 c7 -3 16 -2 19 1 4 3 -2 6 -13 5 -11 0 -14 -3 -6 -6z"/>
<path d="M8480 5100 c0 -5 4 -10 9 -10 6 0 13 5 16 10 3 6 -1 10 -9 10 -9 0
-16 -4 -16 -10z"/>
<path d="M8480 5060 c0 -5 7 -10 16 -10 8 0 12 5 9 10 -3 6 -10 10 -16 10 -5
0 -9 -4 -9 -10z"/>
<path d="M8480 5020 c0 -5 7 -10 16 -10 8 0 12 5 9 10 -3 6 -10 10 -16 10 -5
0 -9 -4 -9 -10z"/>
<path d="M8480 4958 c0 -4 6 -8 14 -8 8 0 17 4 20 8 2 4 -4 8 -15 8 -10 0 -19
-4 -19 -8z"/>
<path d="M8480 4880 c0 -5 5 -10 10 -10 6 0 10 5 10 10 0 6 -4 10 -10 10 -5 0
-10 -4 -10 -10z"/>
<path d="M8480 4810 c0 -5 5 -10 10 -10 6 0 10 5 10 10 0 6 -4 10 -10 10 -5 0
-10 -4 -10 -10z"/>
<path d="M8380 4776 c0 -9 40 -13 46 -5 3 5 -6 9 -20 9 -14 0 -26 -2 -26 -4z"/>
<path d="M8480 4771 c0 -5 9 -7 20 -4 11 3 20 7 20 9 0 2 -9 4 -20 4 -11 0
-20 -4 -20 -9z"/>
<path d="M2395 4760 c-3 -5 -1 -10 4 -10 6 0 11 5 11 10 0 6 -2 10 -4 10 -3 0
-8 -4 -11 -10z"/>
<path d="M8500 4730 l-25 -8 28 -1 c15 -1 27 4 27 9 0 6 -1 10 -2 9 -2 -1 -14
-5 -28 -9z"/>
<path d="M8580 4709 c0 -5 5 -7 10 -4 6 3 10 8 10 11 0 2 -4 4 -10 4 -5 0 -10
-5 -10 -11z"/>
<path d="M3890 4706 c0 -2 8 -10 18 -17 15 -13 16 -12 3 4 -13 16 -21 21 -21
13z"/>
<path d="M8290 4700 c0 -6 12 -10 27 -10 29 0 24 12 -7 17 -11 2 -20 -2 -20
-7z"/>
<path d="M8480 4680 c0 -5 9 -10 20 -10 11 0 20 5 20 10 0 6 -9 10 -20 10 -11
0 -20 -4 -20 -10z"/>
<path d="M8398 4673 c7 -3 16 -2 19 1 4 3 -2 6 -13 5 -11 0 -14 -3 -6 -6z"/>
<path d="M8290 4656 c0 -2 9 -6 20 -9 11 -3 20 -1 20 4 0 5 -9 9 -20 9 -11 0
-20 -2 -20 -4z"/>
<path d="M8485 4640 c-3 -5 1 -10 9 -10 9 0 16 5 16 10 0 6 -4 10 -9 10 -6 0
-13 -4 -16 -10z"/>
<path d="M8600 4630 c-9 -6 -10 -10 -3 -10 6 0 15 5 18 10 8 12 4 12 -15 0z"/>
<path d="M8480 4610 c0 -5 5 -10 10 -10 6 0 10 5 10 10 0 6 -4 10 -10 10 -5 0
-10 -4 -10 -10z"/>
<path d="M8298 4603 c6 -2 18 -2 25 0 6 3 1 5 -13 5 -14 0 -19 -2 -12 -5z"/>
<path d="M8300 4562 c0 -5 7 -9 15 -9 8 0 12 4 9 9 -3 4 -9 8 -15 8 -5 0 -9
-4 -9 -8z"/>
<path d="M8485 4560 c-8 -13 5 -13 25 0 13 8 13 10 -2 10 -9 0 -20 -4 -23 -10z"/>
<path d="M8295 4520 c-4 -6 3 -10 14 -10 25 0 27 6 6 13 -8 4 -17 2 -20 -3z"/>
<path d="M8615 4520 c-3 -5 -2 -10 4 -10 5 0 13 5 16 10 3 6 2 10 -4 10 -5 0
-13 -4 -16 -10z"/>
<path d="M8498 4509 c-10 -5 -18 -15 -18 -22 0 -8 3 -9 8 -1 4 6 16 16 27 22
11 6 16 11 10 11 -5 0 -18 -4 -27 -10z"/>
<path d="M8380 4491 c0 -4 11 -6 25 -3 14 2 25 6 25 8 0 2 -11 4 -25 4 -14 0
-25 -4 -25 -9z"/>
<path d="M8625 4470 c-3 -5 -1 -10 4 -10 6 0 11 5 11 10 0 6 -2 10 -4 10 -3 0
-8 -4 -11 -10z"/>
<path d="M8494 4445 c-19 -14 -18 -14 4 -15 13 0 22 6 22 15 0 19 -1 19 -26 0z"/>
<path d="M8498 4373 c7 -3 16 -2 19 1 4 3 -2 6 -13 5 -11 0 -14 -3 -6 -6z"/>
<path d="M8492 4237 c-8 -10 -7 -13 7 -14 10 -1 18 5 18 13 0 17 -11 18 -25 1z"/>
<path d="M8515 4170 c-3 -5 -1 -10 4 -10 6 0 11 5 11 10 0 6 -2 10 -4 10 -3 0
-8 -4 -11 -10z"/>
<path d="M8615 4170 c-3 -5 -1 -10 4 -10 6 0 11 5 11 10 0 6 -2 10 -4 10 -3 0
-8 -4 -11 -10z"/>
<path d="M8480 4126 c0 -9 7 -12 21 -9 16 4 17 8 7 14 -19 13 -28 11 -28 -5z"/>
<path d="M8615 4120 c3 -5 8 -10 11 -10 2 0 4 5 4 10 0 6 -5 10 -11 10 -5 0
-7 -4 -4 -10z"/>
<path d="M8480 4080 c0 -5 10 -10 23 -10 18 0 19 2 7 10 -19 13 -30 13 -30 0z"/>
<path d="M8620 4069 c0 -5 5 -7 10 -4 6 3 10 8 10 11 0 2 -4 4 -10 4 -5 0 -10
-5 -10 -11z"/>
<path d="M8490 3975 c-11 -13 -10 -14 4 -9 9 3 16 10 16 15 0 13 -6 11 -20 -6z"/>
<path d="M8585 3980 c-3 -5 -1 -10 4 -10 6 0 11 5 11 10 0 6 -2 10 -4 10 -3 0
-8 -4 -11 -10z"/>
<path d="M4526 3970 c10 -10 145 -42 151 -37 2 3 -33 14 -78 25 -45 11 -77 16
-73 12z"/>
<path d="M4719 3915 c18 -8 41 -15 50 -15 9 0 35 -7 59 -15 24 -8 75 -20 115
-25 43 -6 77 -17 83 -25 10 -13 12 -11 16 13 l4 29 -85 7 c-47 4 -115 13 -151
20 -36 8 -78 17 -95 21 -30 6 -30 6 4 -10z"/>
<path d="M1663 3860 c0 -36 2 -50 4 -32 2 17 2 47 0 65 -2 17 -4 3 -4 -33z"/>
<path d="M8497 3909 c-9 -6 -17 -17 -17 -24 0 -11 6 -9 21 6 24 24 22 32 -4
18z"/>
<path d="M8614 3845 c-3 -8 -4 -20 -1 -27 3 -7 6 -3 6 9 1 12 7 24 14 26 9 4
9 6 -1 6 -7 1 -15 -6 -18 -14z"/>
<path d="M8415 3841 c-3 -5 -1 -12 5 -16 5 -3 10 1 10 9 0 18 -6 21 -15 7z"/>
<path d="M8488 3833 c6 -2 18 -2 25 0 6 3 1 5 -13 5 -14 0 -19 -2 -12 -5z"/>
<path d="M8580 3740 c0 -5 5 -10 10 -10 6 0 10 5 10 10 0 6 -4 10 -10 10 -5 0
-10 -4 -10 -10z"/>
<path d="M8480 3728 c0 -6 3 -8 7 -5 3 4 13 1 22 -6 14 -11 14 -10 2 6 -15 20
-31 22 -31 5z"/>
<path d="M8405 3640 c-3 -5 -1 -10 4 -10 6 0 11 5 11 10 0 6 -2 10 -4 10 -3 0
-8 -4 -11 -10z"/>
<path d="M8505 3640 c-3 -5 -1 -10 4 -10 6 0 11 5 11 10 0 6 -2 10 -4 10 -3 0
-8 -4 -11 -10z"/>
<path d="M8470 3630 c0 -5 5 -10 10 -10 6 0 10 5 10 10 0 6 -4 10 -10 10 -5 0
-10 -4 -10 -10z"/>
<path d="M8620 3585 c0 -8 2 -15 4 -15 2 0 6 7 10 15 3 8 1 15 -4 15 -6 0 -10
-7 -10 -15z"/>
<path d="M1951 3564 c-12 -15 -24 -39 -28 -53 -3 -14 -13 -31 -22 -38 -14 -11
-14 -12 5 -13 19 0 21 -6 23 -70 2 -65 0 -71 -21 -79 -20 -9 -19 -10 15 -10
l37 -1 0 80 0 80 46 0 46 0 -4 -80 -3 -80 35 1 c19 1 27 3 18 6 -15 4 -18 17
-18 84 l0 79 -37 0 c-62 0 -83 9 -83 37 0 45 17 63 58 62 21 -1 28 -4 16 -6
-16 -3 -20 -9 -17 -24 8 -28 51 -25 62 4 12 29 5 35 -55 42 -47 7 -52 5 -73
-21z"/>
<path d="M2906 3573 c-12 -13 -6 -53 9 -53 9 0 15 9 15 24 0 26 -12 40 -24 29z"/>
<path d="M3150 3571 c0 -5 6 -11 13 -13 19 -7 17 -226 -3 -238 -11 -7 -6 -10
21 -10 l35 0 -7 58 c-4 31 -8 92 -8 135 -1 75 -2 77 -26 77 -14 0 -25 -4 -25
-9z"/>
<path d="M8490 3541 c-14 -4 -20 -10 -15 -13 10 -6 55 7 55 17 0 6 -7 5 -40
-4z"/>
<path d="M8498 3503 c7 -3 16 -2 19 1 4 3 -2 6 -13 5 -11 0 -14 -3 -6 -6z"/>
<path d="M8625 3480 c-3 -5 -1 -10 4 -10 6 0 11 5 11 10 0 6 -2 10 -4 10 -3 0
-8 -4 -11 -10z"/>
<path d="M2220 3465 c-11 -13 -10 -14 3 -10 22 9 26 -4 29 -84 3 -62 5 -71 22
-71 17 0 18 6 14 65 -5 61 -27 115 -47 115 -5 0 -14 -7 -21 -15z"/>
<path d="M2590 3470 c-12 -8 -11 -10 8 -10 29 0 42 -33 42 -106 0 -38 4 -54
12 -52 17 6 10 127 -8 156 -16 24 -30 27 -54 12z"/>
<path d="M2813 3469 c10 -6 22 -20 27 -32 8 -21 9 -21 9 4 1 25 -15 39 -42 39
-7 0 -4 -5 6 -11z"/>
<path d="M3063 3399 c4 -44 9 -84 12 -90 4 -5 18 -9 33 -9 22 0 24 2 10 13
-10 7 -18 35 -21 73 -7 70 -15 94 -30 94 -6 0 -8 -27 -4 -81z"/>
<path d="M2418 3453 c0 -10 -1 -25 0 -33 0 -8 2 -39 3 -67 2 -41 6 -53 19 -53
14 0 15 9 9 73 -4 39 -8 78 -8 85 -1 19 -21 14 -23 -5z"/>
<path d="M2527 3418 c3 -31 1 -70 -5 -88 -11 -30 -10 -31 11 -24 12 3 23 7 23
8 1 0 4 34 6 74 3 60 1 72 -11 67 -8 -3 -18 0 -22 7 -5 7 -5 -13 -2 -44z"/>
<path d="M2746 3448 c-24 -39 -28 -66 -12 -95 25 -49 92 -70 104 -33 4 13 3
13 -11 2 -24 -20 -57 -5 -73 35 -16 37 -11 67 14 96 9 10 11 17 4 17 -6 0 -18
-10 -26 -22z"/>
<path d="M2908 3395 c5 -73 4 -75 -19 -75 -16 0 -20 -3 -12 -11 5 -5 22 -7 37
-3 29 7 31 18 20 112 -4 30 -12 52 -19 52 -9 0 -11 -20 -7 -75z"/>
<path d="M2144 3380 l1 -80 30 1 c17 1 22 3 13 6 -23 6 -24 66 -3 107 17 33
13 45 -10 26 -12 -10 -15 -10 -15 4 0 9 -4 16 -9 16 -5 0 -8 -36 -7 -80z"/>
<path d="M2345 3449 c-4 -6 -5 -12 -2 -15 7 -7 37 7 37 17 0 13 -27 11 -35 -2z"/>
<path d="M3005 3440 c3 -5 8 -10 11 -10 2 0 4 5 4 10 0 6 -5 10 -11 10 -5 0
-7 -4 -4 -10z"/>
<path d="M2357 3372 c-40 -41 -31 -82 18 -82 18 1 18 1 3 11 -22 13 -23 33 -2
65 24 35 12 39 -19 6z"/>
<path d="M2999 3364 c-33 -34 -33 -36 -15 -50 11 -8 31 -14 45 -13 l26 1 -27
10 c-34 12 -35 24 -6 55 12 13 19 25 17 28 -3 3 -21 -11 -40 -31z"/>
<path d="M8625 3240 c3 -5 8 -10 11 -10 2 0 4 5 4 10 0 6 -5 10 -11 10 -5 0
-7 -4 -4 -10z"/>
<path d="M1935 3218 c-30 -16 -31 -18 -15 -28 11 -7 16 -37 18 -124 4 -113 4
-114 -19 -119 -16 -3 -12 -5 14 -6 l37 -1 0 145 c0 80 -3 145 -7 145 -5 0 -17
-6 -28 -12z"/>
<path d="M8470 3200 c0 -5 5 -10 11 -10 5 0 7 5 4 10 -3 6 -8 10 -11 10 -2 0
-4 -4 -4 -10z"/>
<path d="M2050 3192 c0 -6 -3 -17 -6 -26 -4 -12 0 -16 16 -16 16 0 21 5 18 22
-3 21 -28 39 -28 20z"/>
<path d="M8620 3190 c0 -5 5 -10 10 -10 6 0 10 5 10 10 0 6 -4 10 -10 10 -5 0
-10 -4 -10 -10z"/>
<path d="M2153 3149 c-17 -30 -19 -46 -14 -111 6 -74 21 -108 47 -108 7 0 16
5 19 11 4 6 1 10 -6 8 -36 -4 -39 1 -39 69 0 37 5 84 11 105 15 54 6 66 -18
26z"/>
<path d="M8470 3161 c0 -6 5 -13 10 -16 6 -3 10 1 10 9 0 9 -4 16 -10 16 -5 0
-10 -4 -10 -9z"/>
<path d="M8510 3150 c0 -5 5 -10 11 -10 5 0 7 5 4 10 -3 6 -8 10 -11 10 -2 0
-4 -4 -4 -10z"/>
<path d="M2034 3088 c8 -13 17 -47 21 -75 6 -45 4 -53 -9 -53 -9 0 -16 -5 -16
-11 0 -6 10 -9 23 -7 12 2 21 6 20 11 -2 4 -3 41 -3 82 0 74 0 75 -25 75 -24
0 -25 -1 -11 -22z"/>
<path d="M2268 3087 c-24 -20 -26 -26 -19 -60 12 -50 40 -87 69 -87 7 0 -1 12
-18 28 -20 17 -33 40 -37 64 -5 34 -3 39 28 57 19 12 27 21 19 21 -8 -1 -27
-11 -42 -23z"/>
<path d="M2850 3092 c0 -5 16 -9 35 -10 21 -1 33 3 30 8 -8 12 -65 13 -65 2z"/>
<path d="M3050 3091 c0 -5 3 -17 6 -25 5 -13 9 -14 20 -5 21 17 17 39 -6 39
-11 0 -20 -4 -20 -9z"/>
<path d="M5310 2896 c0 -211 4 -229 37 -188 8 9 11 11 7 3 -5 -9 -3 -12 4 -7
7 4 12 13 12 20 0 7 8 24 19 37 11 14 21 50 25 88 11 97 37 143 95 169 26 12
61 22 79 22 17 0 33 4 36 9 3 5 23 11 43 15 142 21 134 23 -94 25 -127 0 -238
4 -247 7 -14 5 -16 -16 -16 -200z"/>
<path d="M4778 3083 c23 -2 61 -2 85 0 23 2 4 4 -43 4 -47 0 -66 -2 -42 -4z"/>
<path d="M2350 3072 c0 -7 -7 -12 -15 -12 -8 0 -15 -4 -15 -10 0 -13 37 -13
46 1 3 6 1 16 -5 22 -8 8 -11 8 -11 -1z"/>
<path d="M2440 3020 c0 -33 -4 -60 -10 -60 -5 0 -10 -4 -10 -9 0 -4 10 -6 23
-4 20 4 22 10 22 69 0 44 -4 64 -12 64 -9 0 -13 -19 -13 -60z"/>
<path d="M3000 3035 c0 -5 5 -17 10 -25 5 -8 10 -10 10 -5 0 6 -5 17 -10 25
-5 8 -10 11 -10 5z"/>
<path d="M2780 3019 c0 -19 64 -79 83 -79 7 1 0 7 -14 15 -15 8 -36 29 -48 47
-13 21 -21 27 -21 17z"/>
<path d="M3021 2980 c1 -8 5 -26 9 -40 l8 -25 1 25 c0 14 -4 32 -9 40 -9 13
-10 13 -9 0z"/>
<path d="M8478 2843 c7 -3 16 -2 19 1 4 3 -2 6 -13 5 -11 0 -14 -3 -6 -6z"/>
<path d="M1922 2410 c0 -14 2 -19 5 -12 2 6 2 18 0 25 -3 6 -5 1 -5 -13z"/>
<path d="M1980 2411 c0 -5 5 -13 10 -16 6 -3 10 -2 10 4 0 5 -4 13 -10 16 -5
3 -10 2 -10 -4z"/>
<path d="M2041 2404 c0 -11 3 -14 6 -6 3 7 2 16 -1 19 -3 4 -6 -2 -5 -13z"/>
<path d="M2072 2400 c0 -14 2 -19 5 -12 2 6 2 18 0 25 -3 6 -5 1 -5 -13z"/>
<path d="M2191 2404 c0 -11 3 -14 6 -6 3 7 2 16 -1 19 -3 4 -6 -2 -5 -13z"/>
<path d="M3965 2410 c-3 -5 -1 -10 4 -10 6 0 11 5 11 10 0 6 -2 10 -4 10 -3 0
-8 -4 -11 -10z"/>
<path d="M4121 2404 c0 -11 3 -14 6 -6 3 7 2 16 -1 19 -3 4 -6 -2 -5 -13z"/>
<path d="M4611 2404 c0 -11 3 -14 6 -6 3 7 2 16 -1 19 -3 4 -6 -2 -5 -13z"/>
<path d="M5813 2413 c-7 -3 -13 -11 -13 -20 0 -12 2 -12 16 2 18 17 16 25 -3
18z"/>
<path d="M5845 2409 c-4 -6 -5 -12 -2 -15 2 -3 7 2 10 11 7 17 1 20 -8 4z"/>
<path d="M5900 2410 c0 -5 5 -10 10 -10 6 0 10 5 10 10 0 6 -4 10 -10 10 -5 0
-10 -4 -10 -10z"/>
<path d="M6000 2408 c0 -5 -9 -6 -20 -3 -14 4 -20 2 -20 -9 0 -11 6 -13 28 -7
15 4 33 6 40 4 6 -3 12 0 12 5 0 5 -9 12 -20 15 -11 3 -20 1 -20 -5z"/>
<path d="M6280 2404 c0 -14 3 -15 18 -3 9 7 19 15 21 16 2 2 -5 3 -17 3 -14 0
-22 -6 -22 -16z"/>
<path d="M7320 2405 c0 -9 9 -15 23 -14 12 0 16 3 9 6 -6 2 -10 9 -6 14 3 5
-2 9 -10 9 -9 0 -16 -7 -16 -15z"/>
<path d="M7505 2410 c-3 -5 -1 -10 4 -10 6 0 11 5 11 10 0 6 -2 10 -4 10 -3 0
-8 -4 -11 -10z"/>
<path d="M7552 2408 c5 -15 28 -23 28 -10 0 5 -7 13 -16 16 -10 4 -14 1 -12
-6z"/>
<path d="M7607 2404 c4 -10 8 -12 13 -4 4 6 15 8 25 4 13 -5 16 -4 11 4 -4 7
-18 12 -31 12 -18 0 -23 -4 -18 -16z"/>
<path d="M7670 2406 c0 -12 11 -16 45 -16 25 0 45 4 45 9 0 5 -10 8 -22 8 -13
-1 -33 2 -45 7 -18 5 -23 4 -23 -8z"/>
<path d="M4180 2399 c0 -5 5 -7 10 -4 6 3 10 8 10 11 0 2 -4 4 -10 4 -5 0 -10
-5 -10 -11z"/>
<path d="M4300 2400 c0 -5 5 -10 11 -10 5 0 7 5 4 10 -3 6 -8 10 -11 10 -2 0
-4 -4 -4 -10z"/>
<path d="M4748 2403 c7 -3 16 -2 19 1 4 3 -2 6 -13 5 -11 0 -14 -3 -6 -6z"/>
<path d="M5870 2399 c0 -5 5 -7 10 -4 6 3 10 8 10 11 0 2 -4 4 -10 4 -5 0 -10
-5 -10 -11z"/>
<path d="M7445 2400 c-3 -6 1 -7 9 -4 18 7 21 14 7 14 -6 0 -13 -4 -16 -10z"/>
<path d="M7800 2400 c0 -5 5 -10 11 -10 5 0 7 5 4 10 -3 6 -8 10 -11 10 -2 0
-4 -4 -4 -10z"/>
<path d="M8195 2400 c3 -5 8 -10 11 -10 2 0 4 5 4 10 0 6 -5 10 -11 10 -5 0
-7 -4 -4 -10z"/>
<path d="M8430 2400 c0 -5 5 -10 10 -10 6 0 10 5 10 10 0 6 -4 10 -10 10 -5 0
-10 -4 -10 -10z"/>
<path d="M8460 2400 c0 -5 7 -10 15 -10 8 0 15 5 15 10 0 6 -7 10 -15 10 -8 0
-15 -4 -15 -10z"/>
<path d="M8500 2400 c0 -5 5 -10 10 -10 6 0 10 5 10 10 0 6 -4 10 -10 10 -5 0
-10 -4 -10 -10z"/>
<path d="M8600 2400 c0 -5 5 -10 10 -10 6 0 10 5 10 10 0 6 -4 10 -10 10 -5 0
-10 -4 -10 -10z"/>
<path d="M7838 2393 c6 -2 18 -2 25 0 6 3 1 5 -13 5 -14 0 -19 -2 -12 -5z"/>
<path d="M1663 2280 c0 -25 2 -35 4 -22 2 12 2 32 0 45 -2 12 -4 2 -4 -23z"/>
<path d="M6282 2300 c0 -14 2 -19 5 -12 2 6 2 18 0 25 -3 6 -5 1 -5 -13z"/>
<path d="M7597 2313 c-13 -12 -7 -23 11 -22 10 0 12 3 4 6 -6 2 -10 9 -6 14 6
10 0 12 -9 2z"/>
<path d="M2122 2290 c0 -14 2 -19 5 -12 2 6 2 18 0 25 -3 6 -5 1 -5 -13z"/>
<path d="M3671 2293 c-1 -12 4 -25 9 -28 12 -7 12 2 0 30 -8 19 -9 19 -9 -2z"/>
<path d="M3701 2294 c0 -11 3 -14 6 -6 3 7 2 16 -1 19 -3 4 -6 -2 -5 -13z"/>
<path d="M5647 2303 c-10 -9 -9 -33 1 -33 4 0 8 9 9 20 2 21 0 24 -10 13z"/>
<path d="M6055 2300 c3 -5 8 -10 11 -10 2 0 4 5 4 10 0 6 -5 10 -11 10 -5 0
-7 -4 -4 -10z"/>
<path d="M7352 2301 c-11 -7 -11 -9 2 -14 10 -4 16 -1 16 8 0 17 -1 17 -18 6z"/>
<path d="M7450 2299 c-24 -7 -24 -7 6 -8 16 -1 34 -5 40 -11 6 -6 10 -3 10 9
0 20 -12 22 -56 10z"/>
<path d="M7702 2290 c0 -14 2 -19 5 -12 2 6 2 18 0 25 -3 6 -5 1 -5 -13z"/>
<path d="M1962 2280 c0 -14 2 -19 5 -12 2 6 2 18 0 25 -3 6 -5 1 -5 -13z"/>
<path d="M2032 2280 c0 -14 2 -19 5 -12 2 6 2 18 0 25 -3 6 -5 1 -5 -13z"/>
<path d="M2671 2284 c0 -11 3 -14 6 -6 3 7 2 16 -1 19 -3 4 -6 -2 -5 -13z"/>
<path d="M3341 2284 c0 -11 3 -14 6 -6 3 7 2 16 -1 19 -3 4 -6 -2 -5 -13z"/>
<path d="M5491 2284 c0 -11 3 -14 6 -6 3 7 2 16 -1 19 -3 4 -6 -2 -5 -13z"/>
<path d="M5521 2284 c0 -11 3 -14 6 -6 3 7 2 16 -1 19 -3 4 -6 -2 -5 -13z"/>
<path d="M6421 2284 c0 -11 3 -14 6 -6 3 7 2 16 -1 19 -3 4 -6 -2 -5 -13z"/>
<path d="M7201 2284 c0 -11 3 -14 6 -6 3 7 2 16 -1 19 -3 4 -6 -2 -5 -13z"/>
<path d="M7661 2284 c0 -11 3 -14 6 -6 3 7 2 16 -1 19 -3 4 -6 -2 -5 -13z"/>
<path d="M1931 2274 c0 -11 3 -14 6 -6 3 7 2 16 -1 19 -3 4 -6 -2 -5 -13z"/>
<path d="M7560 2280 c-9 -6 -10 -10 -3 -10 6 0 15 5 18 10 8 12 4 12 -15 0z"/>
<path d="M8568 2283 c7 -3 16 -2 19 1 4 3 -2 6 -13 5 -11 0 -14 -3 -6 -6z"/>
<path d="M1922 2180 c0 -14 2 -19 5 -12 2 6 2 18 0 25 -3 6 -5 1 -5 -13z"/>
<path d="M1942 2180 c0 -14 2 -19 5 -12 2 6 2 18 0 25 -3 6 -5 1 -5 -13z"/>
<path d="M2161 2184 c0 -11 3 -14 6 -6 3 7 2 16 -1 19 -3 4 -6 -2 -5 -13z"/>
<path d="M2581 2184 c0 -11 3 -14 6 -6 3 7 2 16 -1 19 -3 4 -6 -2 -5 -13z"/>
<path d="M4242 2180 c0 -14 2 -19 5 -12 2 6 2 18 0 25 -3 6 -5 1 -5 -13z"/>
<path d="M4740 2180 c0 -11 4 -20 9 -20 5 0 7 9 4 20 -3 11 -7 20 -9 20 -2 0
-4 -9 -4 -20z"/>
<path d="M6042 2180 c0 -14 2 -19 5 -12 2 6 2 18 0 25 -3 6 -5 1 -5 -13z"/>
<path d="M7412 2180 c0 -14 2 -19 5 -12 2 6 2 18 0 25 -3 6 -5 1 -5 -13z"/>
<path d="M7600 2192 c-8 -3 -18 -10 -22 -16 -6 -8 -8 -8 -8 0 0 14 -30 14 -30
0 0 -6 -5 -4 -10 4 -8 13 -10 12 -10 -2 0 -14 8 -18 34 -18 19 0 38 5 41 10 3
6 11 10 16 10 6 0 7 -6 3 -12 -5 -9 -2 -9 9 1 29 23 17 36 -23 23z"/>
<path d="M7662 2180 c0 -14 2 -19 5 -12 2 6 2 18 0 25 -3 6 -5 1 -5 -13z"/>
<path d="M7734 2189 c-3 -6 -1 -16 5 -22 8 -8 11 -5 11 11 0 24 -5 28 -16 11z"/>
<path d="M7847 2180 c-3 -11 -1 -20 4 -20 5 0 9 9 9 20 0 11 -2 20 -4 20 -2 0
-6 -9 -9 -20z"/>
<path d="M7912 2180 c-7 -11 -8 -20 -3 -20 9 0 24 30 18 36 -1 2 -8 -6 -15
-16z"/>
<path d="M7952 2180 c0 -14 2 -19 5 -12 2 6 2 18 0 25 -3 6 -5 1 -5 -13z"/>
<path d="M8287 2193 c-10 -9 -9 -33 1 -33 4 0 8 9 9 20 2 21 0 24 -10 13z"/>
<path d="M8342 2180 c0 -14 2 -19 5 -12 2 6 2 18 0 25 -3 6 -5 1 -5 -13z"/>
<path d="M8401 2184 c0 -11 3 -14 6 -6 3 7 2 16 -1 19 -3 4 -6 -2 -5 -13z"/>
<path d="M8640 2191 c0 -6 -6 -8 -14 -5 -7 3 -16 -2 -19 -10 -4 -9 -2 -16 3
-16 6 0 10 5 10 11 0 8 6 7 17 -2 9 -8 14 -9 10 -2 -4 6 -2 13 5 15 9 3 9 6 0
12 -7 4 -12 3 -12 -3z"/>
<path d="M2007 2184 c-4 -4 -7 -14 -7 -23 0 -11 3 -12 11 -4 6 6 10 16 7 23
-2 6 -7 8 -11 4z"/>
<path d="M2062 2170 c0 -14 2 -19 5 -12 2 6 2 18 0 25 -3 6 -5 1 -5 -13z"/>
<path d="M2090 2175 c0 -8 5 -15 10 -15 6 0 10 7 10 15 0 8 -4 15 -10 15 -5 0
-10 -7 -10 -15z"/>
<path d="M2121 2174 c0 -11 3 -14 6 -6 3 7 2 16 -1 19 -3 4 -6 -2 -5 -13z"/>
<path d="M2141 2174 c0 -11 3 -14 6 -6 3 7 2 16 -1 19 -3 4 -6 -2 -5 -13z"/>
<path d="M2191 2174 c0 -11 3 -14 6 -6 3 7 2 16 -1 19 -3 4 -6 -2 -5 -13z"/>
<path d="M2211 2174 c0 -11 3 -14 6 -6 3 7 2 16 -1 19 -3 4 -6 -2 -5 -13z"/>
<path d="M2291 2174 c0 -11 3 -14 6 -6 3 7 2 16 -1 19 -3 4 -6 -2 -5 -13z"/>
<path d="M2320 2175 c0 -9 9 -15 25 -15 14 0 25 5 25 12 0 6 -3 8 -6 5 -4 -3
-15 -2 -25 4 -15 7 -19 6 -19 -6z"/>
<path d="M2400 2180 c-7 -5 2 -9 24 -12 20 -2 36 0 36 4 0 4 -3 8 -7 9 -5 0
-15 2 -24 4 -9 1 -22 -1 -29 -5z"/>
<path d="M2801 2174 c0 -11 3 -14 6 -6 3 7 2 16 -1 19 -3 4 -6 -2 -5 -13z"/>
<path d="M2850 2177 c0 -10 8 -17 18 -17 9 0 13 4 7 8 -5 4 -13 11 -17 16 -5
5 -8 2 -8 -7z"/>
<path d="M2995 2179 c-4 -6 -5 -12 -2 -15 2 -3 7 2 10 11 7 17 1 20 -8 4z"/>
<path d="M3171 2174 c0 -11 3 -14 6 -6 3 7 2 16 -1 19 -3 4 -6 -2 -5 -13z"/>
<path d="M3241 2174 c0 -11 3 -14 6 -6 3 7 2 16 -1 19 -3 4 -6 -2 -5 -13z"/>
<path d="M3301 2174 c0 -11 3 -14 6 -6 3 7 2 16 -1 19 -3 4 -6 -2 -5 -13z"/>
<path d="M3331 2174 c0 -11 3 -14 6 -6 3 7 2 16 -1 19 -3 4 -6 -2 -5 -13z"/>
<path d="M3356 2175 c-3 -8 -1 -15 4 -15 6 0 10 7 10 15 0 8 -2 15 -4 15 -2 0
-6 -7 -10 -15z"/>
<path d="M3381 2174 c0 -11 3 -14 6 -6 3 7 2 16 -1 19 -3 4 -6 -2 -5 -13z"/>
<path d="M3682 2170 c0 -14 2 -19 5 -12 2 6 2 18 0 25 -3 6 -5 1 -5 -13z"/>
<path d="M3711 2174 c0 -11 3 -14 6 -6 3 7 2 16 -1 19 -3 4 -6 -2 -5 -13z"/>
<path d="M3851 2174 c0 -11 3 -14 6 -6 3 7 2 16 -1 19 -3 4 -6 -2 -5 -13z"/>
<path d="M3881 2174 c0 -11 3 -14 6 -6 3 7 2 16 -1 19 -3 4 -6 -2 -5 -13z"/>
<path d="M3971 2174 c0 -11 3 -14 6 -6 3 7 2 16 -1 19 -3 4 -6 -2 -5 -13z"/>
<path d="M4091 2174 c0 -11 3 -14 6 -6 3 7 2 16 -1 19 -3 4 -6 -2 -5 -13z"/>
<path d="M4141 2174 c0 -11 3 -14 6 -6 3 7 2 16 -1 19 -3 4 -6 -2 -5 -13z"/>
<path d="M4171 2174 c0 -11 3 -14 6 -6 3 7 2 16 -1 19 -3 4 -6 -2 -5 -13z"/>
<path d="M4211 2174 c0 -11 3 -14 6 -6 3 7 2 16 -1 19 -3 4 -6 -2 -5 -13z"/>
<path d="M4300 2180 c-9 -6 -10 -10 -3 -10 6 0 15 5 18 10 8 12 4 12 -15 0z"/>
<path d="M4471 2174 c0 -11 3 -14 6 -6 3 7 2 16 -1 19 -3 4 -6 -2 -5 -13z"/>
<path d="M4605 2180 c-3 -5 -1 -10 4 -10 6 0 11 5 11 10 0 6 -2 10 -4 10 -3 0
-8 -4 -11 -10z"/>
<path d="M4631 2174 c0 -11 3 -14 6 -6 3 7 2 16 -1 19 -3 4 -6 -2 -5 -13z"/>
<path d="M4711 2174 c0 -11 3 -14 6 -6 3 7 2 16 -1 19 -3 4 -6 -2 -5 -13z"/>
<path d="M4861 2174 c0 -11 3 -14 6 -6 3 7 2 16 -1 19 -3 4 -6 -2 -5 -13z"/>
<path d="M5017 2169 c4 -13 8 -18 11 -10 2 7 -1 18 -6 23 -8 8 -9 4 -5 -13z"/>
<path d="M5640 2179 c0 -5 20 -8 45 -7 25 1 45 5 45 8 0 4 -20 7 -45 7 -25 0
-45 -3 -45 -8z"/>
<path d="M5770 2180 c0 -6 7 -10 15 -10 8 0 15 2 15 4 0 2 -7 6 -15 10 -8 3
-15 1 -15 -4z"/>
<path d="M5911 2174 c0 -11 3 -14 6 -6 3 7 2 16 -1 19 -3 4 -6 -2 -5 -13z"/>
<path d="M5981 2177 c-1 -21 21 -18 27 4 3 12 2 12 -6 0 -8 -11 -10 -11 -15 0
-4 10 -6 8 -6 -4z"/>
<path d="M6088 2178 c-5 -13 1 -16 33 -15 21 1 39 5 39 10 0 4 -4 5 -10 2 -5
-3 -10 -1 -10 5 0 7 -6 8 -19 0 -14 -7 -21 -6 -23 2 -3 8 -7 6 -10 -4z"/>
<path d="M6171 2178 c-1 -10 6 -18 14 -18 8 0 15 8 15 18 0 13 -2 14 -9 3 -7
-11 -9 -11 -14 0 -4 10 -6 9 -6 -3z"/>
<path d="M6371 2174 c0 -11 3 -14 6 -6 3 7 2 16 -1 19 -3 4 -6 -2 -5 -13z"/>
<path d="M6411 2174 c0 -11 3 -14 6 -6 3 7 2 16 -1 19 -3 4 -6 -2 -5 -13z"/>
<path d="M6437 2183 c-10 -9 -9 -23 1 -23 5 0 9 7 9 15 0 17 -1 18 -10 8z"/>
<path d="M6471 2174 c0 -11 3 -14 6 -6 3 7 2 16 -1 19 -3 4 -6 -2 -5 -13z"/>
<path d="M6501 2174 c0 -11 3 -14 6 -6 3 7 2 16 -1 19 -3 4 -6 -2 -5 -13z"/>
<path d="M7181 2174 c0 -11 3 -14 6 -6 3 7 2 16 -1 19 -3 4 -6 -2 -5 -13z"/>
<path d="M7340 2182 c0 -6 -8 -8 -19 -5 -10 3 -22 0 -25 -6 -5 -7 5 -11 28
-11 35 0 47 12 26 25 -5 3 -10 2 -10 -3z"/>
<path d="M7371 2174 c0 -11 3 -14 6 -6 3 7 2 16 -1 19 -3 4 -6 -2 -5 -13z"/>
<path d="M7471 2174 c0 -11 3 -14 6 -6 3 7 2 16 -1 19 -3 4 -6 -2 -5 -13z"/>
<path d="M7491 2174 c0 -11 3 -14 6 -6 3 7 2 16 -1 19 -3 4 -6 -2 -5 -13z"/>
<path d="M7761 2174 c0 -11 3 -14 6 -6 3 7 2 16 -1 19 -3 4 -6 -2 -5 -13z"/>
<path d="M7881 2174 c0 -11 3 -14 6 -6 3 7 2 16 -1 19 -3 4 -6 -2 -5 -13z"/>
<path d="M7997 2183 c-10 -9 -9 -23 1 -23 5 0 9 7 9 15 0 17 -1 18 -10 8z"/>
<path d="M8233 2175 c0 -8 4 -12 9 -9 5 3 6 10 3 15 -9 13 -12 11 -12 -6z"/>
<path d="M8310 2175 c0 -8 4 -15 10 -15 5 0 7 7 4 15 -4 8 -8 15 -10 15 -2 0
-4 -7 -4 -15z"/>
<path d="M8361 2174 c0 -11 3 -14 6 -6 3 7 2 16 -1 19 -3 4 -6 -2 -5 -13z"/>
<path d="M8420 2173 c0 -14 2 -15 9 -4 7 11 10 11 14 -3 5 -15 5 -15 3 0 -2
24 -26 30 -26 7z"/>
<path d="M8496 2175 c-9 -26 -7 -32 5 -12 6 10 9 21 6 23 -2 3 -7 -2 -11 -11z"/>
<path d="M8525 2181 c-3 -5 -1 -12 5 -16 5 -3 10 1 10 9 0 18 -6 21 -15 7z"/>
<path d="M8556 2173 c-6 -14 -5 -15 5 -6 7 7 10 15 7 18 -3 3 -9 -2 -12 -12z"/>
<path d="M2030 2170 c0 -5 5 -10 10 -10 6 0 10 5 10 10 0 6 -4 10 -10 10 -5 0
-10 -4 -10 -10z"/>
<path d="M3097 2169 c7 -7 15 -10 18 -7 3 3 -2 9 -12 12 -14 6 -15 5 -6 -5z"/>
<path d="M4060 2170 c0 -5 5 -10 11 -10 5 0 7 5 4 10 -3 6 -8 10 -11 10 -2 0
-4 -4 -4 -10z"/>
<path d="M5880 2170 c0 -5 5 -10 11 -10 5 0 7 5 4 10 -3 6 -8 10 -11 10 -2 0
-4 -4 -4 -10z"/>
<path d="M6538 2173 c-10 -2 -18 -8 -18 -13 0 -10 38 -1 46 11 5 9 1 10 -28 2z"/>
<path d="M6860 2170 c0 -5 5 -10 10 -10 6 0 10 5 10 10 0 6 -4 10 -10 10 -5 0
-10 -4 -10 -10z"/>
<path d="M6900 2169 c0 -5 5 -7 10 -4 6 3 10 8 10 11 0 2 -4 4 -10 4 -5 0 -10
-5 -10 -11z"/>
<path d="M7245 2170 c-3 -5 -1 -10 4 -10 6 0 11 5 11 10 0 6 -2 10 -4 10 -3 0
-8 -4 -11 -10z"/>
<path d="M7430 2170 c0 -5 5 -10 11 -10 5 0 7 5 4 10 -3 6 -8 10 -11 10 -2 0
-4 -4 -4 -10z"/>
<path d="M4948 2153 c7 -3 16 -2 19 1 4 3 -2 6 -13 5 -11 0 -14 -3 -6 -6z"/>
<path d="M1911 2074 c0 -11 3 -14 6 -6 3 7 2 16 -1 19 -3 4 -6 -2 -5 -13z"/>
<path d="M7402 2070 c0 -14 2 -19 5 -12 2 6 2 18 0 25 -3 6 -5 1 -5 -13z"/>
<path d="M8401 2074 c0 -11 3 -14 6 -6 3 7 2 16 -1 19 -3 4 -6 -2 -5 -13z"/>
<path d="M8560 2074 c0 -14 3 -14 15 -4 8 7 15 14 15 16 0 2 -7 4 -15 4 -8 0
-15 -7 -15 -16z"/>
<path d="M8610 2080 c0 -5 7 -7 15 -4 8 4 15 8 15 10 0 2 -7 4 -15 4 -8 0 -15
-4 -15 -10z"/>
<path d="M7471 2064 c0 -11 3 -14 6 -6 3 7 2 16 -1 19 -3 4 -6 -2 -5 -13z"/>
<path d="M7521 2064 c0 -11 3 -14 6 -6 3 7 2 16 -1 19 -3 4 -6 -2 -5 -13z"/>
<path d="M7550 2065 c0 -8 2 -15 4 -15 2 0 6 7 10 15 3 8 1 15 -4 15 -6 0 -10
-7 -10 -15z"/>
<path d="M7608 2073 c7 -3 16 -2 19 1 4 3 -2 6 -13 5 -11 0 -14 -3 -6 -6z"/>
<path d="M1953 1955 c0 -8 4 -12 9 -9 4 3 8 9 8 15 0 5 -4 9 -8 9 -5 0 -9 -7
-9 -15z"/>
<path d="M2020 1962 c0 -4 9 -8 20 -8 11 0 20 4 20 8 0 4 -9 8 -20 8 -11 0
-20 -4 -20 -8z"/>
<path d="M2087 1963 c-13 -13 -7 -19 18 -18 14 1 31 7 37 13 9 9 5 12 -18 12
-17 0 -34 -3 -37 -7z"/>
<path d="M2156 1953 c-6 -14 -5 -15 5 -6 7 7 10 15 7 18 -3 3 -9 -2 -12 -12z"/>
<path d="M2180 1954 c0 -8 5 -12 10 -9 6 4 8 11 5 16 -9 14 -15 11 -15 -7z"/>
<path d="M2210 1954 c0 -8 5 -12 10 -9 6 3 10 10 10 16 0 5 -4 9 -10 9 -5 0
-10 -7 -10 -16z"/>
<path d="M2240 1955 c0 -8 2 -15 4 -15 2 0 6 7 10 15 3 8 1 15 -4 15 -6 0 -10
-7 -10 -15z"/>
<path d="M2266 1953 c-6 -14 -5 -15 5 -6 7 7 10 15 7 18 -3 3 -9 -2 -12 -12z"/>
<path d="M3771 1954 c6 -8 16 -11 21 -8 6 4 14 0 19 -7 5 -9 9 -10 9 -2 0 7
13 10 35 9 24 -2 35 1 35 10 0 10 -17 14 -65 13 -55 -1 -64 -4 -54 -15z"/>
<path d="M3994 1959 c-3 -6 -1 -16 5 -22 8 -8 11 -5 11 11 0 24 -5 28 -16 11z"/>
<path d="M4026 1955 c4 -8 8 -15 10 -15 2 0 4 7 4 15 0 8 -4 15 -10 15 -5 0
-7 -7 -4 -15z"/>
<path d="M4056 1955 c4 -8 8 -15 10 -15 2 0 4 7 4 15 0 8 -4 15 -10 15 -5 0
-7 -7 -4 -15z"/>
<path d="M4143 1960 c-30 -12 -29 -17 2 -17 15 0 25 5 25 13 0 8 -1 14 -2 13
-2 0 -13 -4 -25 -9z"/>
<path d="M4400 1954 c0 -8 5 -12 10 -9 6 3 10 10 10 16 0 5 -4 9 -10 9 -5 0
-10 -7 -10 -16z"/>
<path d="M5431 1954 c0 -11 3 -14 6 -6 3 7 2 16 -1 19 -3 4 -6 -2 -5 -13z"/>
<path d="M5481 1954 c0 -11 3 -14 6 -6 3 7 2 16 -1 19 -3 4 -6 -2 -5 -13z"/>
<path d="M5503 1955 c0 -12 3 -12 16 -3 9 7 18 14 20 15 2 2 -5 3 -16 3 -11 0
-20 -7 -20 -15z"/>
<path d="M5550 1953 c0 -11 3 -14 8 -7 4 6 14 14 22 17 10 4 8 6 -7 6 -16 1
-23 -5 -23 -16z"/>
<path d="M5600 1948 c0 -14 3 -18 8 -12 4 7 25 10 50 8 29 -2 42 1 42 10 0 8
-17 13 -50 15 -46 1 -50 -1 -50 -21z"/>
<path d="M5711 1954 c0 -11 3 -14 6 -6 3 7 2 16 -1 19 -3 4 -6 -2 -5 -13z"/>
<path d="M5745 1959 c-23 -9 -21 -10 18 -13 15 -1 27 3 27 10 0 12 -18 14 -45
3z"/>
<path d="M5826 1963 c-11 -11 -6 -19 13 -20 11 -1 22 4 24 11 5 12 -26 20 -37
9z"/>
<path d="M5907 1963 c-4 -3 -7 -11 -7 -17 0 -6 5 -5 12 2 6 6 9 14 7 17 -3 3
-9 2 -12 -2z"/>
<path d="M5930 1955 c0 -9 6 -12 15 -9 8 4 15 7 15 9 0 2 -7 5 -15 9 -9 3 -15
0 -15 -9z"/>
<path d="M5986 1961 c-4 -7 -5 -15 -2 -18 9 -9 19 4 14 18 -4 11 -6 11 -12 0z"/>
<path d="M6020 1954 c0 -8 5 -12 10 -9 6 4 8 11 5 16 -9 14 -15 11 -15 -7z"/>
<path d="M6080 1960 c0 -5 5 -10 10 -10 6 0 10 5 10 10 0 6 -4 10 -10 10 -5 0
-10 -4 -10 -10z"/>
<path d="M6115 1960 c-3 -5 -1 -10 4 -10 6 0 11 5 11 10 0 6 -2 10 -4 10 -3 0
-8 -4 -11 -10z"/>
<path d="M6141 1954 c0 -11 3 -14 6 -6 3 7 2 16 -1 19 -3 4 -6 -2 -5 -13z"/>
<path d="M6341 1954 c0 -11 3 -14 6 -6 3 7 2 16 -1 19 -3 4 -6 -2 -5 -13z"/>
<path d="M6360 1954 c0 -10 6 -13 18 -10 9 3 50 7 89 8 104 4 90 18 -17 18
-75 0 -90 -3 -90 -16z"/>
<path d="M6550 1961 c0 -15 18 -23 25 -12 3 6 12 8 20 4 8 -3 15 0 15 6 0 6
-13 11 -30 11 -16 0 -30 -4 -30 -9z"/>
<path d="M6620 1960 c0 -5 7 -10 15 -10 8 0 15 5 15 10 0 6 -7 10 -15 10 -8 0
-15 -4 -15 -10z"/>
<path d="M6660 1960 c0 -5 5 -10 11 -10 5 0 7 5 4 10 -3 6 -8 10 -11 10 -2 0
-4 -4 -4 -10z"/>
<path d="M6690 1960 c0 -13 18 -22 24 -11 3 5 -1 11 -9 15 -8 3 -15 1 -15 -4z"/>
<path d="M6740 1963 c0 -4 20 -8 44 -9 25 0 43 2 41 6 -6 9 -85 12 -85 3z"/>
<path d="M7213 1962 c-18 -2 -33 -9 -33 -15 0 -8 25 -12 80 -12 44 0 80 3 80
6 0 10 34 5 43 -6 6 -6 10 -5 14 4 5 11 7 11 15 0 8 -11 11 -11 15 -1 4 10 8
10 19 1 11 -9 14 -9 14 1 0 9 3 10 13 1 10 -8 17 -7 25 1 9 9 12 9 12 -1 0
-10 3 -11 13 -2 8 6 16 8 19 6 9 -10 78 -12 78 -3 0 5 5 6 11 2 19 -11 260
-11 256 1 -2 6 -86 11 -228 14 -123 1 -267 4 -319 5 -52 1 -110 0 -127 -2z"/>
<path d="M8643 1963 c3 -5 -19 -6 -49 -5 -34 3 -54 0 -54 -7 0 -6 -8 -11 -17
-11 -14 0 -15 2 -5 9 7 4 -79 8 -192 8 -114 1 -206 -3 -206 -8 0 -11 -20 -10
235 -15 244 -5 305 0 305 22 0 8 -5 14 -11 14 -5 0 -8 -3 -6 -7z"/>
<path d="M2370 1952 c0 -4 9 -8 20 -8 11 0 20 4 20 8 0 4 -9 8 -20 8 -11 0
-20 -4 -20 -8z"/>
<path d="M3260 1951 c0 -5 16 -9 35 -8 46 3 46 17 0 17 -19 0 -35 -4 -35 -9z"/>
<path d="M3672 1949 c5 -15 48 -18 48 -4 0 6 -11 11 -26 13 -18 3 -25 -1 -22
-9z"/>
<path d="M3900 1950 c0 -5 5 -10 10 -10 6 0 10 5 10 10 0 6 -4 10 -10 10 -5 0
-10 -4 -10 -10z"/>
<path d="M3930 1950 c0 -5 5 -10 10 -10 6 0 10 5 10 10 0 6 -4 10 -10 10 -5 0
-10 -4 -10 -10z"/>
<path d="M3960 1950 c0 -5 5 -10 10 -10 6 0 10 5 10 10 0 6 -4 10 -10 10 -5 0
-10 -4 -10 -10z"/>
<path d="M4215 1950 c4 -6 11 -8 16 -5 14 9 11 15 -7 15 -8 0 -12 -5 -9 -10z"/>
<path d="M4300 1950 c0 -5 5 -10 11 -10 5 0 7 5 4 10 -3 6 -8 10 -11 10 -2 0
-4 -4 -4 -10z"/>
<path d="M4640 1950 c0 -5 7 -7 15 -4 8 4 15 8 15 10 0 2 -7 4 -15 4 -8 0 -15
-4 -15 -10z"/>
<path d="M6168 1953 c7 -3 16 -2 19 1 4 3 -2 6 -13 5 -11 0 -14 -3 -6 -6z"/>
<path d="M7913 1953 c-20 -7 -15 -19 7 -20 11 -1 20 2 20 7 0 12 -13 18 -27
13z"/>
<path d="M7964 1951 c-13 -14 1 -21 36 -19 50 4 53 25 4 24 -19 -1 -37 -3 -40
-5z"/>
<path d="M8055 1950 c-3 -5 1 -10 9 -10 9 0 16 5 16 10 0 6 -4 10 -9 10 -6 0
-13 -4 -16 -10z"/>
<path d="M7777 1865 c-4 -8 -2 -17 3 -20 6 -4 10 3 10 14 0 25 -6 27 -13 6z"/>
<path d="M7810 1861 c0 -11 4 -22 9 -25 4 -3 6 6 3 19 -5 30 -12 33 -12 6z"/>
<path d="M8382 1860 c0 -14 2 -19 5 -12 2 6 2 18 0 25 -3 6 -5 1 -5 -13z"/>
<path d="M8511 1864 c0 -11 3 -14 6 -6 3 7 2 16 -1 19 -3 4 -6 -2 -5 -13z"/>
<path d="M2721 1854 c0 -11 3 -14 6 -6 3 7 2 16 -1 19 -3 4 -6 -2 -5 -13z"/>
<path d="M2761 1854 c0 -11 3 -14 6 -6 3 7 2 16 -1 19 -3 4 -6 -2 -5 -13z"/>
<path d="M3321 1854 c0 -11 3 -14 6 -6 3 7 2 16 -1 19 -3 4 -6 -2 -5 -13z"/>
<path d="M5790 1863 c0 -5 5 -15 10 -23 8 -12 10 -11 10 8 0 12 -4 22 -10 22
-5 0 -10 -3 -10 -7z"/>
<path d="M5840 1855 c0 -11 11 -15 39 -15 25 0 41 5 45 15 3 8 1 15 -3 15 -5
0 -12 -6 -14 -12 -4 -10 -6 -10 -6 0 -1 18 -61 16 -61 -3z"/>
<path d="M5940 1859 c0 -6 4 -8 9 -4 5 3 12 1 16 -4 3 -6 12 -8 20 -4 25 9 17
20 -15 21 -16 0 -30 -4 -30 -9z"/>
<path d="M6020 1859 c0 -5 5 -7 10 -4 6 3 10 8 10 11 0 2 -4 4 -10 4 -5 0 -10
-5 -10 -11z"/>
<path d="M6100 1860 c0 -5 5 -10 11 -10 5 0 7 5 4 10 -3 6 -8 10 -11 10 -2 0
-4 -4 -4 -10z"/>
<path d="M6160 1860 c0 -5 5 -10 11 -10 5 0 7 5 4 10 -3 6 -8 10 -11 10 -2 0
-4 -4 -4 -10z"/>
<path d="M6310 1854 c0 -8 5 -12 10 -9 6 3 10 10 10 16 0 5 -4 9 -10 9 -5 0
-10 -7 -10 -16z"/>
<path d="M7180 1860 c0 -5 5 -10 11 -10 5 0 7 5 4 10 -3 6 -8 10 -11 10 -2 0
-4 -4 -4 -10z"/>
<path d="M7329 1857 c6 -8 7 -17 3 -22 -4 -4 3 -1 15 6 21 12 21 14 5 21 -27
11 -35 9 -23 -5z"/>
<path d="M7380 1851 c0 -25 6 -27 13 -6 4 8 2 17 -3 20 -6 4 -10 -3 -10 -14z"/>
<path d="M7412 1858 c-17 -17 -15 -27 6 -24 9 2 16 6 15 10 -6 23 -9 26 -21
14z"/>
<path d="M7456 1861 c-3 -5 1 -11 9 -15 9 -3 15 0 15 9 0 16 -16 20 -24 6z"/>
<path d="M7500 1846 c0 -17 2 -18 10 -6 9 13 11 13 20 0 6 -9 10 -10 10 -3 0
8 13 11 35 9 24 -1 35 2 35 11 0 9 -16 13 -55 12 -49 -1 -55 -4 -55 -23z"/>
<path d="M7640 1854 c0 -13 3 -14 14 -5 11 9 15 9 18 -1 3 -8 7 -6 11 5 5 13
1 17 -18 17 -16 0 -25 -6 -25 -16z"/>
<path d="M7700 1863 c0 -5 11 -8 25 -8 14 0 25 3 25 8 0 4 -11 7 -25 7 -14 0
-25 -3 -25 -7z"/>
<path d="M7840 1859 c0 -5 5 -7 10 -4 6 3 10 8 10 11 0 2 -4 4 -10 4 -5 0 -10
-5 -10 -11z"/>
<path d="M7870 1859 c0 -5 5 -7 10 -4 6 3 10 8 10 11 0 2 -4 4 -10 4 -5 0 -10
-5 -10 -11z"/>
<path d="M7961 1854 c0 -11 3 -14 6 -6 3 7 2 16 -1 19 -3 4 -6 -2 -5 -13z"/>
<path d="M8061 1854 c0 -11 3 -14 6 -6 3 7 2 16 -1 19 -3 4 -6 -2 -5 -13z"/>
<path d="M8140 1860 c0 -5 4 -10 9 -10 6 0 13 5 16 10 3 6 -1 10 -9 10 -9 0
-16 -4 -16 -10z"/>
<path d="M8180 1864 c0 -3 7 -12 15 -20 13 -14 15 -14 15 0 0 10 6 13 15 10 8
-4 15 -1 15 5 0 6 -13 11 -30 11 -16 0 -30 -3 -30 -6z"/>
<path d="M8350 1859 c0 -5 -4 -7 -10 -4 -5 3 -10 1 -10 -4 0 -6 7 -11 15 -11
8 0 15 7 15 15 0 8 -2 15 -5 15 -3 0 -5 -5 -5 -11z"/>
<path d="M8545 1860 c4 -6 11 -8 16 -5 14 9 11 15 -7 15 -8 0 -12 -5 -9 -10z"/>
<path d="M1930 1850 c0 -5 5 -10 10 -10 6 0 10 5 10 10 0 6 -4 10 -10 10 -5 0
-10 -4 -10 -10z"/>
<path d="M1961 1844 c0 -11 3 -14 6 -6 3 7 2 16 -1 19 -3 4 -6 -2 -5 -13z"/>
<path d="M2147 1846 c-4 -10 -1 -13 9 -9 15 6 19 23 5 23 -5 0 -11 -7 -14 -14z"/>
<path d="M2206 1845 c4 -8 8 -15 10 -15 2 0 4 7 4 15 0 8 -4 15 -10 15 -5 0
-7 -7 -4 -15z"/>
<path d="M2230 1850 c0 -5 5 -10 10 -10 6 0 10 5 10 10 0 6 -4 10 -10 10 -5 0
-10 -4 -10 -10z"/>
<path d="M2296 1845 c4 -8 8 -15 10 -15 2 0 4 7 4 15 0 8 -4 15 -10 15 -5 0
-7 -7 -4 -15z"/>
<path d="M2326 1845 c4 -8 8 -15 10 -15 2 0 4 7 4 15 0 8 -4 15 -10 15 -5 0
-7 -7 -4 -15z"/>
<path d="M2366 1845 c-3 -8 -1 -15 4 -15 6 0 10 7 10 15 0 8 -2 15 -4 15 -2 0
-6 -7 -10 -15z"/>
<path d="M2490 1844 c0 -8 5 -12 10 -9 6 3 10 10 10 16 0 5 -4 9 -10 9 -5 0
-10 -7 -10 -16z"/>
<path d="M2830 1850 c0 -5 5 -10 11 -10 5 0 7 5 4 10 -3 6 -8 10 -11 10 -2 0
-4 -4 -4 -10z"/>
<path d="M3075 1850 c3 -5 8 -10 11 -10 2 0 4 5 4 10 0 6 -5 10 -11 10 -5 0
-7 -4 -4 -10z"/>
<path d="M5490 1849 c0 -5 5 -7 10 -4 6 3 10 8 10 11 0 2 -4 4 -10 4 -5 0 -10
-5 -10 -11z"/>
<path d="M5525 1850 c-7 -12 2 -12 30 0 19 8 19 9 -2 9 -12 1 -25 -3 -28 -9z"/>
<path d="M5585 1850 c-3 -6 1 -7 9 -4 18 7 21 14 7 14 -6 0 -13 -4 -16 -10z"/>
<path d="M5620 1849 c0 -5 5 -7 10 -4 6 3 10 8 10 11 0 2 -4 4 -10 4 -5 0 -10
-5 -10 -11z"/>
<path d="M5656 1845 c4 -8 8 -15 10 -15 2 0 4 7 4 15 0 8 -4 15 -10 15 -5 0
-7 -7 -4 -15z"/>
<path d="M5685 1850 c3 -5 10 -10 16 -10 5 0 9 5 9 10 0 6 -7 10 -16 10 -8 0
-12 -4 -9 -10z"/>
<path d="M5741 1842 c0 -11 2 -13 6 -4 4 10 8 10 19 1 11 -9 14 -8 14 3 0 7
-9 14 -20 15 -13 1 -20 -4 -19 -15z"/>
<path d="M6400 1856 c0 -2 11 -6 25 -8 14 -3 25 -1 25 3 0 5 -11 9 -25 9 -14
0 -25 -2 -25 -4z"/>
<path d="M6460 1849 c0 -5 5 -7 10 -4 6 3 10 8 10 11 0 2 -4 4 -10 4 -5 0 -10
-5 -10 -11z"/>
<path d="M7210 1845 c0 -8 2 -15 4 -15 2 0 6 7 10 15 3 8 1 15 -4 15 -6 0 -10
-7 -10 -15z"/>
<path d="M7241 1844 c0 -11 3 -14 6 -6 3 7 2 16 -1 19 -3 4 -6 -2 -5 -13z"/>
<path d="M2441 1834 c0 -11 3 -14 6 -6 3 7 2 16 -1 19 -3 4 -6 -2 -5 -13z"/>
<path d="M2600 1839 c0 -5 5 -7 10 -4 6 3 10 8 10 11 0 2 -4 4 -10 4 -5 0 -10
-5 -10 -11z"/>
<path d="M3682 1830 c0 -14 2 -19 5 -12 2 6 2 18 0 25 -3 6 -5 1 -5 -13z"/>
<path d="M3882 1830 c0 -14 2 -19 5 -12 2 6 2 18 0 25 -3 6 -5 1 -5 -13z"/>
<path d="M7848 1833 c6 -2 18 -2 25 0 6 3 1 5 -13 5 -14 0 -19 -2 -12 -5z"/>
<path d="M3922 1705 c0 -16 2 -22 5 -12 2 9 2 23 0 30 -3 6 -5 -1 -5 -18z"/>
<path d="M3952 1710 c0 -14 2 -19 5 -12 2 6 2 18 0 25 -3 6 -5 1 -5 -13z"/>
<path d="M4821 1703 c0 -24 2 -25 8 -8 l8 20 6 -20 c5 -16 5 -15 4 4 -3 36
-27 39 -26 4z"/>
<path d="M5822 1710 c0 -14 2 -19 5 -12 2 6 2 18 0 25 -3 6 -5 1 -5 -13z"/>
<path d="M2265 1710 c3 -5 8 -10 11 -10 2 0 4 5 4 10 0 6 -5 10 -11 10 -5 0
-7 -4 -4 -10z"/>
<path d="M2291 1704 c0 -11 3 -14 6 -6 3 7 2 16 -1 19 -3 4 -6 -2 -5 -13z"/>
<path d="M2722 1700 c0 -14 2 -19 5 -12 2 6 2 18 0 25 -3 6 -5 1 -5 -13z"/>
<path d="M2741 1704 c0 -11 3 -14 6 -6 3 7 2 16 -1 19 -3 4 -6 -2 -5 -13z"/>
<path d="M4051 1704 c0 -11 3 -14 6 -6 3 7 2 16 -1 19 -3 4 -6 -2 -5 -13z"/>
<path d="M4132 1705 c-10 -12 -7 -14 18 -12 16 1 28 7 27 12 -6 16 -31 16 -45
0z"/>
<path d="M4280 1711 c0 -4 -11 -7 -25 -6 -14 2 -25 -1 -25 -5 0 -13 53 -5 58
9 2 6 1 11 -2 11 -3 0 -6 -4 -6 -9z"/>
<path d="M4360 1705 c0 -8 2 -15 4 -15 2 0 6 7 10 15 3 8 1 15 -4 15 -6 0 -10
-7 -10 -15z"/>
<path d="M4390 1711 c0 -5 9 -7 21 -4 12 3 24 0 29 -6 5 -10 9 -9 13 3 5 13
-1 16 -28 16 -19 0 -35 -4 -35 -9z"/>
<path d="M4541 1704 c0 -11 3 -14 6 -6 3 7 2 16 -1 19 -3 4 -6 -2 -5 -13z"/>
<path d="M4780 1705 c0 -8 5 -15 10 -15 6 0 10 7 10 15 0 8 -4 15 -10 15 -5 0
-10 -7 -10 -15z"/>
<path d="M5705 1710 c-3 -5 -1 -10 4 -10 6 0 11 5 11 10 0 6 -2 10 -4 10 -3 0
-8 -4 -11 -10z"/>
<path d="M5790 1705 c0 -8 2 -15 4 -15 2 0 6 7 10 15 3 8 1 15 -4 15 -6 0 -10
-7 -10 -15z"/>
<path d="M6680 1701 c0 -25 6 -27 13 -6 4 8 2 17 -3 20 -6 4 -10 -3 -10 -14z"/>
<path d="M2348 1703 c7 -3 16 -2 19 1 4 3 -2 6 -13 5 -11 0 -14 -3 -6 -6z"/>
<path d="M3871 1694 c0 -11 3 -14 6 -6 3 7 2 16 -1 19 -3 4 -6 -2 -5 -13z"/>
<path d="M5681 1694 c0 -11 3 -14 6 -6 3 7 2 16 -1 19 -3 4 -6 -2 -5 -13z"/>
<path d="M6736 1695 c4 -8 8 -15 10 -15 2 0 4 7 4 15 0 8 -4 15 -10 15 -5 0
-7 -7 -4 -15z"/>
<path d="M6780 1695 c0 -8 2 -15 4 -15 2 0 6 7 10 15 3 8 1 15 -4 15 -6 0 -10
-7 -10 -15z"/>
<path d="M8441 1694 c0 -11 3 -14 6 -6 3 7 2 16 -1 19 -3 4 -6 -2 -5 -13z"/>
<path d="M7390 1690 c-9 -6 -10 -10 -3 -10 6 0 15 5 18 10 8 12 4 12 -15 0z"/>
<path d="M7606 1686 c7 -18 44 -22 44 -5 0 5 -5 7 -10 4 -6 -4 -18 -1 -26 6
-12 10 -13 9 -8 -5z"/>
<path d="M8341 1684 c0 -11 3 -14 6 -6 3 7 2 16 -1 19 -3 4 -6 -2 -5 -13z"/>
<path d="M8465 1690 c-3 -5 -1 -10 4 -10 6 0 11 5 11 10 0 6 -2 10 -4 10 -3 0
-8 -4 -11 -10z"/>
<path d="M8560 1688 c0 -13 7 -17 25 -16 26 2 36 25 10 25 -8 0 -15 -5 -15
-11 0 -6 -5 -4 -10 4 -8 13 -10 12 -10 -2z"/>
<path d="M8621 1684 c0 -11 3 -14 6 -6 3 7 2 16 -1 19 -3 4 -6 -2 -5 -13z"/>
<path d="M8643 1685 c0 -8 4 -15 9 -15 4 0 8 7 8 15 0 8 -4 15 -8 15 -5 0 -9
-7 -9 -15z"/>
<path d="M7665 1680 c-3 -5 -1 -10 4 -10 6 0 11 5 11 10 0 6 -2 10 -4 10 -3 0
-8 -4 -11 -10z"/>
<path d="M4540 1609 c0 -5 4 -8 9 -4 5 3 12 1 16 -5 10 -16 25 -12 25 8 0 13
-2 14 -9 3 -6 -9 -11 -10 -15 -2 -9 14 -26 14 -26 0z"/>
<path d="M2327 1590 c-3 -11 -1 -20 4 -20 5 0 9 9 9 20 0 11 -2 20 -4 20 -2 0
-6 -9 -9 -20z"/>
<path d="M2761 1594 c0 -11 3 -14 6 -6 3 7 2 16 -1 19 -3 4 -6 -2 -5 -13z"/>
<path d="M3921 1594 c0 -11 3 -14 6 -6 3 7 2 16 -1 19 -3 4 -6 -2 -5 -13z"/>
<path d="M3951 1594 c0 -11 3 -14 6 -6 3 7 2 16 -1 19 -3 4 -6 -2 -5 -13z"/>
<path d="M4076 1595 c-3 -8 -1 -15 4 -15 6 0 10 7 10 15 0 8 -2 15 -4 15 -2 0
-6 -7 -10 -15z"/>
<path d="M4398 1603 c7 -3 16 -2 19 1 4 3 -2 6 -13 5 -11 0 -14 -3 -6 -6z"/>
<path d="M2096 1585 c-3 -8 -1 -15 4 -15 6 0 10 7 10 15 0 8 -2 15 -4 15 -2 0
-6 -7 -10 -15z"/>
<path d="M2260 1591 c0 -6 4 -13 10 -16 6 -3 7 1 4 9 -7 18 -14 21 -14 7z"/>
<path d="M2355 1591 c-3 -5 -1 -12 5 -16 5 -3 10 1 10 9 0 18 -6 21 -15 7z"/>
<path d="M2540 1584 c0 -8 5 -12 10 -9 6 4 8 11 5 16 -9 14 -15 11 -15 -7z"/>
<path d="M3890 1589 c0 -5 5 -7 10 -4 6 3 10 8 10 11 0 2 -4 4 -10 4 -5 0 -10
-5 -10 -11z"/>
<path d="M6195 1590 c-3 -5 -1 -10 4 -10 6 0 11 5 11 10 0 6 -2 10 -4 10 -3 0
-8 -4 -11 -10z"/>
<path d="M5630 1580 c0 -5 5 -10 10 -10 6 0 10 5 10 10 0 6 -4 10 -10 10 -5 0
-10 -4 -10 -10z"/>
<path d="M5660 1580 c0 -5 7 -7 15 -4 8 4 15 8 15 10 0 2 -7 4 -15 4 -8 0 -15
-4 -15 -10z"/>
<path d="M5745 1581 c-3 -5 -1 -12 5 -16 5 -3 10 -2 10 3 0 6 9 8 20 5 11 -3
20 0 20 6 0 13 -46 15 -55 2z"/>
<path d="M6480 1580 c0 -5 5 -10 10 -10 6 0 10 5 10 10 0 6 -4 10 -10 10 -5 0
-10 -4 -10 -10z"/>
<path d="M8882 1545 c0 -16 2 -22 5 -12 2 9 2 23 0 30 -3 6 -5 -1 -5 -18z"/>
<path d="M1663 1310 c0 -25 2 -35 4 -22 2 12 2 32 0 45 -2 12 -4 2 -4 -23z"/>
<path d="M3548 1273 c7 -3 16 -2 19 1 4 3 -2 6 -13 5 -11 0 -14 -3 -6 -6z"/>
<path d="M4493 1273 c9 -2 25 -2 35 0 9 3 1 5 -18 5 -19 0 -27 -2 -17 -5z"/>
<path d="M10081 1104 c0 -11 3 -14 6 -6 3 7 2 16 -1 19 -3 4 -6 -2 -5 -13z"/>
<path d="M1328 973 c6 -2 18 -2 25 0 6 3 1 5 -13 5 -14 0 -19 -2 -12 -5z"/>
</g>
</svg>
